<svg version="1.1" id="Layer_1" xmlns="http://www.w3.org/2000/svg" xmlns:xlink="http://www.w3.org/1999/xlink" x="0px" y="0px"
	 width="100%" viewBox="0 0 424 424" enable-background="new 0 0 424 424" xml:space="preserve">
<path fill="#FFFFFF" opacity="1.000000" stroke="none" 
	d="
M1.000000,160.000000 
	C1.000000,106.682236 1.000000,53.864464 1.000000,1.023349 
	C142.276123,1.023349 283.552246,1.023349 424.914185,1.023349 
	C424.914185,142.234436 424.914185,283.468964 424.914185,424.851746 
	C283.666779,424.851746 142.333405,424.851746 1.000000,424.851746 
	C1.000000,336.781067 1.000000,248.640533 1.000000,160.000000 
M294.019989,212.111053 
	C296.074158,211.107758 298.128357,210.104477 300.780579,208.783386 
	C302.536346,207.921982 304.292084,207.060562 306.752686,206.059113 
	C309.518219,204.435532 312.283722,202.811951 315.737457,201.025604 
	C319.153931,198.682220 322.570404,196.338821 326.640472,193.820633 
	C329.223511,191.620270 331.806580,189.419891 334.977478,186.969345 
	C337.047028,184.841202 339.116608,182.713058 341.779602,180.218430 
	C343.656311,177.826187 345.533020,175.433960 347.967621,172.580002 
	C349.995209,169.090561 352.022827,165.601120 354.590485,161.660019 
	C354.883636,160.892929 355.082062,160.071930 355.483582,159.366531 
	C369.410492,134.899475 373.103577,108.900764 365.647583,81.831985 
	C356.622955,49.068291 331.752167,32.165833 299.786438,36.015518 
	C287.141815,37.538334 275.682281,44.882324 271.607208,54.074570 
	C271.759552,54.099239 271.937897,54.188248 272.060242,54.138744 
	C273.445801,53.577961 274.809540,52.961449 276.204163,52.424938 
	C292.080261,46.317417 307.157928,47.604813 320.259857,58.797302 
	C333.240784,69.886414 342.723633,83.433945 340.632050,101.551849 
	C339.675842,109.834854 336.193115,117.826195 333.321625,126.364655 
	C331.870636,129.222443 330.419647,132.080231 328.422516,135.332932 
	C326.742645,137.820267 325.062805,140.307587 322.869415,143.133636 
	C321.280212,145.105499 319.691010,147.077362 317.494598,149.329163 
	C314.873505,151.834091 312.252380,154.339035 309.005371,157.043045 
	C306.681549,158.806320 304.357727,160.569580 301.420410,162.555756 
	C298.952240,164.102737 296.484039,165.649719 293.356018,167.302307 
	C291.574982,168.256729 289.793945,169.211166 287.313965,170.252121 
	C284.731262,171.421310 282.148560,172.590500 278.890198,173.801758 
	C277.204865,174.355850 275.519531,174.909958 273.070862,175.628937 
	C270.384735,176.452377 267.698578,177.275818 264.241150,178.090240 
	C259.030579,179.672195 253.820023,181.254166 247.835327,182.840591 
	C243.312195,183.901657 238.789047,184.962738 234.135071,185.222427 
	C234.064651,184.146439 233.994247,183.070450 234.066376,181.083130 
	C234.059402,177.389359 234.052444,173.695602 234.204071,169.185226 
	C234.241653,165.455017 234.279236,161.724792 234.622803,157.128845 
	C234.661880,154.082443 234.700943,151.036057 234.942154,147.093643 
	C234.909424,143.726883 234.876694,140.360107 234.993271,136.104385 
	C234.999969,133.403137 235.006653,130.701874 235.248871,127.222725 
	C235.466461,124.146469 235.684052,121.070221 236.109207,117.214798 
	C236.597626,113.800919 237.086060,110.387039 237.864975,106.208740 
	C238.540512,102.803520 239.216049,99.398300 240.218567,95.319115 
	C241.102005,92.210297 241.985443,89.101471 243.237137,85.377495 
	C244.130936,82.917152 245.024734,80.456818 246.355316,77.441833 
	C247.583786,74.631943 248.812256,71.822052 250.555588,68.586960 
	C251.709518,66.403885 252.863449,64.220818 254.554443,61.631104 
	C256.571594,58.782310 258.480682,55.849392 260.623230,53.098236 
	C275.618530,33.843239 294.836273,25.223259 319.305664,29.964439 
	C322.716644,30.625349 326.127228,31.288170 330.590637,32.154396 
	C292.515442,6.402819 246.288757,14.561039 215.615631,52.386276 
	C213.732208,54.899574 211.848785,57.412872 209.402191,60.291615 
	C207.224594,63.445171 205.047012,66.598724 202.295151,70.133522 
	C200.345947,73.376160 198.396729,76.618797 195.990601,80.315872 
	C194.320618,83.541031 192.650650,86.766190 190.454163,90.430244 
	C188.837250,94.079422 187.220337,97.728600 185.113312,101.916702 
	C183.531296,105.910561 181.949295,109.904419 180.029404,114.478111 
	C178.963531,117.971977 177.897675,121.465836 176.345154,125.481934 
	C175.601486,128.319580 174.857803,131.157242 173.770248,134.679230 
	C173.056168,137.944702 172.342087,141.210190 171.217987,145.154694 
	C170.527237,149.099716 169.836487,153.044754 168.912521,157.767273 
	C168.350082,161.840973 167.787643,165.914688 167.031052,170.841095 
	C166.724243,175.224869 166.417435,179.608658 165.942490,184.850113 
	C165.683578,189.230438 165.424667,193.610779 165.035049,198.840454 
	C164.969269,200.556152 164.903488,202.271851 164.116074,204.102356 
	C161.394852,204.914917 158.673615,205.727478 155.141968,206.719727 
	C151.417542,207.747070 147.693130,208.774414 143.159225,209.856232 
	C139.433945,210.958725 135.708679,212.061234 131.240524,213.077469 
	C128.133179,214.297745 125.025826,215.518021 121.196449,216.883820 
	C118.455139,218.226990 115.713829,219.570160 112.267456,221.011185 
	C109.842865,222.334076 107.418282,223.656967 104.306465,225.070541 
	C101.827461,226.538956 99.348450,228.007385 96.216232,229.762924 
	C93.755226,231.360886 91.294220,232.958847 88.189278,234.838135 
	C85.408943,236.870255 82.628616,238.902359 79.223869,241.116180 
	C77.432701,242.627975 75.641525,244.139755 73.218193,245.925354 
	C70.435234,248.505325 67.652275,251.085312 64.264000,253.979813 
	C62.168800,256.294495 60.073597,258.609192 57.377251,261.235474 
	C54.918228,264.490997 52.459202,267.746521 49.431664,271.360199 
	C29.741428,300.001526 26.900246,330.528137 40.421509,362.247009 
	C48.051456,380.145721 61.824718,392.148041 80.747482,397.463196 
	C97.945877,402.293945 113.748039,400.287689 126.487976,386.340210 
	C127.583199,385.141113 128.378342,383.667969 129.797150,381.624695 
	C128.139511,381.897430 127.638458,381.881836 127.222504,382.062317 
	C99.715591,393.998566 62.749817,368.716949 61.685055,337.705353 
	C61.298550,326.448181 64.353943,316.057343 69.561195,305.598724 
	C71.594826,302.400269 73.628448,299.201843 76.221001,295.576660 
	C78.006325,293.444458 79.791649,291.312225 82.144173,288.921600 
	C84.106705,286.975067 86.069244,285.028503 88.673294,282.870483 
	C91.088112,280.904114 93.502930,278.937744 96.586861,276.875763 
	C98.385574,275.527191 100.184288,274.178619 102.638954,272.689880 
	C104.752289,271.356812 106.865631,270.023712 109.617920,268.511017 
	C112.174225,267.052368 114.730530,265.593719 117.966476,264.068268 
	C119.975296,263.023468 121.984116,261.978699 124.699249,260.896179 
	C127.174004,259.719482 129.648758,258.542816 132.866394,257.228699 
	C135.991714,255.961731 139.117035,254.694748 143.001144,253.293060 
	C146.326813,252.134613 149.652481,250.976166 153.721558,249.820236 
	C157.154999,248.582870 160.588425,247.345505 164.737762,246.155334 
	C165.452682,246.104111 166.167603,246.052872 167.075485,246.870163 
	C167.262070,248.913925 167.448639,250.957703 167.369034,253.830566 
	C167.555084,257.885620 167.741135,261.940643 167.778961,266.872925 
	C167.689880,270.927551 167.600815,274.982208 167.289703,279.926849 
	C167.231674,283.620544 167.173645,287.314240 166.948059,291.844025 
	C166.687225,295.566193 166.426376,299.288391 166.037460,303.859680 
	C165.739456,307.243317 165.441467,310.626953 164.940369,314.807098 
	C164.630676,317.871674 164.320999,320.936249 163.563065,324.674591 
	C163.277771,327.108459 162.992477,329.542297 162.290680,332.583801 
	C161.868881,335.056396 161.447083,337.528992 160.584946,340.616028 
	C160.048508,343.076813 159.512054,345.537567 158.548065,348.567963 
	C157.976288,350.605865 157.404495,352.643768 156.325394,355.200684 
	C155.149490,358.276306 153.973572,361.351929 152.235703,364.898987 
	C150.689911,367.872253 149.144119,370.845520 147.092285,374.231842 
	C129.315063,402.270111 104.296356,411.539825 71.739510,402.411102 
	C72.624687,403.477661 72.853661,403.942444 73.227196,404.176483 
	C90.483429,414.988129 109.094841,419.661102 129.391968,416.320435 
	C151.771515,412.637024 168.235489,399.226379 183.789978,383.054749 
	C186.189117,380.303040 188.588272,377.551331 191.636276,374.681427 
	C194.729660,370.781952 197.823029,366.882507 201.505722,362.638550 
	C203.223404,360.149689 204.941101,357.660858 207.151901,354.764893 
	C208.954361,351.888245 210.756805,349.011597 213.018402,345.688202 
	C214.351868,343.136353 215.685318,340.584534 217.544754,337.576904 
	C218.757996,334.832428 219.971237,332.087921 221.714539,328.843109 
	C223.088226,325.232025 224.461914,321.620911 226.232422,317.334442 
	C227.270432,313.591492 228.308441,309.848511 229.771622,305.470886 
	C230.484192,300.982635 231.196762,296.494354 232.132843,291.200348 
	C232.367035,287.137329 232.601227,283.074280 232.974075,278.097229 
	C232.938187,274.400482 232.902298,270.703735 233.015274,266.089569 
	C232.999680,262.060608 232.984085,258.031647 233.123184,253.105820 
	C233.118668,249.060364 233.114151,245.014923 233.249985,240.144165 
	C233.475510,237.086945 233.701035,234.029709 234.718185,230.950775 
	C237.826645,230.105362 240.935104,229.259949 244.868546,228.287598 
	C250.248840,226.825729 255.629135,225.363846 261.756439,223.816193 
	C266.504944,222.213486 271.253418,220.610794 276.747528,218.959946 
	C279.906311,217.687576 283.065063,216.415192 286.923859,215.055405 
	C289.058075,214.100281 291.192261,213.145142 294.019989,212.111053 
M70.625801,402.495117 
	C70.625801,402.495117 70.558128,402.461304 70.625801,402.495117 
z"/>
<path fill="#243F8C" opacity="1.000000" stroke="none" 
	d="
M69.029373,306.008087 
	C64.353943,316.057343 61.298550,326.448181 61.685055,337.705353 
	C62.749817,368.716949 99.715591,393.998566 127.222504,382.062317 
	C127.638458,381.881836 128.139511,381.897430 129.797150,381.624695 
	C128.378342,383.667969 127.583199,385.141113 126.487976,386.340210 
	C113.748039,400.287689 97.945877,402.293945 80.747482,397.463196 
	C61.824718,392.148041 48.051456,380.145721 40.421509,362.247009 
	C26.900246,330.528137 29.741428,300.001526 49.747673,271.545044 
	C53.797005,279.669617 57.290176,287.735504 61.366417,295.495117 
	C63.361584,299.293182 66.440796,302.521759 69.029373,306.008087 
z"/>
<path fill="#243F8C" opacity="1.000000" stroke="none" 
	d="
M333.856232,125.949806 
	C336.193115,117.826195 339.675842,109.834854 340.632050,101.551849 
	C342.723633,83.433945 333.240784,69.886414 320.259857,58.797302 
	C307.157928,47.604813 292.080261,46.317417 276.204163,52.424938 
	C274.809540,52.961449 273.445801,53.577961 272.060242,54.138744 
	C271.937897,54.188248 271.759552,54.099239 271.607208,54.074570 
	C275.682281,44.882324 287.141815,37.538334 299.786438,36.015518 
	C331.752167,32.165833 356.622955,49.068291 365.647583,81.831985 
	C373.103577,108.900764 369.410492,134.899475 355.483582,159.366531 
	C355.082062,160.071930 354.883636,160.892929 354.182373,161.554138 
	C352.468994,158.610016 351.376160,155.649017 349.819794,152.955917 
	C344.587585,143.902451 339.190308,134.944382 333.856232,125.949806 
z"/>
<path fill="#AB3127" opacity="1.000000" stroke="none" 
	d="
M216.197372,52.037273 
	C246.288757,14.561039 292.515442,6.402819 330.590637,32.154396 
	C326.127228,31.288170 322.716644,30.625349 319.305664,29.964439 
	C294.836273,25.223259 275.618530,33.843239 260.623230,53.098236 
	C258.480682,55.849392 256.571594,58.782310 254.123337,61.513168 
	C252.111679,60.592541 250.613419,59.421413 248.937210,59.046959 
	C238.045502,56.613842 227.115097,54.353905 216.197372,52.037273 
z"/>
<path fill="#AB3127" opacity="1.000000" stroke="none" 
	d="
M183.171051,383.358246 
	C168.235489,399.226379 151.771515,412.637024 129.391968,416.320435 
	C109.094841,419.661102 90.483429,414.988129 73.227196,404.176483 
	C72.853661,403.942444 72.624687,403.477661 71.739510,402.411102 
	C104.296356,411.539825 129.315063,402.270111 147.714188,374.178894 
	C157.528839,376.427338 166.730072,378.695740 175.908691,381.052216 
	C178.364914,381.682800 180.752151,382.582245 183.171051,383.358246 
z"/>
<path fill="#EBBA56" opacity="1.000000" stroke="none" 
	d="
M164.837708,203.987549 
	C164.903488,202.271851 164.969269,200.556152 165.433502,198.376160 
	C167.511551,196.361404 169.484100,195.028763 170.824524,193.226074 
	C181.814423,178.446121 205.035583,174.359375 220.448669,184.049454 
	C225.146591,187.003006 229.400589,190.662704 233.917480,194.464279 
	C233.931183,201.282944 233.885284,207.636337 233.492096,213.911987 
	C232.469070,212.210236 231.678589,210.623611 231.135330,208.956406 
	C225.524185,191.736435 207.801743,181.227554 189.094406,188.789856 
	C176.569626,193.852890 169.014359,206.304276 170.005508,221.174362 
	C170.970123,235.646469 187.439758,250.331619 201.590546,248.818314 
	C214.017242,247.489395 224.061432,242.139816 229.546066,230.088272 
	C230.275269,228.485962 232.018082,227.344955 233.335205,226.361755 
	C233.561447,228.146301 233.744003,229.559402 233.926559,230.972488 
	C233.701035,234.029709 233.475510,237.086945 232.825684,240.595505 
	C230.985107,242.147156 229.447906,243.123245 228.170807,244.366547 
	C211.046677,261.037018 184.488998,258.869568 170.622269,240.448273 
	C169.807541,239.365967 168.300049,238.805145 167.043915,237.558136 
	C166.261154,226.072266 165.549438,215.029907 164.837708,203.987549 
z"/>
<path fill="#D28841" opacity="1.000000" stroke="none" 
	d="
M166.165527,303.010559 
	C166.426376,299.288391 166.687225,295.566193 167.415192,291.431274 
	C171.210526,292.044586 174.498230,293.235352 177.874619,294.065460 
	C187.658463,296.471039 197.402588,299.328064 207.683472,297.076233 
	C215.742310,295.311127 223.832870,293.690765 231.909332,292.006104 
	C231.196762,296.494354 230.484192,300.982635 229.110718,305.757965 
	C222.623962,307.029816 216.831573,308.501404 210.965744,308.904602 
	C195.679916,309.955292 180.613968,308.651550 166.165527,303.010559 
z"/>
<path fill="#D89446" opacity="1.000000" stroke="none" 
	d="
M232.021088,291.603210 
	C223.832870,293.690765 215.742310,295.311127 207.683472,297.076233 
	C197.402588,299.328064 187.658463,296.471039 177.874619,294.065460 
	C174.498230,293.235352 171.210526,292.044586 167.498962,291.013245 
	C167.173645,287.314240 167.231674,283.620544 167.771133,279.472351 
	C169.843704,279.349579 171.559479,279.404236 173.006912,280.055389 
	C189.584320,287.513336 206.435745,288.015808 223.568542,282.250031 
	C226.669617,281.206421 229.747070,280.092651 232.835419,279.011261 
	C232.601227,283.074280 232.367035,287.137329 232.021088,291.603210 
z"/>
<path fill="#DDA04B" opacity="1.000000" stroke="none" 
	d="
M232.904755,278.554260 
	C229.747070,280.092651 226.669617,281.206421 223.568542,282.250031 
	C206.435745,288.015808 189.584320,287.513336 173.006912,280.055389 
	C171.559479,279.404236 169.843704,279.349579 167.882141,279.027344 
	C167.600815,274.982208 167.689880,270.927551 168.237411,266.440430 
	C170.544922,266.708191 172.486526,267.230408 174.228775,268.136108 
	C191.836792,277.289825 209.447372,277.565460 227.184021,268.472076 
	C228.882172,267.601440 230.963150,267.477539 232.866425,267.006958 
	C232.902298,270.703735 232.938187,274.400482 232.904755,278.554260 
z"/>
<path fill="#DDA04B" opacity="1.000000" stroke="none" 
	d="
M167.225204,169.988388 
	C167.787643,165.914688 168.350082,161.840973 169.429688,157.381256 
	C171.699402,156.632965 173.543213,156.507202 175.190308,155.871613 
	C190.821869,149.839752 206.584366,148.869904 222.589813,154.313309 
	C226.467621,155.632141 230.406189,156.772278 234.316818,157.994583 
	C234.279236,161.724792 234.241653,165.455017 233.744583,169.588013 
	C232.190216,169.655746 230.991501,169.505768 230.015854,168.958237 
	C211.602722,158.624985 193.038788,158.310730 174.209396,167.841278 
	C172.067749,168.925293 169.562073,169.290100 167.225204,169.988388 
z"/>
<path fill="#7DACD8" opacity="1.000000" stroke="none" 
	d="
M234.265915,186.023819 
	C238.789047,184.962738 243.312195,183.901657 248.551437,183.014938 
	C252.551453,190.703583 256.500305,198.013123 258.898193,205.800247 
	C260.656250,211.509506 260.379364,217.845383 261.009430,223.901978 
	C255.629135,225.363846 250.248840,226.825729 244.446503,227.841827 
	C244.017258,222.249939 244.470108,217.051804 243.895325,211.969894 
	C243.027328,204.295609 241.914291,196.471390 234.158356,191.560074 
	C234.151413,189.432678 234.208664,187.728241 234.265915,186.023819 
z"/>
<path fill="#E7B252" opacity="1.000000" stroke="none" 
	d="
M167.114960,238.001648 
	C168.300049,238.805145 169.807541,239.365967 170.622269,240.448273 
	C184.488998,258.869568 211.046677,261.037018 228.170807,244.366547 
	C229.447906,243.123245 230.985107,242.147156 232.755508,241.008148 
	C233.114151,245.014923 233.118668,249.060364 232.696747,253.591095 
	C230.851456,254.912674 229.392715,255.688553 228.019775,256.594482 
	C210.277191,268.301941 189.374680,267.914062 172.234543,255.591980 
	C170.814545,254.571152 169.173553,253.857712 167.635223,253.001465 
	C167.448639,250.957703 167.262070,248.913925 167.024841,245.993530 
	C167.021118,242.745163 167.068039,240.373398 167.114960,238.001648 
z"/>
<path fill="#E3A94E" opacity="1.000000" stroke="none" 
	d="
M167.502136,253.416016 
	C169.173553,253.857712 170.814545,254.571152 172.234543,255.591980 
	C189.374680,267.914062 210.277191,268.301941 228.019775,256.594482 
	C229.392715,255.688553 230.851456,254.912674 232.619400,254.039520 
	C232.984085,258.031647 232.999680,262.060608 232.940857,266.548279 
	C230.963150,267.477539 228.882172,267.601440 227.184021,268.472076 
	C209.447372,277.565460 191.836792,277.289825 174.228775,268.136108 
	C172.486526,267.230408 170.544922,266.708191 168.311523,266.001831 
	C167.741135,261.940643 167.555084,257.885620 167.502136,253.416016 
z"/>
<path fill="#CC7C3C" opacity="1.000000" stroke="none" 
	d="
M166.101501,303.435120 
	C180.613968,308.651550 195.679916,309.955292 210.965744,308.904602 
	C216.831573,308.501404 222.623962,307.029816 228.898132,306.075317 
	C228.308441,309.848511 227.270432,313.591492 225.609375,317.670563 
	C219.949341,318.671234 214.930435,319.651398 209.871994,319.941345 
	C194.608154,320.816223 179.601501,319.387299 165.143478,314.010590 
	C165.441467,310.626953 165.739456,307.243317 166.101501,303.435120 
z"/>
<path fill="#73A1D1" opacity="1.000000" stroke="none" 
	d="
M261.382935,223.859100 
	C260.379364,217.845383 260.656250,211.509506 258.898193,205.800247 
	C256.500305,198.013123 252.551453,190.703583 248.938507,183.012695 
	C253.820023,181.254166 259.030579,179.672195 264.662903,178.441986 
	C272.705811,191.117508 275.666962,204.706329 276.001923,219.008087 
	C271.253418,220.610794 266.504944,222.213486 261.382935,223.859100 
z"/>
<path fill="#E7B252" opacity="1.000000" stroke="none" 
	d="
M234.200500,185.623123 
	C234.208664,187.728241 234.151413,189.432678 234.081833,191.893555 
	C233.998978,193.099655 233.928436,193.549332 233.857895,193.998993 
	C229.400589,190.662704 225.146591,187.003006 220.448669,184.049454 
	C205.035583,174.359375 181.814423,178.446121 170.824524,193.226074 
	C169.484100,195.028763 167.511551,196.361404 165.498840,197.951492 
	C165.424667,193.610779 165.683578,189.230438 166.365631,184.383545 
	C167.481430,183.485413 168.252823,183.142776 168.855255,182.609329 
	C185.881668,167.532654 209.072617,165.952988 227.982162,178.560822 
	C229.881516,179.827179 231.939484,180.855606 233.923828,181.994461 
	C233.994247,183.070450 234.064651,184.146439 234.200500,185.623123 
z"/>
<path fill="#D89446" opacity="1.000000" stroke="none" 
	d="
M234.469818,157.561707 
	C230.406189,156.772278 226.467621,155.632141 222.589813,154.313309 
	C206.584366,148.869904 190.821869,149.839752 175.190308,155.871613 
	C173.543213,156.507202 171.699402,156.632965 169.546295,156.992523 
	C169.836487,153.044754 170.527237,149.099716 171.641098,145.136566 
	C173.764557,144.889526 175.478149,144.731903 177.162857,144.418823 
	C183.142151,143.307663 189.066483,141.683731 195.093887,141.092300 
	C208.880859,139.739517 222.079269,142.495987 234.740021,147.989655 
	C234.700943,151.036057 234.661880,154.082443 234.469818,157.561707 
z"/>
<path fill="#E3A94E" opacity="1.000000" stroke="none" 
	d="
M233.995102,181.538788 
	C231.939484,180.855606 229.881516,179.827179 227.982162,178.560822 
	C209.072617,165.952988 185.881668,167.532654 168.855255,182.609329 
	C168.252823,183.142776 167.481430,183.485413 166.449707,183.954712 
	C166.417435,179.608658 166.724243,175.224869 167.128128,170.414734 
	C169.562073,169.290100 172.067749,168.925293 174.209396,167.841278 
	C193.038788,158.310730 211.602722,158.624985 230.015854,168.958237 
	C230.991501,169.505768 232.190216,169.655746 233.665283,169.996307 
	C234.052444,173.695602 234.059402,177.389359 233.995102,181.538788 
z"/>
<path fill="#D48C43" opacity="1.000000" stroke="none" 
	d="
M234.841095,147.541656 
	C222.079269,142.495987 208.880859,139.739517 195.093887,141.092300 
	C189.066483,141.683731 183.142151,143.307663 177.162857,144.418823 
	C175.478149,144.731903 173.764557,144.889526 171.846100,144.797058 
	C172.342087,141.210190 173.056168,137.944702 174.360321,134.338593 
	C176.257919,133.848892 177.594666,133.825989 178.868439,133.531082 
	C190.397537,130.861847 202.024658,129.725845 213.725708,132.000137 
	C220.820618,133.379135 227.808182,135.310272 234.843979,136.993347 
	C234.876694,140.360107 234.909424,143.726883 234.841095,147.541656 
z"/>
<path fill="#C16334" opacity="1.000000" stroke="none" 
	d="
M185.603439,101.377785 
	C187.220337,97.728600 188.837250,94.079422 191.075562,90.366547 
	C192.485886,90.518196 193.268188,90.891037 194.064743,90.924561 
	C202.069031,91.261459 210.122208,91.110519 218.068008,91.966133 
	C225.402039,92.755875 232.621597,94.608559 239.891586,95.993080 
	C239.216049,99.398300 238.540512,102.803520 237.326843,106.595963 
	C235.962769,106.956970 235.095734,107.086723 234.317001,106.881462 
	C219.421127,102.955254 204.422012,100.403656 188.943695,102.863708 
	C187.934494,103.024101 186.721588,101.902863 185.603439,101.377785 
z"/>
<path fill="#C66F38" opacity="1.000000" stroke="none" 
	d="
M185.358368,101.647247 
	C186.721588,101.902863 187.934494,103.024101 188.943695,102.863708 
	C204.422012,100.403656 219.421127,102.955254 234.317001,106.881462 
	C235.095734,107.086723 235.962769,106.956970 237.181580,106.978172 
	C237.086060,110.387039 236.597626,113.800919 235.594360,117.606552 
	C233.622849,117.791344 232.165192,117.591011 230.709641,117.376366 
	C220.830276,115.919472 210.990616,113.981354 201.058716,113.165619 
	C194.227707,112.604576 187.268951,113.599052 180.367279,113.898277 
	C181.949295,109.904419 183.531296,105.910561 185.358368,101.647247 
z"/>
<path fill="#CC7C3C" opacity="1.000000" stroke="none" 
	d="
M180.198349,114.188194 
	C187.268951,113.599052 194.227707,112.604576 201.058716,113.165619 
	C210.990616,113.981354 220.830276,115.919472 230.709641,117.376366 
	C232.165192,117.591011 233.622849,117.791344 235.490601,117.996140 
	C235.684052,121.070221 235.466461,124.146469 234.723297,127.610794 
	C233.063202,127.803505 231.887299,127.738235 230.800613,127.392479 
	C221.105194,124.307564 211.242416,122.317635 201.009720,123.020264 
	C192.944046,123.574089 184.890656,124.306564 176.831802,124.959702 
	C177.897675,121.465836 178.963531,117.971977 180.198349,114.188194 
z"/>
<path fill="#C66F38" opacity="1.000000" stroke="none" 
	d="
M165.041931,314.408844 
	C179.601501,319.387299 194.608154,320.816223 209.871994,319.941345 
	C214.930435,319.651398 219.949341,318.671234 225.410950,318.008240 
	C224.461914,321.620911 223.088226,325.232025 221.197586,328.753998 
	C218.921371,328.557800 217.162201,328.360565 215.402832,328.358643 
	C205.853531,328.348145 196.260773,328.953857 186.768555,328.227997 
	C179.119781,327.643158 171.592499,325.469543 164.011322,324.000824 
	C164.320999,320.936249 164.630676,317.871674 165.041931,314.408844 
z"/>
<path fill="#73A1D1" opacity="1.000000" stroke="none" 
	d="
M131.983398,213.163727 
	C135.708679,212.061234 139.433945,210.958725 143.573563,210.308929 
	C145.364288,219.836258 146.440094,228.971497 148.251846,237.958374 
	C149.079224,242.062302 151.357788,245.873657 152.978149,249.817719 
	C149.652481,250.976166 146.326813,252.134613 142.457138,253.002563 
	C134.873779,240.465668 131.736938,227.239441 131.983398,213.163727 
z"/>
<path fill="#CF833F" opacity="1.000000" stroke="none" 
	d="
M176.588470,125.220810 
	C184.890656,124.306564 192.944046,123.574089 201.009720,123.020264 
	C211.242416,122.317635 221.105194,124.307564 230.800613,127.392479 
	C231.887299,127.738235 233.063202,127.803505 234.605530,127.999741 
	C235.006653,130.701874 234.999969,133.403137 234.918625,136.548859 
	C227.808182,135.310272 220.820618,133.379135 213.725708,132.000137 
	C202.024658,129.725845 190.397537,130.861847 178.868439,133.531082 
	C177.594666,133.825989 176.257919,133.848892 174.532257,133.996414 
	C174.857803,131.157242 175.601486,128.319580 176.588470,125.220810 
z"/>
<path fill="#BB5730" opacity="1.000000" stroke="none" 
	d="
M240.055084,95.656097 
	C232.621597,94.608559 225.402039,92.755875 218.068008,91.966133 
	C210.122208,91.110519 202.069031,91.261459 194.064743,90.924561 
	C193.268188,90.891037 192.485886,90.518196 191.338821,90.147095 
	C192.650650,86.766190 194.320618,83.541031 196.716278,80.125000 
	C207.257126,80.942436 217.091446,81.797348 226.879852,83.019936 
	C232.249527,83.690620 237.541733,84.981445 242.868881,85.992653 
	C241.985443,89.101471 241.102005,92.210297 240.055084,95.656097 
z"/>
<path fill="#7DACD8" opacity="1.000000" stroke="none" 
	d="
M153.349854,249.818970 
	C151.357788,245.873657 149.079224,242.062302 148.251846,237.958374 
	C146.440094,228.971497 145.364288,219.836258 143.978302,210.281677 
	C147.693130,208.774414 151.417542,207.747070 155.558868,207.143250 
	C155.423874,220.271439 155.968903,232.733047 163.689606,243.687744 
	C164.106277,244.278946 163.924866,245.291641 164.021866,246.108139 
	C160.588425,247.345505 157.154999,248.582870 153.349854,249.818970 
z"/>
<path fill="#C16334" opacity="1.000000" stroke="none" 
	d="
M161.025269,340.001587 
	C161.447083,337.528992 161.868881,335.056396 162.935547,332.288208 
	C180.395294,336.524017 197.501480,338.061035 214.867447,337.064789 
	C215.563766,337.024872 216.300751,337.693939 217.018784,338.032684 
	C215.685318,340.584534 214.351868,343.136353 212.279419,345.875488 
	C204.589325,345.837158 197.568054,346.150726 190.703735,345.257721 
	C180.751419,343.962982 170.912537,341.796326 161.025269,340.001587 
z"/>
<path fill="#C36936" opacity="1.000000" stroke="none" 
	d="
M217.281769,337.804810 
	C216.300751,337.693939 215.563766,337.024872 214.867447,337.064789 
	C197.501480,338.061035 180.395294,336.524017 163.143799,331.984375 
	C162.992477,329.542297 163.277771,327.108459 163.787186,324.337708 
	C171.592499,325.469543 179.119781,327.643158 186.768555,328.227997 
	C196.260773,328.953857 205.853531,328.348145 215.402832,328.358643 
	C217.162201,328.360565 218.921371,328.557800 220.932556,329.004150 
	C219.971237,332.087921 218.757996,334.832428 217.281769,337.804810 
z"/>
<path fill="#B3442A" opacity="1.000000" stroke="none" 
	d="
M152.797668,364.427582 
	C153.973572,361.351929 155.149490,358.276306 156.747925,355.290955 
	C158.588776,356.140564 159.924881,357.215820 161.438309,357.609711 
	C174.376419,360.976929 187.479889,363.232452 200.916412,362.983032 
	C197.823029,366.882507 194.729660,370.781952 191.211639,374.372803 
	C190.097137,373.713837 189.441422,373.172150 188.712280,373.042145 
	C179.013000,371.312805 169.273972,369.788116 159.617188,367.851624 
	C157.211868,367.369232 155.063934,365.603455 152.797668,364.427582 
z"/>
<path fill="#BB5730" opacity="1.000000" stroke="none" 
	d="
M160.805115,340.308777 
	C170.912537,341.796326 180.751419,343.962982 190.703735,345.257721 
	C197.568054,346.150726 204.589325,345.837158 212.049850,346.098877 
	C210.756805,349.011597 208.954361,351.888245 206.395157,354.922211 
	C189.755981,354.881653 174.150391,352.859406 158.975601,347.998352 
	C159.512054,345.537567 160.048508,343.076813 160.805115,340.308777 
z"/>
<path fill="#294993" opacity="1.000000" stroke="none" 
	d="
M69.295288,305.803406 
	C66.440796,302.521759 63.361584,299.293182 61.366417,295.495117 
	C57.290176,287.735504 53.797005,279.669617 50.031929,271.365967 
	C52.459202,267.746521 54.918228,264.490997 57.716087,261.454437 
	C60.390114,267.697571 62.258778,273.961090 65.191612,279.678680 
	C68.128456,285.404083 72.128220,290.584229 75.662079,296.003387 
	C73.628448,299.201843 71.594826,302.400269 69.295288,305.803406 
z"/>
<path fill="#446BAD" opacity="1.000000" stroke="none" 
	d="
M325.986877,193.995438 
	C322.570404,196.338821 319.153931,198.682220 315.340271,200.699142 
	C312.502014,187.060867 308.387665,174.316864 302.033905,162.332840 
	C304.357727,160.569580 306.681549,158.806320 309.639771,157.118774 
	C316.964325,166.763443 319.869537,177.843750 323.046661,188.837524 
	C323.580780,190.685699 324.984802,192.282501 325.986877,193.995438 
z"/>
<path fill="#3D61A5" opacity="1.000000" stroke="none" 
	d="
M326.313660,193.908035 
	C324.984802,192.282501 323.580780,190.685699 323.046661,188.837524 
	C319.869537,177.843750 316.964325,166.763443 309.952728,157.019226 
	C312.252380,154.339035 314.873505,151.834091 318.053253,149.416779 
	C323.249359,161.329178 327.869049,173.161041 332.560974,184.964172 
	C332.902222,185.822632 333.767853,186.472626 334.389648,187.219528 
	C331.806580,189.419891 329.223511,191.620270 326.313660,193.908035 
z"/>
<path fill="#B3442A" opacity="1.000000" stroke="none" 
	d="
M202.869431,69.752281 
	C205.047012,66.598724 207.224594,63.445171 209.875565,60.456249 
	C213.487076,61.219261 216.638290,61.756687 219.760925,62.427246 
	C229.859833,64.595886 239.948257,66.813446 250.040710,69.012161 
	C248.812256,71.822052 247.583786,74.631943 245.747742,77.712662 
	C234.170654,75.979965 223.194382,74.012390 212.235886,71.950279 
	C209.087357,71.357803 205.990158,70.492493 202.869431,69.752281 
z"/>
<path fill="#B74D2D" opacity="1.000000" stroke="none" 
	d="
M202.582291,69.942902 
	C205.990158,70.492493 209.087357,71.357803 212.235886,71.950279 
	C223.194382,74.012390 234.170654,75.979965 245.529358,77.989975 
	C245.024734,80.456818 244.130936,82.917152 243.053009,85.685074 
	C237.541733,84.981445 232.249527,83.690620 226.879852,83.019936 
	C217.091446,81.797348 207.257126,80.942436 196.944733,79.897781 
	C198.396729,76.618797 200.345947,73.376160 202.582291,69.942902 
z"/>
<path fill="#6996CA" opacity="1.000000" stroke="none" 
	d="
M131.611969,213.120605 
	C131.736938,227.239441 134.873779,240.465668 142.077744,253.069916 
	C139.117035,254.694748 135.991714,255.961731 132.456589,256.887787 
	C131.592392,255.149185 131.334778,253.646317 130.652771,252.370285 
	C124.698303,241.229431 123.078506,229.043686 121.918472,216.738297 
	C125.025826,215.518021 128.133179,214.297745 131.611969,213.120605 
z"/>
<path fill="#294993" opacity="1.000000" stroke="none" 
	d="
M333.588928,126.157227 
	C339.190308,134.944382 344.587585,143.902451 349.819794,152.955917 
	C351.376160,155.649017 352.468994,158.610016 353.912354,161.779968 
	C352.022827,165.601120 349.995209,169.090561 347.542908,172.391556 
	C342.170410,159.244659 336.977783,146.405472 328.968658,134.938019 
	C330.419647,132.080231 331.870636,129.222443 333.588928,126.157227 
z"/>
<path fill="#395CA1" opacity="1.000000" stroke="none" 
	d="
M88.031784,283.081940 
	C86.069244,285.028503 84.106705,286.975067 81.495193,288.919434 
	C79.828682,287.463470 78.524864,286.132416 77.840157,284.535858 
	C73.440964,274.278076 69.177422,263.962128 64.869316,253.665283 
	C67.652275,251.085312 70.435234,248.505325 73.689522,246.165161 
	C76.392700,253.162735 78.423874,259.995636 80.918304,266.655029 
	C83.008728,272.235809 85.639984,277.614044 88.031784,283.081940 
z"/>
<path fill="#618DC4" opacity="1.000000" stroke="none" 
	d="
M121.557465,216.811066 
	C123.078506,229.043686 124.698303,241.229431 130.652771,252.370285 
	C131.334778,253.646317 131.592392,255.149185 132.085144,256.956512 
	C129.648758,258.542816 127.174004,259.719482 124.308365,260.558197 
	C117.317345,247.939850 114.243996,234.677460 112.972519,220.913330 
	C115.713829,219.570160 118.455139,218.226990 121.557465,216.811066 
z"/>
<path fill="#AE3827" opacity="1.000000" stroke="none" 
	d="
M250.298157,68.799561 
	C239.948257,66.813446 229.859833,64.595886 219.760925,62.427246 
	C216.638290,61.756687 213.487076,61.219261 210.157166,60.273529 
	C211.848785,57.412872 213.732208,54.899574 215.906494,52.211777 
	C227.115097,54.353905 238.045502,56.613842 248.937210,59.046959 
	C250.613419,59.421413 252.111679,60.592541 253.854797,61.716488 
	C252.863449,64.220818 251.709518,66.403885 250.298157,68.799561 
z"/>
<path fill="#B74D2D" opacity="1.000000" stroke="none" 
	d="
M158.761841,348.283142 
	C174.150391,352.859406 189.755981,354.881653 206.148590,355.125763 
	C204.941101,357.660858 203.223404,360.149689 201.211060,362.810791 
	C187.479889,363.232452 174.376419,360.976929 161.438309,357.609711 
	C159.924881,357.215820 158.588776,356.140564 157.001587,355.031433 
	C157.404495,352.643768 157.976288,350.605865 158.761841,348.283142 
z"/>
<path fill="#4D75B4" opacity="1.000000" stroke="none" 
	d="
M301.727173,162.444305 
	C308.387665,174.316864 312.502014,187.060867 314.996185,200.780518 
	C312.283722,202.811951 309.518219,204.435532 306.385651,205.694565 
	C305.458527,202.082977 305.307373,198.697327 304.262268,195.614731 
	C301.029755,186.080032 297.456726,176.660767 294.015869,167.196686 
	C296.484039,165.649719 298.952240,164.102737 301.727173,162.444305 
z"/>
<path fill="#395CA1" opacity="1.000000" stroke="none" 
	d="
M334.683563,187.094437 
	C333.767853,186.472626 332.902222,185.822632 332.560974,184.964172 
	C327.869049,173.161041 323.249359,161.329178 318.356873,149.276810 
	C319.691010,147.077362 321.280212,145.105499 323.492096,143.098999 
	C325.071289,144.367783 326.314697,145.547470 326.938721,146.994308 
	C331.755432,158.162033 336.452209,169.381485 341.186157,180.584900 
	C339.116608,182.713058 337.047028,184.841202 334.683563,187.094437 
z"/>
<path fill="#AE3827" opacity="1.000000" stroke="none" 
	d="
M152.516693,364.663269 
	C155.063934,365.603455 157.211868,367.369232 159.617188,367.851624 
	C169.273972,369.788116 179.013000,371.312805 188.712280,373.042145 
	C189.441422,373.172150 190.097137,373.713837 190.887207,374.431885 
	C188.588272,377.551331 186.189117,380.303040 183.480515,383.206482 
	C180.752151,382.582245 178.364914,381.682800 175.908691,381.052216 
	C166.730072,378.695740 157.528839,376.427338 147.967209,373.972351 
	C149.144119,370.845520 150.689911,367.872253 152.516693,364.663269 
z"/>
<path fill="#2F529A" opacity="1.000000" stroke="none" 
	d="
M64.566658,253.822540 
	C69.177422,263.962128 73.440964,274.278076 77.840157,284.535858 
	C78.524864,286.132416 79.828682,287.463470 81.211594,289.048645 
	C79.791649,291.312225 78.006325,293.444458 75.941544,295.790039 
	C72.128220,290.584229 68.128456,285.404083 65.191612,279.678680 
	C62.258778,273.961090 60.390114,267.697571 58.016659,261.298645 
	C60.073597,258.609192 62.168800,256.294495 64.566658,253.822540 
z"/>
<path fill="#6996CA" opacity="1.000000" stroke="none" 
	d="
M276.374725,218.984024 
	C275.666962,204.706329 272.705811,191.117508 265.048584,178.446503 
	C267.698578,177.275818 270.384735,176.452377 273.497559,175.971375 
	C274.035553,176.962402 274.070862,177.635345 274.269653,178.255920 
	C277.210388,187.435715 280.167023,196.610443 283.133240,205.782043 
	C284.144409,208.908463 285.192596,212.022903 286.223846,215.142822 
	C283.065063,216.415192 279.906311,217.687576 276.374725,218.984024 
z"/>
<path fill="#5A85BE" opacity="1.000000" stroke="none" 
	d="
M112.619987,220.962265 
	C114.243996,234.677460 117.317345,247.939850 123.955200,260.577087 
	C121.984116,261.978699 119.975296,263.023468 117.313080,263.913727 
	C109.663544,251.767563 106.495384,238.624374 104.993690,224.979858 
	C107.418282,223.656967 109.842865,222.334076 112.619987,220.962265 
z"/>
<path fill="#3D61A5" opacity="1.000000" stroke="none" 
	d="
M88.352539,282.976196 
	C85.639984,277.614044 83.008728,272.235809 80.918304,266.655029 
	C78.423874,259.995636 76.392700,253.162735 74.005600,246.028259 
	C75.641525,244.139755 77.432701,242.627975 79.907188,241.099213 
	C82.051224,244.984665 83.344589,248.960068 85.007256,252.774475 
	C88.542320,260.884460 92.269394,268.910767 95.917755,276.971375 
	C93.502930,278.937744 91.088112,280.904114 88.352539,282.976196 
z"/>
<path fill="#446BAD" opacity="1.000000" stroke="none" 
	d="
M96.252304,276.923584 
	C92.269394,268.910767 88.542320,260.884460 85.007256,252.774475 
	C83.344589,248.960068 82.051224,244.984665 80.219391,241.008362 
	C82.628616,238.902359 85.408943,236.870255 88.663513,235.088257 
	C93.419495,247.835602 97.701248,260.332825 101.983002,272.830048 
	C100.184288,274.178619 98.385574,275.527191 96.252304,276.923584 
z"/>
<path fill="#2F529A" opacity="1.000000" stroke="none" 
	d="
M341.482880,180.401672 
	C336.452209,169.381485 331.755432,158.162033 326.938721,146.994308 
	C326.314697,145.547470 325.071289,144.367783 323.748840,142.929626 
	C325.062805,140.307587 326.742645,137.820267 328.695587,135.135468 
	C336.977783,146.405472 342.170410,159.244659 347.263947,172.622406 
	C345.533020,175.433960 343.656311,177.826187 341.482880,180.401672 
z"/>
<path fill="#4D75B4" opacity="1.000000" stroke="none" 
	d="
M102.310982,272.759949 
	C97.701248,260.332825 93.419495,247.835602 88.985474,234.947586 
	C91.294220,232.958847 93.755226,231.360886 96.604813,230.061188 
	C99.283325,238.896576 101.402756,247.484650 103.933762,255.949692 
	C105.237381,260.309723 107.273712,264.450684 108.978966,268.690643 
	C106.865631,270.023712 104.752289,271.356812 102.310982,272.759949 
z"/>
<path fill="#537CB9" opacity="1.000000" stroke="none" 
	d="
M109.298447,268.600830 
	C107.273712,264.450684 105.237381,260.309723 103.933762,255.949692 
	C101.402756,247.484650 99.283325,238.896576 96.931412,229.917633 
	C99.348450,228.007385 101.827461,226.538956 104.650078,225.025208 
	C106.495384,238.624374 109.663544,251.767563 116.973267,263.947144 
	C114.730530,265.593719 112.174225,267.052368 109.298447,268.600830 
z"/>
<path fill="#89B8E0" opacity="1.000000" stroke="none" 
	d="
M164.379822,246.131744 
	C163.924866,245.291641 164.106277,244.278946 163.689606,243.687744 
	C155.968903,232.733047 155.423874,220.271439 155.964081,207.053406 
	C158.673615,205.727478 161.394852,204.914917 164.476898,204.044952 
	C165.549438,215.029907 166.261154,226.072266 167.043915,237.558136 
	C167.068039,240.373398 167.021118,242.745163 166.928360,245.559280 
	C166.167603,246.052872 165.452682,246.104111 164.379822,246.131744 
z"/>
<path fill="#89B8E0" opacity="1.000000" stroke="none" 
	d="
M233.917480,194.464279 
	C233.928436,193.549332 233.998978,193.099655 234.146042,192.316528 
	C241.914291,196.471390 243.027328,204.295609 243.895325,211.969894 
	C244.470108,217.051804 244.017258,222.249939 244.034012,227.905304 
	C240.935104,229.259949 237.826645,230.105362 234.322372,230.961639 
	C233.744003,229.559402 233.561447,228.146301 233.470551,225.983582 
	C233.654617,221.485855 233.746994,217.737793 233.839371,213.989716 
	C233.885284,207.636337 233.931183,201.282944 233.917480,194.464279 
z"/>
<path fill="#5A85BE" opacity="1.000000" stroke="none" 
	d="
M279.565857,173.759705 
	C282.148560,172.590500 284.731262,171.421310 287.668060,170.575974 
	C291.223236,180.712494 294.444580,190.518631 297.612885,200.341858 
	C298.546600,203.236755 299.330170,206.180069 300.182556,209.101196 
	C298.128357,210.104477 296.074158,211.107758 293.305298,211.955124 
	C291.728882,208.396957 290.763977,205.016953 290.024994,201.588272 
	C287.912933,191.788757 285.677460,182.050171 279.565857,173.759705 
z"/>
<path fill="#537CB9" opacity="1.000000" stroke="none" 
	d="
M300.481567,208.942291 
	C299.330170,206.180069 298.546600,203.236755 297.612885,200.341858 
	C294.444580,190.518631 291.223236,180.712494 288.017548,170.532715 
	C289.793945,169.211166 291.574982,168.256729 293.685944,167.249496 
	C297.456726,176.660767 301.029755,186.080032 304.262268,195.614731 
	C305.307373,198.697327 305.458527,202.082977 306.033203,205.764587 
	C304.292084,207.060562 302.536346,207.921982 300.481567,208.942291 
z"/>
<path fill="#618DC4" opacity="1.000000" stroke="none" 
	d="
M279.228027,173.780731 
	C285.677460,182.050171 287.912933,191.788757 290.024994,201.588272 
	C290.763977,205.016953 291.728882,208.396957 292.958557,211.994598 
	C291.192261,213.145142 289.058075,214.100281 286.573853,215.099121 
	C285.192596,212.022903 284.144409,208.908463 283.133240,205.782043 
	C280.167023,196.610443 277.210388,187.435715 274.269653,178.255920 
	C274.070862,177.635345 274.035553,176.962402 273.879211,175.888947 
	C275.519531,174.909958 277.204865,174.355850 279.228027,173.780731 
z"/>
<path fill="#AB3127" opacity="1.000000" stroke="none" 
	d="
M70.591965,402.478210 
	C70.558128,402.461304 70.625801,402.495117 70.591965,402.478210 
z"/>
<path fill="#EEC05A" opacity="1.000000" stroke="none" 
	d="
M233.492096,213.911987 
	C233.746994,217.737793 233.654617,221.485855 233.426865,225.612122 
	C232.018082,227.344955 230.275269,228.485962 229.546066,230.088272 
	C224.061432,242.139816 214.017242,247.489395 201.590546,248.818314 
	C187.439758,250.331619 170.970123,235.646469 170.005508,221.174362 
	C169.014359,206.304276 176.569626,193.852890 189.094406,188.789856 
	C207.801743,181.227554 225.524185,191.736435 231.135330,208.956406 
	C231.678589,210.623611 232.469070,212.210236 233.492096,213.911987 
M190.465836,195.785934 
	C178.307236,202.022980 173.435516,216.264740 179.303955,228.416000 
	C184.782425,239.759766 199.404083,245.000610 210.634399,239.697357 
	C224.548050,233.126923 228.335785,219.410660 222.989426,207.218628 
	C218.499298,196.979233 204.255966,188.783554 190.465836,195.785934 
z"/>
<path fill="#F2C65B" opacity="1.000000" stroke="none" 
	d="
M190.805206,195.605255 
	C204.255966,188.783554 218.499298,196.979233 222.989426,207.218628 
	C228.335785,219.410660 224.548050,233.126923 210.634399,239.697357 
	C199.404083,245.000610 184.782425,239.759766 179.303955,228.416000 
	C173.435516,216.264740 178.307236,202.022980 190.805206,195.605255 
M198.901031,202.030060 
	C190.554428,204.418610 186.332428,208.705338 186.002090,215.126801 
	C185.546570,223.981857 188.426712,229.168564 195.353928,231.968109 
	C201.078659,234.281693 207.763840,232.795013 212.287659,228.202332 
	C216.056732,224.375839 217.416260,216.670029 215.180649,211.419052 
	C212.286392,204.620972 206.945480,201.772186 198.901031,202.030060 
z"/>
<path fill="#F6CD5F" opacity="1.000000" stroke="none" 
	d="
M199.322556,202.017563 
	C206.945480,201.772186 212.286392,204.620972 215.180649,211.419052 
	C217.416260,216.670029 216.056732,224.375839 212.287659,228.202332 
	C207.763840,232.795013 201.078659,234.281693 195.353928,231.968109 
	C188.426712,229.168564 185.546570,223.981857 186.002090,215.126801 
	C186.332428,208.705338 190.554428,204.418610 199.322556,202.017563 
z"/>
</svg>