<svg version="1.1" id="Layer_1" xmlns="http://www.w3.org/2000/svg" xmlns:xlink="http://www.w3.org/1999/xlink" x="0px" y="0px"
	 width="100%" viewBox="0 0 1579 1562" enable-background="new 0 0 1579 1562" xml:space="preserve">
<path fill="#00506F" opacity="1.000000" stroke="none" 
	d="
M1580.000000,801.000000 
	C1580.000000,1054.968140 1580.000000,1308.936401 1580.000000,1562.952271 
	C1053.764526,1562.952271 527.528992,1562.952271 1.000000,1562.952271 
	C1.000000,1261.635864 1.000000,960.271545 1.361291,658.360840 
	C4.550450,656.923096 7.445135,656.200317 10.194777,655.111389 
	C23.300268,649.920959 36.422714,644.764771 49.411068,639.292542 
	C53.162655,637.711975 56.488552,635.121033 60.360413,632.921509 
	C75.020645,624.086182 89.829880,616.034302 103.533768,606.408813 
	C130.721802,587.312012 154.982788,564.705322 177.756744,540.579956 
	C187.442688,530.319214 196.358185,519.311829 205.320450,508.394684 
	C210.575058,501.993896 215.206955,495.083832 220.163162,488.435791 
	C234.373962,469.374298 248.861588,450.513153 262.773132,431.235992 
	C284.478729,401.158630 305.636627,370.685852 327.364075,340.624512 
	C336.023254,328.643951 345.425201,317.185699 354.778503,305.725983 
	C362.448883,296.328217 370.419434,287.165710 378.494812,278.111053 
	C386.017914,269.675690 393.612366,261.276794 401.616028,253.304184 
	C411.275604,243.682068 421.240082,234.349442 431.364624,225.215195 
	C442.721741,214.968918 453.845856,204.334305 466.075195,195.214813 
	C485.371918,180.825119 505.417938,167.428726 525.335815,153.890030 
	C531.918945,149.415329 538.903687,145.436630 546.021729,141.862411 
	C563.849060,132.910660 581.528992,123.541191 599.882202,115.794189 
	C619.987610,107.307602 640.638184,100.027191 661.330872,93.050621 
	C673.217896,89.042900 685.632874,86.569244 697.861816,83.619316 
	C705.103516,81.872421 712.390381,80.148979 719.755127,79.111748 
	C733.071655,77.236275 746.429504,75.463165 759.830444,74.432747 
	C772.417908,73.464882 785.177246,72.358765 797.692932,73.377670 
	C817.325317,74.975967 836.915771,77.739716 856.330872,81.119118 
	C868.280823,83.199112 879.934937,87.131195 891.602173,90.630661 
	C899.831482,93.098915 907.859802,96.237114 916.077271,99.327835 
	C926.299438,105.242203 936.305237,111.127777 946.572388,116.515198 
	C961.753052,124.480843 974.961975,135.148712 987.134155,146.920166 
	C997.867554,157.300293 1008.230286,168.294891 1017.217163,180.181992 
	C1025.485596,191.118866 1032.596680,203.175201 1038.561035,215.537613 
	C1044.016479,226.845490 1047.936646,239.034973 1051.286743,251.179794 
	C1054.930176,264.387268 1058.801147,277.900299 1059.540161,291.445618 
	C1060.428467,307.727051 1062.089111,324.322998 1058.100708,340.602539 
	C1055.272949,352.144531 1053.111206,363.873901 1049.743652,375.250732 
	C1047.588013,382.533691 1043.778320,389.327118 1040.440674,396.955566 
	C1035.968994,385.437469 1032.033691,375.051544 1027.870605,364.757721 
	C1026.858765,362.255798 1026.390747,358.369873 1021.581421,359.895813 
	C1020.611267,358.842163 1019.926697,357.977142 1019.206421,356.956116 
	C1018.952820,356.562073 1018.751709,356.310944 1018.735840,355.724396 
	C1018.672302,353.778137 1018.739929,352.038483 1018.164062,350.547363 
	C1007.873352,323.902954 990.155457,302.474884 968.869080,284.269470 
	C941.570496,260.922028 909.682739,247.115921 873.782349,242.583466 
	C853.159607,239.979828 832.884338,241.620514 812.747498,245.696426 
	C789.730286,250.355377 769.140015,261.027191 749.518799,273.439178 
	C705.135498,301.515198 671.553101,338.487183 654.745178,389.306976 
	C645.068970,418.563690 641.095947,448.402618 641.791809,479.187592 
	C642.641479,516.772766 652.131104,551.859741 669.915833,584.756897 
	C684.596924,611.913147 703.858582,635.700562 725.381470,657.688232 
	C744.041077,676.750916 765.804565,691.733154 788.547058,705.456665 
	C828.122986,729.337891 870.430786,747.041809 914.343445,760.990662 
	C934.465942,767.382507 954.850647,773.013489 975.289307,778.324280 
	C990.883362,782.376343 1006.669434,785.815247 1022.515381,788.739319 
	C1041.317261,792.208923 1060.260254,794.930664 1079.172363,797.776428 
	C1086.363525,798.858459 1093.638428,799.384460 1101.334717,800.189331 
	C1106.113525,800.451355 1110.432495,800.887207 1114.752075,800.894409 
	C1166.557007,800.980286 1218.361938,801.031921 1270.166870,801.035400 
	C1373.444580,801.042419 1476.722290,801.013855 1580.000000,801.000000 
M335.884216,725.615601 
	C334.425629,724.280884 333.025391,721.873596 331.498688,721.790527 
	C323.309265,721.344788 319.369720,714.067688 312.952850,710.880066 
	C305.957703,707.405212 299.716461,701.672791 291.101868,703.113403 
	C289.133667,703.442505 286.607849,704.848572 285.747925,706.495056 
	C283.827515,710.171814 286.395325,718.106689 290.242157,718.716370 
	C294.866730,719.449280 296.349304,723.808411 300.190643,724.953674 
	C301.413300,725.318298 303.192169,725.692383 303.604584,726.579163 
	C305.532959,730.725647 309.593262,731.905457 313.002869,734.044617 
	C317.486176,736.857544 321.854767,739.852478 326.301697,742.724243 
	C331.404724,746.019775 336.624329,749.142090 341.637878,752.567139 
	C347.229706,756.387268 352.616058,760.506775 358.151703,764.411255 
	C361.421082,766.717285 364.684601,769.076782 368.167511,771.024658 
	C373.526825,774.021851 379.148499,776.387146 383.435760,781.196289 
	C386.303009,784.412537 389.921082,788.395142 393.718750,789.051575 
	C401.993683,790.481812 406.563354,796.925293 412.971771,800.755859 
	C416.424988,802.820129 419.575470,805.437134 422.680115,808.023621 
	C425.182556,810.108582 427.437775,812.495422 429.754852,814.796448 
	C433.008850,818.028198 435.937592,821.659485 439.507965,824.484863 
	C446.192780,829.774658 453.245056,834.599548 460.113831,839.659363 
	C460.441498,839.900818 460.510406,840.532898 460.638641,840.999817 
	C463.084045,849.904480 470.723816,854.351196 477.180206,859.585693 
	C481.528320,863.110840 486.331329,865.126770 485.510742,872.458801 
	C484.571381,880.852600 485.334442,889.432922 485.260773,897.931335 
	C485.246857,899.537292 484.660248,901.130493 484.540894,902.744629 
	C484.108002,908.598816 483.603210,914.457520 483.532745,920.319397 
	C483.520538,921.335999 485.308319,922.744995 486.564423,923.340332 
	C491.317322,925.592896 496.041595,928.267700 501.086853,929.390991 
	C503.670258,929.966125 508.290924,928.460510 509.597015,926.387207 
	C513.620972,919.999451 516.491821,912.885193 520.172363,905.308899 
	C520.480896,905.308899 522.073853,905.308899 523.033325,905.308899 
	C526.107422,910.288269 528.939453,914.944397 531.842163,919.556091 
	C534.236145,923.359497 536.717468,927.107849 539.153320,930.884949 
	C541.669556,934.786499 543.965454,938.851685 546.735291,942.563477 
	C551.775146,949.317200 556.925964,956.003479 562.335938,962.462097 
	C570.711121,972.460449 579.223083,982.351257 587.930420,992.060425 
	C590.992737,995.475098 591.484741,998.387573 587.901733,1001.310486 
	C581.375366,1006.634338 574.539551,1011.586182 568.120789,1017.032715 
	C560.995239,1023.078979 554.003052,1029.310059 547.291443,1035.810303 
	C536.791138,1045.979736 526.603027,1056.470825 516.204895,1066.747070 
	C514.866150,1068.070068 512.989685,1068.830200 511.491089,1070.014038 
	C508.245178,1072.578125 505.019470,1075.175659 501.906708,1077.897949 
	C499.550354,1079.958984 497.468964,1082.334595 495.109558,1084.391724 
	C491.245392,1087.760864 487.189392,1090.910767 483.341766,1094.297729 
	C481.001801,1096.357666 478.897736,1098.685913 476.694122,1100.900024 
	C475.463654,1102.136353 474.261627,1103.401489 473.019623,1104.626099 
	C470.796051,1106.818481 468.691833,1109.162231 466.278473,1111.123779 
	C463.667236,1113.246216 460.269135,1114.571167 458.101471,1117.026978 
	C455.198883,1120.315308 452.213409,1125.131958 455.104492,1128.955200 
	C459.766479,1135.120361 465.198700,1141.239990 471.582306,1145.436890 
	C480.577087,1151.350220 489.227966,1157.612061 496.770569,1165.137695 
	C501.877472,1170.233154 508.076111,1165.920044 513.241150,1168.541504 
	C513.641785,1168.744873 515.007324,1166.755493 516.073059,1165.993408 
	C519.602112,1163.469482 523.100525,1160.878662 526.800354,1158.624878 
	C530.033020,1156.655518 534.475342,1155.899414 536.707397,1153.214233 
	C542.043213,1146.795410 550.226257,1145.234985 556.298828,1140.280396 
	C558.504883,1138.480469 560.832703,1136.829712 563.104919,1135.110840 
	C564.190613,1133.852661 566.194397,1133.815308 567.548950,1132.858765 
	C573.220642,1128.853638 578.687622,1124.559570 584.259766,1120.411743 
	C584.890869,1119.941895 585.698120,1119.690918 586.447754,1119.400757 
	C593.213989,1116.781494 600.185913,1114.524414 604.756653,1108.261230 
	C605.186157,1107.672852 606.102783,1107.422974 606.816345,1107.061646 
	C611.669250,1104.603882 617.621521,1103.207153 621.172546,1099.505005 
	C630.423157,1089.860474 643.660950,1086.922241 653.653381,1078.530762 
	C660.310486,1072.940186 668.592712,1069.284790 676.630371,1064.474365 
	C678.725464,1066.045044 681.436035,1068.175903 684.248352,1070.162964 
	C688.703735,1073.310791 693.503357,1076.033447 697.662964,1079.524902 
	C705.758423,1086.320190 712.520142,1094.167480 723.519714,1097.746460 
	C731.016235,1100.185669 736.963501,1107.559326 743.417358,1112.949463 
	C746.202576,1115.275757 748.361206,1118.330200 752.729370,1117.425659 
	C753.562866,1117.253052 754.806580,1118.197998 755.615417,1118.907349 
	C762.148499,1124.636963 768.622559,1130.433716 775.115112,1136.209473 
	C775.726501,1136.753418 776.404358,1137.820923 776.943115,1137.755371 
	C782.267090,1137.108521 784.080566,1141.860718 787.377625,1144.314697 
	C789.435242,1145.846069 791.614014,1147.213257 793.709106,1148.695679 
	C798.577026,1152.140015 803.498596,1155.514648 808.261902,1159.098999 
	C812.023926,1161.930054 815.534302,1165.094360 819.269409,1167.963623 
	C820.088501,1168.592896 821.389404,1168.861084 822.463501,1168.849243 
	C829.694885,1168.769653 834.925415,1172.990356 840.394897,1176.848633 
	C842.818481,1178.558228 845.581421,1179.782227 848.166138,1181.268921 
	C850.523499,1182.624878 852.963562,1183.876953 855.164612,1185.457031 
	C860.624695,1189.376465 865.968384,1193.458130 871.363770,1197.468018 
	C871.490173,1197.562012 871.674194,1197.620239 871.832703,1197.623291 
	C878.836548,1197.757935 882.760193,1202.796875 887.175537,1207.131348 
	C888.408325,1208.341675 890.004211,1209.227905 891.535706,1210.078735 
	C894.848511,1211.918579 898.409119,1213.370239 901.532104,1215.478760 
	C905.222534,1217.970337 908.430847,1221.173340 912.105957,1223.691650 
	C913.740417,1224.811523 916.596619,1224.424927 917.885498,1225.725708 
	C924.306152,1232.205811 934.429016,1232.441040 940.360596,1240.651245 
	C943.666199,1245.226685 951.444641,1246.721558 957.371338,1249.214600 
	C964.722046,1252.306641 971.620239,1255.899902 977.110901,1261.903198 
	C978.137451,1263.025635 980.235596,1263.168213 981.839417,1263.762207 
	C985.687500,1265.187622 990.491699,1265.613892 993.211792,1268.217529 
	C1002.976501,1277.564209 1013.925781,1284.154663 1027.329712,1286.454468 
	C1027.938110,1286.558838 1028.561768,1286.930298 1029.047974,1287.334106 
	C1033.315552,1290.878296 1037.420776,1294.635010 1041.850098,1297.961060 
	C1044.493896,1299.946167 1047.940186,1303.029297 1050.494263,1302.582275 
	C1060.286621,1300.868164 1066.855835,1307.743652 1074.731079,1310.748169 
	C1079.332764,1312.503662 1082.860962,1317.080566 1086.862793,1320.399170 
	C1091.386597,1324.151001 1096.441284,1326.390259 1102.236816,1327.922119 
	C1107.262939,1329.250610 1112.865723,1329.085083 1117.220703,1333.814697 
	C1120.679443,1337.571045 1125.373047,1341.084717 1131.760254,1340.214600 
	C1133.824585,1339.933350 1136.738770,1341.638062 1138.378662,1343.305176 
	C1142.985474,1347.988770 1147.973999,1351.074097 1154.840210,1350.351074 
	C1156.171997,1350.210938 1158.139038,1350.534302 1158.898560,1351.424316 
	C1164.066650,1357.479980 1172.431030,1357.902466 1178.269897,1362.778442 
	C1185.757935,1369.031738 1196.850342,1366.298340 1204.333252,1372.905762 
	C1205.580811,1374.007324 1207.516235,1374.309570 1209.097778,1375.057007 
	C1213.258301,1377.022949 1217.536743,1378.791504 1221.513428,1381.081177 
	C1226.819702,1384.136475 1231.668823,1387.969849 1238.391479,1387.503418 
	C1240.286743,1387.371948 1243.005249,1388.037476 1244.088135,1389.364258 
	C1247.206055,1393.184082 1250.996338,1394.250854 1255.514893,1393.584229 
	C1259.557373,1392.987915 1262.462769,1394.528687 1264.987671,1397.594482 
	C1267.197998,1400.277954 1269.643433,1402.133301 1273.778931,1402.081177 
	C1277.419067,1402.035400 1281.206299,1403.695190 1284.702026,1405.147095 
	C1287.771118,1406.421875 1290.458862,1408.582886 1293.434326,1410.121582 
	C1298.938354,1412.968262 1305.479126,1413.888550 1309.579590,1419.381592 
	C1310.287598,1420.330078 1312.583374,1420.227051 1314.166748,1420.361816 
	C1317.935669,1420.682495 1322.253662,1419.755127 1325.396606,1421.287109 
	C1336.277466,1426.590942 1346.744141,1432.742432 1357.396118,1438.520630 
	C1358.076904,1438.889893 1358.991333,1438.940063 1359.798584,1438.946289 
	C1364.631104,1438.983765 1369.465942,1439.034424 1374.295410,1438.907349 
	C1375.282104,1438.881470 1376.812134,1438.331055 1377.075073,1437.637207 
	C1377.366333,1436.868652 1376.678101,1435.530640 1376.088257,1434.663696 
	C1374.276978,1432.000610 1372.441772,1429.333008 1370.377563,1426.866577 
	C1362.743896,1417.745361 1355.081543,1408.646484 1347.299805,1399.651611 
	C1341.020386,1392.393066 1334.519409,1385.326660 1328.184204,1378.115601 
	C1324.908447,1374.387207 1322.012329,1370.300659 1318.541870,1366.771973 
	C1306.191162,1354.214233 1293.614258,1341.878784 1281.280884,1329.304321 
	C1279.836304,1327.831543 1278.747681,1325.450317 1278.570312,1323.397095 
	C1277.996460,1316.753052 1275.360107,1313.587402 1269.242065,1312.294922 
	C1267.428345,1310.204346 1265.201782,1308.635986 1263.220337,1306.802856 
	C1261.322021,1305.046753 1259.685425,1303.008789 1257.920898,1301.106689 
	C1255.294312,1298.275269 1252.686646,1295.424927 1249.999756,1292.651611 
	C1249.385498,1292.017578 1248.363403,1291.785278 1247.726807,1291.165161 
	C1239.213989,1282.874023 1230.777588,1274.504272 1222.223267,1266.256592 
	C1219.882935,1264.000244 1216.565430,1262.521484 1214.818604,1259.929443 
	C1209.391724,1251.876709 1201.747070,1246.552246 1194.131470,1240.912842 
	C1188.760498,1236.935547 1184.405762,1231.581909 1179.619629,1226.820435 
	C1177.487915,1224.699951 1175.681519,1222.119263 1173.234131,1220.487061 
	C1170.786133,1218.854492 1167.168823,1218.782593 1165.024902,1216.920532 
	C1155.965698,1209.052856 1147.264526,1200.772949 1138.432861,1192.643311 
	C1129.602905,1184.515015 1121.539429,1175.210571 1111.623169,1168.749878 
	C1106.605591,1165.480713 1103.197754,1161.453857 1099.225098,1157.574219 
	C1098.878052,1157.235229 1098.479370,1156.936646 1098.067383,1156.678711 
	C1092.909912,1153.448486 1087.329102,1150.734131 1082.674805,1146.895752 
	C1074.455688,1140.117310 1066.885986,1132.557129 1058.849487,1125.547607 
	C1056.783081,1123.745239 1053.957153,1122.831543 1051.538208,1121.410645 
	C1049.038574,1119.942505 1046.225708,1118.734741 1044.236694,1116.731323 
	C1040.998901,1113.469727 1038.350952,1109.627319 1035.372559,1106.098755 
	C1034.894775,1105.532715 1034.017334,1105.270752 1033.286011,1104.958008 
	C1030.390625,1103.720093 1027.065063,1103.055054 1024.658081,1101.195190 
	C1018.977905,1096.806396 1013.943970,1091.580078 1008.255798,1087.203003 
	C1001.697693,1082.156738 994.735168,1077.632935 987.904541,1072.945923 
	C986.596313,1072.048218 984.770630,1071.749023 983.720154,1070.657471 
	C978.372620,1065.100708 972.404846,1060.507446 965.644531,1056.701050 
	C954.921753,1050.663574 945.976929,1041.972412 934.976990,1036.158936 
	C928.648132,1032.814087 923.374329,1027.484619 917.588867,1023.096924 
	C912.048584,1018.895325 906.967773,1013.595459 900.764526,1010.885559 
	C893.116211,1007.544434 888.346436,1001.494080 882.491699,996.368591 
	C880.140808,994.310547 877.013672,993.117798 874.189331,991.626831 
	C869.601257,989.204834 864.625854,987.347656 860.441101,984.370483 
	C854.284058,979.989990 850.983032,970.991577 841.066467,972.917908 
	C840.715942,972.985962 840.252808,972.432861 839.831909,972.187012 
	C830.515015,966.744202 820.402344,962.459290 813.241760,953.878601 
	C812.825684,953.380005 812.251709,952.621277 811.765564,952.632080 
	C804.953613,952.783508 803.126587,946.306274 798.458862,943.497864 
	C800.745422,939.872375 802.640015,936.711182 804.689392,933.653748 
	C808.269165,928.312744 811.702942,922.844543 815.684631,917.814941 
	C817.583557,915.416138 819.638245,913.575439 819.201660,910.114685 
	C819.085205,909.191345 820.462646,907.947388 821.363770,907.064514 
	C822.277588,906.169434 823.765686,905.757263 824.458557,904.757080 
	C828.755188,898.554382 832.915405,892.256653 837.084839,885.966492 
	C838.681946,883.557007 841.648438,880.960144 841.452881,878.664856 
	C840.891052,872.069336 845.783630,869.488831 849.142578,865.627991 
	C850.362061,864.226318 851.199097,862.440979 851.987976,860.728149 
	C853.028259,858.469604 853.852661,856.111511 854.763245,853.793579 
	C855.224548,852.619263 856.114868,851.415283 856.052979,850.265564 
	C855.620605,842.240662 848.878113,839.151489 843.645752,834.985840 
	C837.366943,829.987183 828.238098,830.091248 822.787964,823.336487 
	C821.244507,821.423523 818.657837,820.327454 816.492554,818.946289 
	C812.444214,816.364258 807.262695,816.772339 804.889648,819.663330 
	C798.753662,827.138245 789.662964,830.861694 783.499084,838.284546 
	C779.501709,843.098389 774.271912,846.930908 768.386108,849.981628 
	C764.078369,852.214355 761.074585,856.702332 756.741272,859.664185 
	C749.237915,864.792664 742.926758,871.662354 736.097961,877.782043 
	C729.506714,883.688904 722.927917,889.611023 716.245544,895.413391 
	C715.407471,896.141113 713.710754,896.802185 712.851807,896.442749 
	C703.000549,892.320862 693.172974,888.128845 683.471497,883.667725 
	C678.589661,881.422729 674.710938,876.650146 668.450562,878.094482 
	C668.051208,878.186646 667.470703,877.893433 667.092224,877.617859 
	C657.045532,870.300781 644.796753,869.322632 633.428101,865.788879 
	C630.770447,864.962769 628.562378,862.552002 625.897949,861.916626 
	C621.059326,860.762817 616.032410,860.402283 611.086670,859.692444 
	C609.805359,859.508545 608.445557,859.474670 607.272583,858.999573 
	C601.574707,856.692017 595.377930,856.920044 589.527405,853.903381 
	C584.147034,851.129089 576.837952,852.107117 570.383423,851.388428 
	C569.595459,851.300720 568.636963,851.163696 568.097595,850.674438 
	C563.757874,846.738220 559.168457,844.430054 553.192749,847.188721 
	C552.241089,847.628113 550.434692,847.154907 549.473755,846.470825 
	C545.551453,843.679077 541.122742,843.602051 536.601746,842.861145 
	C532.074646,842.119324 526.831787,840.074524 523.924072,836.803833 
	C521.303833,833.856445 521.065857,828.529053 520.412231,824.156372 
	C519.406433,817.427979 518.973083,810.614990 518.208252,803.847961 
	C518.125610,803.116638 517.491943,802.428589 517.054810,801.759094 
	C511.633453,793.456909 511.788300,783.729248 509.980835,774.489136 
	C509.191925,770.456055 507.957275,766.495422 506.688049,762.578735 
	C506.234650,761.179626 505.359467,759.614319 504.202026,758.797913 
	C498.821045,755.002319 493.376068,751.270569 487.722443,747.904846 
	C486.052521,746.910767 482.575592,746.208923 481.758759,747.083740 
	C479.936798,749.035095 478.226074,752.118042 478.354767,754.643921 
	C478.603699,759.531128 480.491699,764.310852 481.088654,769.209656 
	C482.073120,777.288086 482.570770,785.425842 483.278381,793.538147 
	C483.307098,793.867432 483.400940,794.190735 483.435791,794.519775 
	C484.050751,800.323425 484.759125,806.121216 485.132355,811.940491 
	C485.172974,812.573975 483.217499,813.994446 482.284607,813.914978 
	C478.620239,813.602600 474.953552,812.164917 471.363464,812.384277 
	C464.829254,812.783569 459.252655,811.793518 455.317017,806.019653 
	C454.783173,805.236450 453.796173,804.103882 453.130005,804.174866 
	C448.490875,804.669067 446.608551,800.970337 443.846252,798.524231 
	C442.547791,797.374390 440.940369,796.531799 439.381775,795.726501 
	C436.451050,794.212097 433.277466,793.094727 430.541992,791.298889 
	C428.443329,789.921021 427.049347,787.502319 425.011536,785.992493 
	C421.009827,783.027405 416.808411,780.326233 412.633850,777.601379 
	C406.998383,773.922791 401.292572,770.352051 395.650543,766.683350 
	C391.334045,763.876648 387.009064,761.075867 382.801178,758.111633 
	C379.366943,755.692322 376.203735,752.883423 372.735474,750.518433 
	C367.311859,746.819946 361.687714,743.416809 356.231995,739.763794 
	C351.561310,736.636475 347.014191,733.324829 342.399628,730.113159 
	C340.432434,728.744080 338.432800,727.421570 335.884216,725.615601 
z"/>
<path fill="#69C1C0" opacity="1.000000" stroke="none" 
	d="
M1.000008,651.000000 
	C1.000000,434.363953 1.000000,217.727875 1.000000,1.045911 
	C527.228394,1.045911 1053.456787,1.045911 1580.000000,1.045911 
	C1580.000000,218.697495 1580.000000,436.395142 1579.607178,654.580811 
	C1571.849243,657.000854 1564.530518,659.137756 1557.109253,660.822693 
	C1541.180786,664.439331 1525.218994,667.916687 1509.233398,671.272156 
	C1496.478271,673.949524 1483.712891,676.626709 1470.869507,678.820496 
	C1456.969604,681.194702 1442.966309,682.959167 1429.033569,685.151855 
	C1427.814453,685.343689 1426.785156,686.740906 1425.357300,687.706909 
	C1423.703003,687.897949 1422.359009,687.960388 1420.866699,687.825745 
	C1420.504272,687.374756 1420.255737,687.160889 1419.649292,686.981812 
	C1418.894775,686.978577 1418.463501,686.980469 1417.612061,686.981079 
	C1415.794434,686.986572 1414.397217,686.993286 1412.562988,687.000854 
	C1411.626099,687.007751 1411.123901,686.984253 1410.626709,687.023987 
	C1381.826294,689.327454 1353.047607,691.970154 1324.217896,693.815613 
	C1307.677002,694.874451 1291.054199,694.831604 1274.466431,694.918335 
	C1264.185181,694.972107 1253.899536,694.361816 1243.617188,694.009521 
	C1224.344116,693.349182 1205.065796,692.793884 1185.802002,691.923035 
	C1176.848511,691.518250 1167.888550,690.761414 1158.993652,689.661926 
	C1142.843018,687.665588 1126.699219,685.544495 1110.626221,683.008728 
	C1094.303833,680.433594 1077.964966,677.777527 1061.829712,674.257019 
	C1047.819092,671.200073 1034.056885,666.978638 1020.231140,663.106384 
	C994.119263,655.793152 968.738403,646.402405 944.273987,634.754211 
	C918.842834,622.645752 894.798645,608.182190 872.907471,590.291138 
	C858.949463,578.883545 845.783997,566.662537 834.932434,552.247070 
	C819.940430,532.331299 807.689087,510.927124 802.151062,486.280487 
	C800.259705,477.862701 797.770020,469.419739 797.258057,460.886047 
	C796.295166,444.835388 796.351074,428.692261 801.000366,412.603882 
	C801.643860,410.159332 802.343445,408.128235 802.891724,406.057068 
	C808.689209,384.157074 819.961731,365.299133 835.568420,349.139130 
	C843.741211,340.676605 853.278381,333.874207 863.639221,327.911102 
	C877.700989,319.817902 892.753113,315.283112 908.359497,312.178772 
	C922.638123,309.338470 936.929688,310.077820 951.403809,313.988159 
	C967.406128,317.602570 981.376465,324.547424 993.981140,334.389435 
	C998.251831,337.724060 1002.766663,340.746063 1007.142700,343.933960 
	C1007.115540,343.957001 1007.070923,343.901459 1007.079468,344.271027 
	C1011.037231,349.790436 1014.986389,354.940247 1018.967041,360.444092 
	C1020.006042,364.045929 1020.744019,367.411591 1022.098206,370.507751 
	C1023.395081,373.473083 1025.854614,375.980011 1026.886597,379.001434 
	C1029.647827,387.085663 1031.905151,395.341553 1034.386963,403.521851 
	C1035.864014,408.389923 1037.413208,408.959015 1041.329346,405.882294 
	C1042.873047,403.809937 1044.131470,401.892426 1045.336914,399.942261 
	C1048.339722,395.084473 1051.853638,390.449890 1054.154785,385.277496 
	C1056.411499,380.205536 1057.284058,374.533600 1059.051147,369.220490 
	C1059.779419,367.030945 1061.938965,365.195526 1062.273560,363.018585 
	C1063.554688,354.681824 1063.788086,346.152618 1065.505371,337.923340 
	C1067.156738,330.010559 1069.151611,322.431061 1067.234497,314.184418 
	C1066.320435,310.252167 1066.484253,305.646942 1067.609619,301.767151 
	C1069.101440,296.624084 1068.893555,292.250458 1066.221069,287.680084 
	C1065.368530,286.222046 1064.758911,283.825409 1065.370239,282.450592 
	C1067.609985,277.413696 1064.321289,273.011932 1064.050781,268.302460 
	C1063.785645,263.688416 1060.978760,259.245117 1059.445557,254.673889 
	C1056.552856,246.049606 1054.295532,237.170914 1050.822876,228.792206 
	C1045.805176,216.685577 1041.202271,204.108810 1034.122314,193.229431 
	C1024.981323,179.183014 1014.877625,165.649567 1002.602722,153.814240 
	C991.824219,143.421753 981.453430,132.671875 969.291687,123.834328 
	C948.762512,108.916534 926.501526,97.018578 903.145691,87.383194 
	C891.293579,82.493637 878.679626,79.290924 866.212708,76.095757 
	C853.365723,72.803177 840.364136,69.826996 827.250000,68.020554 
	C822.734131,67.398499 817.993042,68.982834 814.005249,65.436836 
	C813.745850,65.206146 812.805298,65.811249 812.163452,65.928009 
	C810.068665,66.309113 807.941895,67.045959 805.869690,66.924446 
	C798.463013,66.490181 791.075073,65.298172 783.677368,65.275810 
	C776.963013,65.255508 770.241821,66.353050 763.529663,67.017883 
	C755.267517,67.836227 746.967896,68.423439 738.764404,69.646820 
	C729.083130,71.090561 719.458496,72.965225 709.861206,74.909332 
	C694.899841,77.940063 679.747375,80.366974 665.108948,84.561058 
	C648.897583,89.205795 633.113037,95.386063 617.255371,101.205063 
	C604.071167,106.043045 591.043152,111.308311 577.970642,116.447044 
	C576.927734,116.857018 576.098999,117.789505 575.132874,118.421196 
	C571.955566,120.498497 568.914978,122.856285 565.541931,124.548378 
	C557.588989,128.537979 549.273010,131.838226 541.484436,136.111084 
	C534.320923,140.041061 527.712769,144.971161 520.754822,149.291275 
	C511.724487,154.898117 502.360535,159.998611 493.571594,165.953751 
	C486.303131,170.878647 479.596100,176.647751 472.754272,182.183640 
	C458.029785,194.097687 442.814392,205.412643 429.426727,218.937851 
	C422.670990,225.762970 415.272095,231.951843 408.158142,238.421936 
	C404.589417,241.667648 400.864990,244.757721 397.475189,248.179901 
	C394.590240,251.092438 392.227081,254.518356 389.375641,257.468323 
	C385.348816,261.634338 380.854034,265.362854 376.979095,269.657196 
	C371.818176,275.376740 367.083527,281.479523 362.124847,287.383331 
	C353.269379,297.926758 344.184265,308.284821 335.571808,319.022461 
	C328.435394,327.919861 321.872559,337.275787 314.998230,346.385254 
	C307.401672,356.451752 298.849487,365.798279 292.630768,376.902008 
	C290.516296,380.677399 287.729340,384.098175 285.064240,387.537323 
	C282.017883,391.468506 278.642883,395.146942 275.636902,399.106903 
	C272.761993,402.894165 269.990112,406.787415 267.514038,410.842377 
	C264.625092,415.573334 262.414520,420.736206 259.343719,425.333710 
	C255.960754,430.398651 251.799088,434.935852 248.220245,439.879272 
	C242.497894,447.783539 237.216568,456.016632 231.298553,463.766876 
	C226.031738,470.664337 219.782883,476.821838 214.640106,483.801544 
	C208.278748,492.435120 202.758865,501.684540 196.554123,510.440216 
	C194.707535,513.046082 191.508224,514.655640 189.411560,517.130676 
	C186.121979,521.013794 183.600906,525.583374 180.120056,529.262024 
	C170.815384,539.095764 161.543808,549.014221 151.576630,558.154846 
	C137.338684,571.212097 122.915359,584.141357 107.765518,596.105042 
	C96.864677,604.713379 84.973412,612.216797 72.932182,619.191406 
	C59.832367,626.779236 46.290157,633.723816 32.482563,639.929138 
	C22.371935,644.472900 11.520985,647.369324 1.000008,651.000000 
z"/>
<path fill="#0A8A9F" opacity="1.000000" stroke="none" 
	d="
M1421.015015,688.022766 
	C1422.359009,687.960388 1423.703003,687.897949 1425.642456,687.865051 
	C1430.592896,687.276794 1434.946167,686.647583 1439.302979,686.043335 
	C1453.730225,684.042480 1468.217285,682.394226 1482.569092,679.951172 
	C1494.973633,677.839539 1507.240723,674.900024 1519.540161,672.196777 
	C1533.838379,669.054199 1548.117676,665.822144 1562.380615,662.523071 
	C1568.286499,661.156982 1574.128784,659.515991 1580.000000,658.000000 
	C1580.000000,704.354248 1580.000000,750.708435 1579.531372,797.536377 
	C1492.626099,798.013245 1406.189575,798.019775 1319.752930,798.018799 
	C1249.156982,798.018005 1178.560913,797.987122 1107.965088,798.093201 
	C1105.600708,798.096802 1103.238403,799.443420 1100.875122,800.163940 
	C1093.638428,799.384460 1086.363525,798.858459 1079.172363,797.776428 
	C1060.260254,794.930664 1041.317261,792.208923 1022.515381,788.739319 
	C1006.669434,785.815247 990.883362,782.376343 975.289307,778.324280 
	C954.850647,773.013489 934.465942,767.382507 914.343445,760.990662 
	C870.430786,747.041809 828.122986,729.337891 788.547058,705.456665 
	C765.804565,691.733154 744.041077,676.750916 725.381470,657.688232 
	C703.858582,635.700562 684.596924,611.913147 669.915833,584.756897 
	C652.131104,551.859741 642.641479,516.772766 641.791809,479.187592 
	C641.095947,448.402618 645.068970,418.563690 654.745178,389.306976 
	C671.553101,338.487183 705.135498,301.515198 749.518799,273.439178 
	C769.140015,261.027191 789.730286,250.355377 812.747498,245.696426 
	C832.884338,241.620514 853.159607,239.979828 873.782349,242.583466 
	C909.682739,247.115921 941.570496,260.922028 968.869080,284.269470 
	C990.155457,302.474884 1007.873352,323.902954 1018.164062,350.547363 
	C1018.739929,352.038483 1018.672302,353.778137 1018.423584,355.530426 
	C1014.318848,351.739655 1010.694885,347.820557 1007.070923,343.901489 
	C1007.070923,343.901459 1007.115540,343.957001 1007.094910,343.585388 
	C1003.506226,339.559052 1000.229553,335.552277 996.316956,332.313873 
	C983.074524,321.353149 967.988647,314.123718 950.628174,310.976868 
	C937.191345,306.159576 923.628845,306.463226 910.345276,308.519470 
	C866.149719,315.360687 832.715942,338.348053 810.873779,377.491302 
	C806.998840,384.435516 804.868469,392.353241 801.677124,399.990631 
	C801.079468,401.097290 800.737122,402.034760 800.217651,403.330231 
	C799.400024,406.791595 798.759521,409.894989 797.929382,413.337463 
	C794.002869,428.257843 792.956177,442.956116 793.989319,458.048401 
	C796.083496,488.639771 806.586365,516.108154 823.378662,541.347778 
	C846.689575,576.385254 878.719666,601.804565 914.652283,622.706421 
	C955.235657,646.313599 998.873840,662.516296 1044.355469,673.297302 
	C1072.634399,680.000549 1101.415283,684.854492 1130.176147,689.171509 
	C1153.669067,692.697632 1177.417480,695.251831 1201.139771,696.339783 
	C1233.226074,697.811401 1265.394775,697.689575 1297.529907,697.805908 
	C1312.676514,697.860718 1327.852661,697.267395 1342.969604,696.271484 
	C1364.389404,694.860291 1385.776611,692.909729 1407.154663,690.939148 
	C1411.491943,690.539368 1415.726929,689.027466 1420.260620,688.050049 
	C1420.679688,688.055481 1420.847290,688.039124 1421.015015,688.022766 
z"/>
<path fill="#77CCC7" opacity="1.000000" stroke="none" 
	d="
M1.000008,651.375000 
	C11.520985,647.369324 22.371935,644.472900 32.482563,639.929138 
	C46.290157,633.723816 59.832367,626.779236 72.932182,619.191406 
	C84.973412,612.216797 96.864677,604.713379 107.765518,596.105042 
	C122.915359,584.141357 137.338684,571.212097 151.576630,558.154846 
	C161.543808,549.014221 170.815384,539.095764 180.120056,529.262024 
	C183.600906,525.583374 186.121979,521.013794 189.411560,517.130676 
	C191.508224,514.655640 194.707535,513.046082 196.554123,510.440216 
	C202.758865,501.684540 208.278748,492.435120 214.640106,483.801544 
	C219.782883,476.821838 226.031738,470.664337 231.298553,463.766876 
	C237.216568,456.016632 242.497894,447.783539 248.220245,439.879272 
	C251.799088,434.935852 255.960754,430.398651 259.343719,425.333710 
	C262.414520,420.736206 264.625092,415.573334 267.514038,410.842377 
	C269.990112,406.787415 272.761993,402.894165 275.636902,399.106903 
	C278.642883,395.146942 282.017883,391.468506 285.064240,387.537323 
	C287.729340,384.098175 290.516296,380.677399 292.630768,376.902008 
	C298.849487,365.798279 307.401672,356.451752 314.998230,346.385254 
	C321.872559,337.275787 328.435394,327.919861 335.571808,319.022461 
	C344.184265,308.284821 353.269379,297.926758 362.124847,287.383331 
	C367.083527,281.479523 371.818176,275.376740 376.979095,269.657196 
	C380.854034,265.362854 385.348816,261.634338 389.375641,257.468323 
	C392.227081,254.518356 394.590240,251.092438 397.475189,248.179901 
	C400.864990,244.757721 404.589417,241.667648 408.158142,238.421936 
	C415.272095,231.951843 422.670990,225.762970 429.426727,218.937851 
	C442.814392,205.412643 458.029785,194.097687 472.754272,182.183640 
	C479.596100,176.647751 486.303131,170.878647 493.571594,165.953751 
	C502.360535,159.998611 511.724487,154.898117 520.754822,149.291275 
	C527.712769,144.971161 534.320923,140.041061 541.484436,136.111084 
	C549.273010,131.838226 557.588989,128.537979 565.541931,124.548378 
	C568.914978,122.856285 571.955566,120.498497 575.132874,118.421196 
	C576.098999,117.789505 576.927734,116.857018 577.970642,116.447044 
	C591.043152,111.308311 604.071167,106.043045 617.255371,101.205063 
	C633.113037,95.386063 648.897583,89.205795 665.108948,84.561058 
	C679.747375,80.366974 694.899841,77.940063 709.861206,74.909332 
	C719.458496,72.965225 729.083130,71.090561 738.764404,69.646820 
	C746.967896,68.423439 755.267517,67.836227 763.529663,67.017883 
	C770.241821,66.353050 776.963013,65.255508 783.677368,65.275810 
	C791.075073,65.298172 798.463013,66.490181 805.869690,66.924446 
	C807.941895,67.045959 810.068665,66.309113 812.163452,65.928009 
	C812.805298,65.811249 813.745850,65.206146 814.005249,65.436836 
	C817.993042,68.982834 822.734131,67.398499 827.250000,68.020554 
	C840.364136,69.826996 853.365723,72.803177 866.212708,76.095757 
	C878.679626,79.290924 891.293579,82.493637 903.145691,87.383194 
	C926.501526,97.018578 948.762512,108.916534 969.291687,123.834328 
	C981.453430,132.671875 991.824219,143.421753 1002.602722,153.814240 
	C1014.877625,165.649567 1024.981323,179.183014 1034.122314,193.229431 
	C1041.202271,204.108810 1045.805176,216.685577 1050.822876,228.792206 
	C1054.295532,237.170914 1056.552856,246.049606 1059.445557,254.673889 
	C1060.978760,259.245117 1063.785645,263.688416 1064.050781,268.302460 
	C1064.321289,273.011932 1067.609985,277.413696 1065.370239,282.450592 
	C1064.758911,283.825409 1065.368530,286.222046 1066.221069,287.680084 
	C1068.893555,292.250458 1069.101440,296.624084 1067.609619,301.767151 
	C1066.484253,305.646942 1066.320435,310.252167 1067.234497,314.184418 
	C1069.151611,322.431061 1067.156738,330.010559 1065.505371,337.923340 
	C1063.788086,346.152618 1063.554688,354.681824 1062.273560,363.018585 
	C1061.938965,365.195526 1059.779419,367.030945 1059.051147,369.220490 
	C1057.284058,374.533600 1056.411499,380.205536 1054.154785,385.277496 
	C1051.853638,390.449890 1048.339722,395.084473 1045.336914,399.942261 
	C1044.131470,401.892426 1042.873047,403.809937 1041.128662,405.633118 
	C1040.380859,404.936035 1040.142822,404.348083 1040.053833,403.453552 
	C1040.698120,402.095703 1041.108765,400.993988 1041.701050,400.000458 
	C1057.028198,374.291443 1062.925415,346.068787 1063.902344,316.553314 
	C1064.675903,293.184509 1060.620850,270.480835 1054.130127,248.148880 
	C1047.686890,225.980545 1038.615479,204.907013 1025.234619,186.073196 
	C999.955933,150.493195 968.142029,122.225822 928.821289,102.820747 
	C925.194702,101.031029 921.109314,100.171288 917.088501,98.564407 
	C914.079956,96.673416 911.338745,94.811592 908.341614,93.565628 
	C871.944153,78.435028 833.942261,71.217346 794.600647,70.229317 
	C754.124695,69.212807 714.592529,75.492516 675.638550,85.611916 
	C646.152832,93.271683 617.534424,103.635170 589.797913,116.343079 
	C537.768188,140.181274 489.777374,170.217728 446.412018,207.760147 
	C396.670990,250.822098 352.946228,299.276276 314.424988,352.477386 
	C284.281586,394.108002 254.403061,435.932831 224.696930,477.876801 
	C200.544327,511.979370 173.447571,543.398926 142.362854,571.381775 
	C117.034653,594.182556 89.608826,614.008850 59.574303,630.844971 
	C50.291271,635.184265 41.498535,639.799194 32.308308,643.399536 
	C22.060652,647.414062 11.451706,650.506348 1.000003,654.000000 
	C1.000000,653.250000 1.000000,652.500000 1.000008,651.375000 
z"/>
<path fill="#0599AE" opacity="1.000000" stroke="none" 
	d="
M1101.334717,800.189331 
	C1103.238403,799.443420 1105.600708,798.096802 1107.965088,798.093201 
	C1178.560913,797.987122 1249.156982,798.018005 1319.752930,798.018799 
	C1406.189575,798.019775 1492.626099,798.013245 1579.531372,798.005005 
	C1580.000000,798.750000 1580.000000,799.500000 1580.000000,800.625000 
	C1476.722290,801.013855 1373.444580,801.042419 1270.166870,801.035400 
	C1218.361938,801.031921 1166.557007,800.980286 1114.752075,800.894409 
	C1110.432495,800.887207 1106.113525,800.451355 1101.334717,800.189331 
z"/>
<path fill="#7CCAC5" opacity="1.000000" stroke="none" 
	d="
M1580.000000,657.625000 
	C1574.128784,659.515991 1568.286499,661.156982 1562.380615,662.523071 
	C1548.117676,665.822144 1533.838379,669.054199 1519.540161,672.196777 
	C1507.240723,674.900024 1494.973633,677.839539 1482.569092,679.951172 
	C1468.217285,682.394226 1453.730225,684.042480 1439.302979,686.043335 
	C1434.946167,686.647583 1430.592896,687.276794 1425.952759,687.736450 
	C1426.785156,686.740906 1427.814453,685.343689 1429.033569,685.151855 
	C1442.966309,682.959167 1456.969604,681.194702 1470.869507,678.820496 
	C1483.712891,676.626709 1496.478271,673.949524 1509.233398,671.272156 
	C1525.218994,667.916687 1541.180786,664.439331 1557.109253,660.822693 
	C1564.530518,659.137756 1571.849243,657.000854 1579.607178,655.034424 
	C1580.000000,655.750000 1580.000000,656.500000 1580.000000,657.625000 
z"/>
<path fill="#0C466A" opacity="1.000000" stroke="none" 
	d="
M1.000003,654.399963 
	C11.451706,650.506348 22.060652,647.414062 32.308308,643.399536 
	C41.498535,639.799194 50.291271,635.184265 59.596588,631.231628 
	C59.959087,631.962036 59.984356,632.477722 60.009613,632.993286 
	C56.488552,635.121033 53.162655,637.711975 49.411068,639.292542 
	C36.422714,644.764771 23.300268,649.920959 10.194777,655.111389 
	C7.445135,656.200317 4.550450,656.923096 1.361291,657.907227 
	C1.000000,656.933289 1.000000,655.866638 1.000003,654.399963 
z"/>
<path fill="#FD2CD7" opacity="1.000000" stroke="none" 
	d="
M336.166077,725.846741 
	C338.432800,727.421570 340.432434,728.744080 342.399628,730.113159 
	C347.014191,733.324829 351.561310,736.636475 356.231995,739.763794 
	C361.687714,743.416809 367.311859,746.819946 372.735474,750.518433 
	C376.203735,752.883423 379.366943,755.692322 382.801178,758.111633 
	C387.009064,761.075867 391.334045,763.876648 395.650543,766.683350 
	C401.292572,770.352051 406.998383,773.922791 412.633850,777.601379 
	C416.808411,780.326233 421.009827,783.027405 425.011536,785.992493 
	C427.049347,787.502319 428.443329,789.921021 430.541992,791.298889 
	C433.277466,793.094727 436.451050,794.212097 439.381775,795.726501 
	C440.940369,796.531799 442.547791,797.374390 443.846252,798.524231 
	C446.608551,800.970337 448.490875,804.669067 453.130005,804.174866 
	C453.796173,804.103882 454.783173,805.236450 455.317017,806.019653 
	C459.252655,811.793518 464.829254,812.783569 471.363464,812.384277 
	C474.953552,812.164917 478.620239,813.602600 482.284607,813.914978 
	C483.217499,813.994446 485.172974,812.573975 485.132355,811.940491 
	C484.759125,806.121216 484.050751,800.323425 483.435791,794.519775 
	C483.400940,794.190735 483.307098,793.867432 483.278381,793.538147 
	C482.570770,785.425842 482.073120,777.288086 481.088654,769.209656 
	C480.491699,764.310852 478.603699,759.531128 478.354767,754.643921 
	C478.226074,752.118042 479.936798,749.035095 481.758759,747.083740 
	C482.575592,746.208923 486.052521,746.910767 487.722443,747.904846 
	C493.376068,751.270569 498.821045,755.002319 504.202026,758.797913 
	C505.359467,759.614319 506.234650,761.179626 506.688049,762.578735 
	C507.957275,766.495422 509.191925,770.456055 509.980835,774.489136 
	C511.788300,783.729248 511.633453,793.456909 517.054810,801.759094 
	C517.491943,802.428589 518.125610,803.116638 518.208252,803.847961 
	C518.973083,810.614990 519.406433,817.427979 520.412231,824.156372 
	C521.065857,828.529053 521.303833,833.856445 523.924072,836.803833 
	C526.831787,840.074524 532.074646,842.119324 536.601746,842.861145 
	C541.122742,843.602051 545.551453,843.679077 549.473755,846.470825 
	C550.434692,847.154907 552.241089,847.628113 553.192749,847.188721 
	C559.168457,844.430054 563.757874,846.738220 568.097595,850.674438 
	C568.636963,851.163696 569.595459,851.300720 570.383423,851.388428 
	C576.837952,852.107117 584.147034,851.129089 589.527405,853.903381 
	C595.377930,856.920044 601.574707,856.692017 607.272583,858.999573 
	C608.445557,859.474670 609.805359,859.508545 611.086670,859.692444 
	C616.032410,860.402283 621.059326,860.762817 625.897949,861.916626 
	C628.562378,862.552002 630.770447,864.962769 633.428101,865.788879 
	C644.796753,869.322632 657.045532,870.300781 667.092224,877.617859 
	C667.470703,877.893433 668.051208,878.186646 668.450562,878.094482 
	C674.710938,876.650146 678.589661,881.422729 683.471497,883.667725 
	C693.172974,888.128845 703.000549,892.320862 712.851807,896.442749 
	C713.710754,896.802185 715.407471,896.141113 716.245544,895.413391 
	C722.927917,889.611023 729.506714,883.688904 736.097961,877.782043 
	C742.926758,871.662354 749.237915,864.792664 756.741272,859.664185 
	C761.074585,856.702332 764.078369,852.214355 768.386108,849.981628 
	C774.271912,846.930908 779.501709,843.098389 783.499084,838.284546 
	C789.662964,830.861694 798.753662,827.138245 804.889648,819.663330 
	C807.262695,816.772339 812.444214,816.364258 816.492554,818.946289 
	C818.657837,820.327454 821.244507,821.423523 822.787964,823.336487 
	C828.238098,830.091248 837.366943,829.987183 843.645752,834.985840 
	C848.878113,839.151489 855.620605,842.240662 856.052979,850.265564 
	C856.114868,851.415283 855.224548,852.619263 854.763245,853.793579 
	C853.852661,856.111511 853.028259,858.469604 851.987976,860.728149 
	C851.199097,862.440979 850.362061,864.226318 849.142578,865.627991 
	C845.783630,869.488831 840.891052,872.069336 841.452881,878.664856 
	C841.648438,880.960144 838.681946,883.557007 837.084839,885.966492 
	C832.915405,892.256653 828.755188,898.554382 824.458557,904.757080 
	C823.765686,905.757263 822.277588,906.169434 821.363770,907.064514 
	C820.462646,907.947388 819.085205,909.191345 819.201660,910.114685 
	C819.638245,913.575439 817.583557,915.416138 815.684631,917.814941 
	C811.702942,922.844543 808.269165,928.312744 804.689392,933.653748 
	C802.640015,936.711182 800.745422,939.872375 798.458862,943.497864 
	C803.126587,946.306274 804.953613,952.783508 811.765564,952.632080 
	C812.251709,952.621277 812.825684,953.380005 813.241760,953.878601 
	C820.402344,962.459290 830.515015,966.744202 839.831909,972.187012 
	C840.252808,972.432861 840.715942,972.985962 841.066467,972.917908 
	C850.983032,970.991577 854.284058,979.989990 860.441101,984.370483 
	C864.625854,987.347656 869.601257,989.204834 874.189331,991.626831 
	C877.013672,993.117798 880.140808,994.310547 882.491699,996.368591 
	C888.346436,1001.494080 893.116211,1007.544434 900.764526,1010.885559 
	C906.967773,1013.595459 912.048584,1018.895325 917.588867,1023.096924 
	C923.374329,1027.484619 928.648132,1032.814087 934.976990,1036.158936 
	C945.976929,1041.972412 954.921753,1050.663574 965.644531,1056.701050 
	C972.404846,1060.507446 978.372620,1065.100708 983.720154,1070.657471 
	C984.770630,1071.749023 986.596313,1072.048218 987.904541,1072.945923 
	C994.735168,1077.632935 1001.697693,1082.156738 1008.255798,1087.203003 
	C1013.943970,1091.580078 1018.977905,1096.806396 1024.658081,1101.195190 
	C1027.065063,1103.055054 1030.390625,1103.720093 1033.286011,1104.958008 
	C1034.017334,1105.270752 1034.894775,1105.532715 1035.372559,1106.098755 
	C1038.350952,1109.627319 1040.998901,1113.469727 1044.236694,1116.731323 
	C1046.225708,1118.734741 1049.038574,1119.942505 1051.538208,1121.410645 
	C1053.957153,1122.831543 1056.783081,1123.745239 1058.849487,1125.547607 
	C1066.885986,1132.557129 1074.455688,1140.117310 1082.674805,1146.895752 
	C1087.329102,1150.734131 1092.909912,1153.448486 1098.067383,1156.678711 
	C1098.479370,1156.936646 1098.878052,1157.235229 1099.225098,1157.574219 
	C1103.197754,1161.453857 1106.605591,1165.480713 1111.623169,1168.749878 
	C1121.539429,1175.210571 1129.602905,1184.515015 1138.432861,1192.643311 
	C1147.264526,1200.772949 1155.965698,1209.052856 1165.024902,1216.920532 
	C1167.168823,1218.782593 1170.786133,1218.854492 1173.234131,1220.487061 
	C1175.681519,1222.119263 1177.487915,1224.699951 1179.619629,1226.820435 
	C1184.405762,1231.581909 1188.760498,1236.935547 1194.131470,1240.912842 
	C1201.747070,1246.552246 1209.391724,1251.876709 1214.818604,1259.929443 
	C1216.565430,1262.521484 1219.882935,1264.000244 1222.223267,1266.256592 
	C1230.777588,1274.504272 1239.213989,1282.874023 1247.726807,1291.165161 
	C1248.363403,1291.785278 1249.385498,1292.017578 1249.999756,1292.651611 
	C1252.686646,1295.424927 1255.294312,1298.275269 1257.920898,1301.106689 
	C1259.685425,1303.008789 1261.322021,1305.046753 1263.220337,1306.802856 
	C1265.201782,1308.635986 1267.428345,1310.204346 1269.242065,1312.294922 
	C1275.360107,1313.587402 1277.996460,1316.753052 1278.570312,1323.397095 
	C1278.747681,1325.450317 1279.836304,1327.831543 1281.280884,1329.304321 
	C1293.614258,1341.878784 1306.191162,1354.214233 1318.541870,1366.771973 
	C1322.012329,1370.300659 1324.908447,1374.387207 1328.184204,1378.115601 
	C1334.519409,1385.326660 1341.020386,1392.393066 1347.299805,1399.651611 
	C1355.081543,1408.646484 1362.743896,1417.745361 1370.377563,1426.866577 
	C1372.441772,1429.333008 1374.276978,1432.000610 1376.088257,1434.663696 
	C1376.678101,1435.530640 1377.366333,1436.868652 1377.075073,1437.637207 
	C1376.812134,1438.331055 1375.282104,1438.881470 1374.295410,1438.907349 
	C1369.465942,1439.034424 1364.631104,1438.983765 1359.798584,1438.946289 
	C1358.991333,1438.940063 1358.076904,1438.889893 1357.396118,1438.520630 
	C1346.744141,1432.742432 1336.277466,1426.590942 1325.396606,1421.287109 
	C1322.253662,1419.755127 1317.935669,1420.682495 1314.166748,1420.361816 
	C1312.583374,1420.227051 1310.287598,1420.330078 1309.579590,1419.381592 
	C1305.479126,1413.888550 1298.938354,1412.968262 1293.434326,1410.121582 
	C1290.458862,1408.582886 1287.771118,1406.421875 1284.702026,1405.147095 
	C1281.206299,1403.695190 1277.419067,1402.035400 1273.778931,1402.081177 
	C1269.643433,1402.133301 1267.197998,1400.277954 1264.987671,1397.594482 
	C1262.462769,1394.528687 1259.557373,1392.987915 1255.514893,1393.584229 
	C1250.996338,1394.250854 1247.206055,1393.184082 1244.088135,1389.364258 
	C1243.005249,1388.037476 1240.286743,1387.371948 1238.391479,1387.503418 
	C1231.668823,1387.969849 1226.819702,1384.136475 1221.513428,1381.081177 
	C1217.536743,1378.791504 1213.258301,1377.022949 1209.097778,1375.057007 
	C1207.516235,1374.309570 1205.580811,1374.007324 1204.333252,1372.905762 
	C1196.850342,1366.298340 1185.757935,1369.031738 1178.269897,1362.778442 
	C1172.431030,1357.902466 1164.066650,1357.479980 1158.898560,1351.424316 
	C1158.139038,1350.534302 1156.171997,1350.210938 1154.840210,1350.351074 
	C1147.973999,1351.074097 1142.985474,1347.988770 1138.378662,1343.305176 
	C1136.738770,1341.638062 1133.824585,1339.933350 1131.760254,1340.214600 
	C1125.373047,1341.084717 1120.679443,1337.571045 1117.220703,1333.814697 
	C1112.865723,1329.085083 1107.262939,1329.250610 1102.236816,1327.922119 
	C1096.441284,1326.390259 1091.386597,1324.151001 1086.862793,1320.399170 
	C1082.860962,1317.080566 1079.332764,1312.503662 1074.731079,1310.748169 
	C1066.855835,1307.743652 1060.286621,1300.868164 1050.494263,1302.582275 
	C1047.940186,1303.029297 1044.493896,1299.946167 1041.850098,1297.961060 
	C1037.420776,1294.635010 1033.315552,1290.878296 1029.047974,1287.334106 
	C1028.561768,1286.930298 1027.938110,1286.558838 1027.329712,1286.454468 
	C1013.925781,1284.154663 1002.976501,1277.564209 993.211792,1268.217529 
	C990.491699,1265.613892 985.687500,1265.187622 981.839417,1263.762207 
	C980.235596,1263.168213 978.137451,1263.025635 977.110901,1261.903198 
	C971.620239,1255.899902 964.722046,1252.306641 957.371338,1249.214600 
	C951.444641,1246.721558 943.666199,1245.226685 940.360596,1240.651245 
	C934.429016,1232.441040 924.306152,1232.205811 917.885498,1225.725708 
	C916.596619,1224.424927 913.740417,1224.811523 912.105957,1223.691650 
	C908.430847,1221.173340 905.222534,1217.970337 901.532104,1215.478760 
	C898.409119,1213.370239 894.848511,1211.918579 891.535706,1210.078735 
	C890.004211,1209.227905 888.408325,1208.341675 887.175537,1207.131348 
	C882.760193,1202.796875 878.836548,1197.757935 871.832703,1197.623291 
	C871.674194,1197.620239 871.490173,1197.562012 871.363770,1197.468018 
	C865.968384,1193.458130 860.624695,1189.376465 855.164612,1185.457031 
	C852.963562,1183.876953 850.523499,1182.624878 848.166138,1181.268921 
	C845.581421,1179.782227 842.818481,1178.558228 840.394897,1176.848633 
	C834.925415,1172.990356 829.694885,1168.769653 822.463501,1168.849243 
	C821.389404,1168.861084 820.088501,1168.592896 819.269409,1167.963623 
	C815.534302,1165.094360 812.023926,1161.930054 808.261902,1159.098999 
	C803.498596,1155.514648 798.577026,1152.140015 793.709106,1148.695679 
	C791.614014,1147.213257 789.435242,1145.846069 787.377625,1144.314697 
	C784.080566,1141.860718 782.267090,1137.108521 776.943115,1137.755371 
	C776.404358,1137.820923 775.726501,1136.753418 775.115112,1136.209473 
	C768.622559,1130.433716 762.148499,1124.636963 755.615417,1118.907349 
	C754.806580,1118.197998 753.562866,1117.253052 752.729370,1117.425659 
	C748.361206,1118.330200 746.202576,1115.275757 743.417358,1112.949463 
	C736.963501,1107.559326 731.016235,1100.185669 723.519714,1097.746460 
	C712.520142,1094.167480 705.758423,1086.320190 697.662964,1079.524902 
	C693.503357,1076.033447 688.703735,1073.310791 684.248352,1070.162964 
	C681.436035,1068.175903 678.725464,1066.045044 676.630371,1064.474365 
	C668.592712,1069.284790 660.310486,1072.940186 653.653381,1078.530762 
	C643.660950,1086.922241 630.423157,1089.860474 621.172546,1099.505005 
	C617.621521,1103.207153 611.669250,1104.603882 606.816345,1107.061646 
	C606.102783,1107.422974 605.186157,1107.672852 604.756653,1108.261230 
	C600.185913,1114.524414 593.213989,1116.781494 586.447754,1119.400757 
	C585.698120,1119.690918 584.890869,1119.941895 584.259766,1120.411743 
	C578.687622,1124.559570 573.220642,1128.853638 567.548950,1132.858765 
	C566.194397,1133.815308 564.190613,1133.852661 563.104919,1135.110840 
	C560.832703,1136.829712 558.504883,1138.480469 556.298828,1140.280396 
	C550.226257,1145.234985 542.043213,1146.795410 536.707397,1153.214233 
	C534.475342,1155.899414 530.033020,1156.655518 526.800354,1158.624878 
	C523.100525,1160.878662 519.602112,1163.469482 516.073059,1165.993408 
	C515.007324,1166.755493 513.641785,1168.744873 513.241150,1168.541504 
	C508.076111,1165.920044 501.877472,1170.233154 496.770569,1165.137695 
	C489.227966,1157.612061 480.577087,1151.350220 471.582306,1145.436890 
	C465.198700,1141.239990 459.766479,1135.120361 455.104492,1128.955200 
	C452.213409,1125.131958 455.198883,1120.315308 458.101471,1117.026978 
	C460.269135,1114.571167 463.667236,1113.246216 466.278473,1111.123779 
	C468.691833,1109.162231 470.796051,1106.818481 473.019623,1104.626099 
	C474.261627,1103.401489 475.463654,1102.136353 476.694122,1100.900024 
	C478.897736,1098.685913 481.001801,1096.357666 483.341766,1094.297729 
	C487.189392,1090.910767 491.245392,1087.760864 495.109558,1084.391724 
	C497.468964,1082.334595 499.550354,1079.958984 501.906708,1077.897949 
	C505.019470,1075.175659 508.245178,1072.578125 511.491089,1070.014038 
	C512.989685,1068.830200 514.866150,1068.070068 516.204895,1066.747070 
	C526.603027,1056.470825 536.791138,1045.979736 547.291443,1035.810303 
	C554.003052,1029.310059 560.995239,1023.078979 568.120789,1017.032715 
	C574.539551,1011.586182 581.375366,1006.634338 587.901733,1001.310486 
	C591.484741,998.387573 590.992737,995.475098 587.930420,992.060425 
	C579.223083,982.351257 570.711121,972.460449 562.335938,962.462097 
	C556.925964,956.003479 551.775146,949.317200 546.735291,942.563477 
	C543.965454,938.851685 541.669556,934.786499 539.153320,930.884949 
	C536.717468,927.107849 534.236145,923.359497 531.842163,919.556091 
	C528.939453,914.944397 526.107422,910.288269 523.033325,905.308899 
	C522.073853,905.308899 520.480896,905.308899 520.172363,905.308899 
	C516.491821,912.885193 513.620972,919.999451 509.597015,926.387207 
	C508.290924,928.460510 503.670258,929.966125 501.086853,929.390991 
	C496.041595,928.267700 491.317322,925.592896 486.564423,923.340332 
	C485.308319,922.744995 483.520538,921.335999 483.532745,920.319397 
	C483.603210,914.457520 484.108002,908.598816 484.540894,902.744629 
	C484.660248,901.130493 485.246857,899.537292 485.260773,897.931335 
	C485.334442,889.432922 484.571381,880.852600 485.510742,872.458801 
	C486.331329,865.126770 481.528320,863.110840 477.180206,859.585693 
	C470.723816,854.351196 463.084045,849.904480 460.638641,840.999817 
	C460.510406,840.532898 460.441498,839.900818 460.113831,839.659363 
	C453.245056,834.599548 446.192780,829.774658 439.507965,824.484863 
	C435.937592,821.659485 433.008850,818.028198 429.754852,814.796448 
	C427.437775,812.495422 425.182556,810.108582 422.680115,808.023621 
	C419.575470,805.437134 416.424988,802.820129 412.971771,800.755859 
	C406.563354,796.925293 401.993683,790.481812 393.718750,789.051575 
	C389.921082,788.395142 386.303009,784.412537 383.435760,781.196289 
	C379.148499,776.387146 373.526825,774.021851 368.167511,771.024658 
	C364.684601,769.076782 361.421082,766.717285 358.151703,764.411255 
	C352.616058,760.506775 347.229706,756.387268 341.637878,752.567139 
	C336.624329,749.142090 331.404724,746.019775 326.301697,742.724243 
	C321.854767,739.852478 317.486176,736.857544 313.002869,734.044617 
	C309.593262,731.905457 305.532959,730.725647 303.604584,726.579163 
	C303.192169,725.692383 301.413300,725.318298 300.190643,724.953674 
	C296.349304,723.808411 294.866730,719.449280 290.242157,718.716370 
	C286.395325,718.106689 283.827515,710.171814 285.747925,706.495056 
	C286.607849,704.848572 289.133667,703.442505 291.101868,703.113403 
	C299.716461,701.672791 305.957703,707.405212 312.952850,710.880066 
	C319.369720,714.067688 323.309265,721.344788 331.498688,721.790527 
	C333.025391,721.873596 334.425629,724.280884 336.166077,725.846741 
z"/>
<path fill="#0D4468" opacity="1.000000" stroke="none" 
	d="
M60.360424,632.921509 
	C59.984356,632.477722 59.959087,631.962036 59.911537,631.059692 
	C89.608826,614.008850 117.034653,594.182556 142.362854,571.381775 
	C173.447571,543.398926 200.544327,511.979370 224.696930,477.876801 
	C254.403061,435.932831 284.281586,394.108002 314.424988,352.477386 
	C352.946228,299.276276 396.670990,250.822098 446.412018,207.760147 
	C489.777374,170.217728 537.768188,140.181274 589.797913,116.343079 
	C617.534424,103.635170 646.152832,93.271683 675.638550,85.611916 
	C714.592529,75.492516 754.124695,69.212807 794.600647,70.229317 
	C833.942261,71.217346 871.944153,78.435028 908.341614,93.565628 
	C911.338745,94.811592 914.079956,96.673416 916.773438,98.611481 
	C916.397217,99.007988 916.187500,99.042099 915.977844,99.076202 
	C907.859802,96.237114 899.831482,93.098915 891.602173,90.630661 
	C879.934937,87.131195 868.280823,83.199112 856.330872,81.119118 
	C836.915771,77.739716 817.325317,74.975967 797.692932,73.377670 
	C785.177246,72.358765 772.417908,73.464882 759.830444,74.432747 
	C746.429504,75.463165 733.071655,77.236275 719.755127,79.111748 
	C712.390381,80.148979 705.103516,81.872421 697.861816,83.619316 
	C685.632874,86.569244 673.217896,89.042900 661.330872,93.050621 
	C640.638184,100.027191 619.987610,107.307602 599.882202,115.794189 
	C581.528992,123.541191 563.849060,132.910660 546.021729,141.862411 
	C538.903687,145.436630 531.918945,149.415329 525.335815,153.890030 
	C505.417938,167.428726 485.371918,180.825119 466.075195,195.214813 
	C453.845856,204.334305 442.721741,214.968918 431.364624,225.215195 
	C421.240082,234.349442 411.275604,243.682068 401.616028,253.304184 
	C393.612366,261.276794 386.017914,269.675690 378.494812,278.111053 
	C370.419434,287.165710 362.448883,296.328217 354.778503,305.725983 
	C345.425201,317.185699 336.023254,328.643951 327.364075,340.624512 
	C305.636627,370.685852 284.478729,401.158630 262.773132,431.235992 
	C248.861588,450.513153 234.373962,469.374298 220.163162,488.435791 
	C215.206955,495.083832 210.575058,501.993896 205.320450,508.394684 
	C196.358185,519.311829 187.442688,530.319214 177.756744,540.579956 
	C154.982788,564.705322 130.721802,587.312012 103.533768,606.408813 
	C89.829880,616.034302 75.020645,624.086182 60.360424,632.921509 
z"/>
<path fill="#0C466A" opacity="1.000000" stroke="none" 
	d="
M916.077271,99.327835 
	C916.187500,99.042099 916.397217,99.007988 916.921875,98.926796 
	C921.109314,100.171288 925.194702,101.031029 928.821289,102.820747 
	C968.142029,122.225822 999.955933,150.493195 1025.234619,186.073196 
	C1038.615479,204.907013 1047.686890,225.980545 1054.130127,248.148880 
	C1060.620850,270.480835 1064.675903,293.184509 1063.902344,316.553314 
	C1062.925415,346.068787 1057.028198,374.291443 1041.701050,400.000458 
	C1041.108765,400.993988 1040.698120,402.095703 1039.745117,403.605988 
	C1037.272583,403.705902 1036.644531,402.906311 1036.155396,400.284912 
	C1035.435425,396.426575 1035.207153,392.370239 1033.820435,388.763062 
	C1030.105591,379.099884 1025.885986,369.630737 1021.866943,360.084473 
	C1026.390747,358.369873 1026.858765,362.255798 1027.870605,364.757721 
	C1032.033691,375.051544 1035.968994,385.437469 1040.440674,396.955566 
	C1043.778320,389.327118 1047.588013,382.533691 1049.743652,375.250732 
	C1053.111206,363.873901 1055.272949,352.144531 1058.100708,340.602539 
	C1062.089111,324.322998 1060.428467,307.727051 1059.540161,291.445618 
	C1058.801147,277.900299 1054.930176,264.387268 1051.286743,251.179794 
	C1047.936646,239.034973 1044.016479,226.845490 1038.561035,215.537613 
	C1032.596680,203.175201 1025.485596,191.118866 1017.217163,180.181992 
	C1008.230286,168.294891 997.867554,157.300293 987.134155,146.920166 
	C974.961975,135.148712 961.753052,124.480843 946.572388,116.515198 
	C936.305237,111.127777 926.299438,105.242203 916.077271,99.327835 
z"/>
<path fill="#77CBC6" opacity="1.000000" stroke="none" 
	d="
M1021.581421,359.895813 
	C1025.885986,369.630737 1030.105591,379.099884 1033.820435,388.763062 
	C1035.207153,392.370239 1035.435425,396.426575 1036.155396,400.284912 
	C1036.644531,402.906311 1037.272583,403.705902 1039.596191,403.912598 
	C1040.142822,404.348083 1040.380859,404.936035 1040.819458,405.773132 
	C1037.413208,408.959015 1035.864014,408.389923 1034.386963,403.521851 
	C1031.905151,395.341553 1029.647827,387.085663 1026.886597,379.001434 
	C1025.854614,375.980011 1023.395081,373.473083 1022.098206,370.507751 
	C1020.744019,367.411591 1020.006042,364.045929 1019.017639,359.947754 
	C1019.105103,358.435638 1019.173645,357.773865 1019.242126,357.112122 
	C1019.926697,357.977142 1020.611267,358.842163 1021.581421,359.895813 
z"/>
<path fill="#7BC8C4" opacity="1.000000" stroke="none" 
	d="
M1019.206421,356.956116 
	C1019.173645,357.773865 1019.105103,358.435638 1018.986084,359.593750 
	C1014.986389,354.940247 1011.037231,349.790436 1007.079468,344.271057 
	C1010.694885,347.820557 1014.318848,351.739655 1018.255127,355.852722 
	C1018.751709,356.310944 1018.952820,356.562073 1019.206421,356.956116 
z"/>
<path fill="#76C7C3" opacity="1.000000" stroke="none" 
	d="
M1420.009033,688.028259 
	C1415.726929,689.027466 1411.491943,690.539368 1407.154663,690.939148 
	C1385.776611,692.909729 1364.389404,694.860291 1342.969604,696.271484 
	C1327.852661,697.267395 1312.676514,697.860718 1297.529907,697.805908 
	C1265.394775,697.689575 1233.226074,697.811401 1201.139771,696.339783 
	C1177.417480,695.251831 1153.669067,692.697632 1130.176147,689.171509 
	C1101.415283,684.854492 1072.634399,680.000549 1044.355469,673.297302 
	C998.873840,662.516296 955.235657,646.313599 914.652283,622.706421 
	C878.719666,601.804565 846.689575,576.385254 823.378662,541.347778 
	C806.586365,516.108154 796.083496,488.639771 793.989319,458.048401 
	C792.956177,442.956116 794.002869,428.257843 798.287781,413.337921 
	C799.552673,412.999084 800.269470,412.998932 800.986328,412.998779 
	C796.351074,428.692261 796.295166,444.835388 797.258057,460.886047 
	C797.770020,469.419739 800.259705,477.862701 802.151062,486.280487 
	C807.689087,510.927124 819.940430,532.331299 834.932434,552.247070 
	C845.783997,566.662537 858.949463,578.883545 872.907471,590.291138 
	C894.798645,608.182190 918.842834,622.645752 944.273987,634.754211 
	C968.738403,646.402405 994.119263,655.793152 1020.231140,663.106384 
	C1034.056885,666.978638 1047.819092,671.200073 1061.829712,674.257019 
	C1077.964966,677.777527 1094.303833,680.433594 1110.626221,683.008728 
	C1126.699219,685.544495 1142.843018,687.665588 1158.993652,689.661926 
	C1167.888550,690.761414 1176.848511,691.518250 1185.802002,691.923035 
	C1205.065796,692.793884 1224.344116,693.349182 1243.617188,694.009521 
	C1253.899536,694.361816 1264.185181,694.972107 1274.466431,694.918335 
	C1291.054199,694.831604 1307.677002,694.874451 1324.217896,693.815613 
	C1353.047607,691.970154 1381.826294,689.327454 1410.626709,687.023987 
	C1411.123901,686.984253 1411.626099,687.007751 1412.842529,687.196594 
	C1415.050171,687.255066 1416.541260,687.118713 1418.032349,686.982361 
	C1418.463501,686.980469 1418.894775,686.978577 1419.658447,687.242188 
	C1419.996948,687.681274 1420.003052,687.854797 1420.009033,688.028259 
z"/>
<path fill="#77C8C3" opacity="1.000000" stroke="none" 
	d="
M801.000366,412.603882 
	C800.269470,412.998932 799.552673,412.999084 798.477417,412.998810 
	C798.759521,409.894989 799.400024,406.791595 800.481995,403.174194 
	C801.259827,401.713928 801.596130,400.767700 801.932495,399.821442 
	C804.868469,392.353241 806.998840,384.435516 810.873779,377.491302 
	C832.715942,338.348053 866.149719,315.360687 910.345276,308.519470 
	C923.628845,306.463226 937.191345,306.159576 950.626404,311.344543 
	C951.004272,312.499115 951.006165,313.233490 951.008118,313.967896 
	C936.929688,310.077820 922.638123,309.338470 908.359497,312.178772 
	C892.753113,315.283112 877.700989,319.817902 863.639221,327.911102 
	C853.278381,333.874207 843.741211,340.676605 835.568420,349.139130 
	C819.961731,365.299133 808.689209,384.157074 802.891724,406.057068 
	C802.343445,408.128235 801.643860,410.159332 801.000366,412.603882 
z"/>
<path fill="#7BC8C4" opacity="1.000000" stroke="none" 
	d="
M951.403809,313.988159 
	C951.006165,313.233490 951.004272,312.499115 951.004150,311.397034 
	C967.988647,314.123718 983.074524,321.353149 996.316956,332.313873 
	C1000.229553,335.552277 1003.506226,339.559052 1007.122070,343.562317 
	C1002.766663,340.746063 998.251831,337.724060 993.981140,334.389435 
	C981.376465,324.547424 967.406128,317.602570 951.403809,313.988159 
z"/>
<path fill="#7CCAC5" opacity="1.000000" stroke="none" 
	d="
M1417.612061,686.981079 
	C1416.541260,687.118713 1415.050171,687.255066 1413.279541,687.195679 
	C1414.397217,686.993286 1415.794434,686.986572 1417.612061,686.981079 
z"/>
<path fill="#7CCAC5" opacity="1.000000" stroke="none" 
	d="
M1420.260620,688.050049 
	C1420.003052,687.854797 1419.996948,687.681274 1419.981689,687.247314 
	C1420.255737,687.160889 1420.504272,687.374756 1420.866699,687.825745 
	C1420.847290,688.039124 1420.679688,688.055481 1420.260620,688.050049 
z"/>
<path fill="#76C7C3" opacity="1.000000" stroke="none" 
	d="
M801.677124,399.990631 
	C801.596130,400.767700 801.259827,401.713928 800.659058,402.816223 
	C800.737122,402.034760 801.079468,401.097290 801.677124,399.990631 
z"/>
</svg>