<svg version="1.1" id="Layer_1" xmlns="http://www.w3.org/2000/svg" xmlns:xlink="http://www.w3.org/1999/xlink" x="0px" y="0px"
	 width="100%" viewBox="0 0 1888 1851" enable-background="new 0 0 1888 1851" xml:space="preserve">
<path fill="#000000" opacity="1.000000" stroke="none" 
	d="
M1.000000,433.000000 
	C1.000000,288.666656 1.000000,144.833328 1.000000,1.000000 
	C630.333313,1.000000 1259.666626,1.000000 1889.000000,1.000000 
	C1889.000000,618.000000 1889.000000,1235.000000 1889.000000,1852.000000 
	C1259.666626,1852.000000 630.333313,1852.000000 1.000000,1852.000000 
	C1.000000,1379.166626 1.000000,906.333313 1.000000,433.000000 
M4.996989,573.004639 
	C4.953361,609.326904 4.909732,645.649170 4.311094,682.602600 
	C4.207905,684.925232 4.014744,687.247864 4.014440,689.570496 
	C3.999680,802.373230 4.001531,915.176025 4.001526,1027.978760 
	C4.001514,1299.571777 3.998783,1571.164673 4.046462,1842.757690 
	C4.046876,1845.119141 4.726022,1847.480469 5.988970,1849.955811 
	C7.822005,1849.970581 9.655040,1849.998291 11.488075,1849.998291 
	C633.965942,1850.000122 1256.443848,1850.000122 1878.921753,1849.993896 
	C1880.919189,1849.993896 1882.916748,1849.900146 1885.742554,1849.789307 
	C1886.161011,1847.482056 1886.945801,1845.174927 1886.946289,1842.867554 
	C1887.001709,1591.454712 1886.998291,1340.041870 1886.998291,1088.629028 
	C1886.998291,955.508545 1887.003418,822.388000 1886.958008,689.267517 
	C1886.957153,686.850464 1886.352661,684.433655 1886.002686,681.083618 
	C1886.005005,644.760437 1886.007202,608.437256 1886.755615,571.644104 
	C1886.832886,569.986572 1886.977661,568.329041 1886.977783,566.671509 
	C1886.987915,380.646454 1886.987427,194.621384 1886.985962,8.596327 
	C1886.985840,7.264302 1887.165283,5.883537 1886.861938,4.621479 
	C1886.716675,4.017577 1885.635986,3.638551 1884.070068,3.015972 
	C1883.070435,3.010650 1882.070679,3.000665 1881.071045,3.000664 
	C1257.396484,3.000003 633.721924,2.999885 10.047379,3.006833 
	C8.385062,3.006852 6.722747,3.110364 4.227642,3.416745 
	C4.151884,4.741720 4.009826,6.066692 4.009756,7.391672 
	C3.999882,194.104172 3.998049,380.816681 4.040175,567.529175 
	C4.040519,569.050903 4.643012,570.572510 4.996989,573.004639 
z"/>
<path fill="#00506F" opacity="1.000000" stroke="none" 
	d="
M1886.029907,682.016724 
	C1886.352661,684.433655 1886.957153,686.850464 1886.958008,689.267517 
	C1887.003418,822.388000 1886.998291,955.508545 1886.998291,1088.629028 
	C1886.998291,1340.041870 1887.001709,1591.454712 1886.946289,1842.867554 
	C1886.945801,1845.174927 1886.161011,1847.482056 1885.021973,1849.585449 
	C1881.984985,1849.254272 1879.668823,1849.015869 1877.352539,1849.015747 
	C1551.191406,1848.999146 1225.030151,1849.000000 898.868958,1849.000000 
	C603.373901,1849.000000 307.878876,1848.998047 12.383845,1849.034912 
	C9.951965,1849.035278 7.520152,1849.561401 5.088292,1849.842041 
	C4.726022,1847.480469 4.046876,1845.119141 4.046462,1842.757690 
	C3.998783,1571.164673 4.001514,1299.571777 4.001526,1027.978760 
	C4.001531,915.176025 3.999680,802.373230 4.014440,689.570496 
	C4.014744,687.247864 4.207905,684.925232 4.838936,682.637573 
	C7.358972,682.748962 9.351157,682.891907 11.343361,682.892151 
	C94.505905,682.903320 177.668442,682.901794 260.830994,682.901794 
	C800.304260,682.901794 1339.777466,682.902832 1879.250732,682.865295 
	C1881.510498,682.865112 1883.770142,682.311707 1886.029907,682.016724 
M859.181274,1066.750366 
	C856.292175,1069.524170 854.885925,1066.039673 852.878174,1065.219116 
	C847.636414,1063.076660 842.404541,1060.904785 837.224670,1058.618042 
	C833.294434,1056.882935 829.453796,1054.945435 825.566467,1053.112427 
	C821.733521,1051.305176 817.897461,1049.504150 814.051208,1047.725586 
	C812.639893,1047.072876 811.130615,1045.855225 809.776978,1045.992188 
	C804.589600,1046.516968 800.474548,1044.368408 796.171509,1041.919922 
	C792.068115,1039.585083 787.639709,1037.545288 783.098877,1036.328003 
	C777.858887,1034.923340 772.291443,1034.787231 766.959656,1033.658936 
	C763.915527,1033.014771 759.909302,1032.335205 758.339294,1030.199341 
	C754.256836,1024.645264 747.787720,1026.977173 742.792114,1024.446045 
	C738.986694,1022.518005 733.866882,1023.940613 729.115784,1022.112305 
	C723.998047,1020.142883 718.212646,1022.077576 712.717651,1017.506897 
	C708.817383,1014.262512 701.367004,1015.084717 695.460266,1014.518616 
	C690.806641,1014.072571 685.684265,1015.640747 682.583862,1010.360657 
	C682.281494,1009.845642 681.122314,1009.692566 680.338867,1009.624756 
	C676.270020,1009.272705 672.283386,1005.668457 668.001404,1009.531799 
	C667.401245,1010.073303 665.122803,1008.741699 663.616272,1008.294067 
	C659.677856,1007.123779 655.751831,1005.093079 651.792603,1005.023865 
	C647.113464,1004.942139 643.318237,1003.397827 639.577271,1001.151184 
	C637.134399,999.684143 633.609314,998.461365 632.736328,996.266907 
	C630.995056,991.890320 630.528564,986.947388 629.929688,982.188843 
	C628.938232,974.311157 628.284607,966.391418 627.404236,958.498718 
	C627.323669,957.776611 626.548401,957.158508 626.239136,956.431152 
	C624.201416,951.639160 621.426453,946.993469 620.376221,941.988586 
	C618.854675,934.737122 618.944519,927.158630 617.637024,919.846558 
	C616.994873,916.255310 614.804077,912.927002 613.215149,909.525940 
	C612.594666,908.197876 611.994568,906.574341 610.885742,905.807739 
	C604.733154,901.553589 598.197693,897.824158 592.247803,893.315430 
	C587.717712,889.882507 583.603394,890.541626 581.516113,895.899414 
	C581.001343,897.220642 580.196899,898.429077 579.940430,898.910583 
	C581.360657,905.664917 582.961975,911.800842 583.854370,918.038147 
	C584.462280,922.286560 583.598511,926.749756 584.241821,930.988098 
	C585.433105,938.835938 587.477051,946.553467 588.700378,954.397827 
	C589.283997,958.139771 588.809570,962.048096 588.798462,965.881042 
	C588.781616,971.723083 588.631836,971.766296 583.229492,969.028564 
	C582.264343,968.539490 580.982239,968.559387 579.844421,968.547668 
	C575.178711,968.499939 570.511597,968.577942 565.846436,968.509460 
	C564.044250,968.483032 561.648621,968.868042 560.550171,967.900208 
	C555.975830,963.870239 552.541870,958.288330 545.537231,957.937988 
	C540.892822,948.076782 527.078064,949.825684 522.537964,939.804749 
	C522.455505,939.622742 521.867310,939.728821 521.604797,939.560608 
	C517.721069,937.071960 513.857239,934.552124 509.977539,932.057068 
	C508.782745,931.288696 507.553223,930.574463 506.341644,929.832092 
	C501.470032,926.847351 496.493042,924.019287 491.754822,920.835938 
	C485.780609,916.822021 480.030121,912.476746 474.129242,908.351501 
	C469.163757,904.880127 464.111633,901.532898 459.122498,898.095032 
	C458.322876,897.544067 457.722778,896.697327 456.911316,896.171021 
	C450.373779,891.930786 443.712982,887.873047 437.285217,883.473999 
	C433.311066,880.754211 430.078461,875.937073 425.810211,874.868469 
	C416.420410,872.517578 412.349396,862.545898 402.732208,860.582642 
	C398.917999,859.804016 396.015717,855.244080 392.325439,853.026062 
	C385.256195,848.777161 378.208405,844.221313 370.576355,841.291443 
	C366.614319,839.770447 360.974091,840.335083 356.905731,841.975647 
	C352.192566,843.876221 353.769043,849.696838 354.806488,853.128296 
	C355.636292,855.872864 359.746338,857.704590 362.554260,859.728088 
	C363.505951,860.413940 365.991241,860.514954 365.975128,860.769165 
	C365.730591,864.627991 369.352966,864.136841 371.144714,865.642822 
	C373.515167,867.635132 375.573395,870.062012 378.125641,871.761902 
	C383.674866,875.458130 389.483368,878.762451 395.124084,882.324890 
	C398.355347,884.365601 401.439362,886.638000 404.637054,888.733826 
	C408.351135,891.168091 412.163452,893.454407 415.846985,895.932983 
	C419.304321,898.259277 422.374878,901.377380 426.111267,903.018616 
	C431.101501,905.210632 435.248627,908.126587 439.250061,911.795227 
	C442.947479,915.185059 447.578766,917.586609 451.904144,920.252502 
	C455.957062,922.750610 460.487915,924.589294 464.205200,927.491028 
	C471.233032,932.976868 477.141937,939.582825 486.221039,942.590942 
	C492.031525,944.516174 496.817017,949.533813 502.063446,953.163025 
	C507.319580,956.799011 512.686340,960.288208 517.783630,964.134521 
	C519.970825,965.784912 521.645996,968.135071 523.472534,970.237793 
	C527.076965,974.387207 529.968567,979.557556 534.359070,982.522766 
	C540.082092,986.387695 546.480225,989.349121 550.844238,994.855896 
	C554.007751,998.847900 561.184875,999.636169 560.446228,1006.737488 
	C568.747437,1014.095947 576.713684,1021.902832 585.569885,1028.518311 
	C587.979248,1030.318115 589.009094,1031.345093 588.787903,1033.899170 
	C587.515259,1048.590698 591.211609,1063.453491 586.571045,1078.121582 
	C585.085510,1082.817261 585.954712,1088.424438 586.539001,1093.523804 
	C586.763794,1095.485718 588.826050,1097.923706 590.696228,1098.870605 
	C594.892090,1100.995117 599.845398,1101.735107 603.829224,1104.135986 
	C607.904175,1106.591675 611.238098,1107.235596 614.770752,1103.917603 
	C616.356689,1102.427979 617.557739,1100.532349 619.119568,1099.012207 
	C624.466675,1093.807983 625.390259,1086.706421 627.531677,1080.098389 
	C627.888245,1078.998169 629.211609,1077.456177 630.096558,1077.450684 
	C631.606079,1077.441040 634.012817,1078.085327 634.495361,1079.153687 
	C638.543457,1088.115845 643.351135,1096.492188 650.088318,1103.780151 
	C652.644714,1106.545288 654.343445,1110.104126 656.427612,1113.304810 
	C658.767517,1116.898315 660.986389,1120.578125 663.483948,1124.058105 
	C664.820129,1125.919922 666.795776,1127.314575 668.199036,1129.138306 
	C672.888306,1135.232910 677.281555,1141.562256 682.119141,1147.533447 
	C685.324036,1151.489624 689.949585,1154.506104 692.378296,1158.821655 
	C694.919739,1163.337646 697.035095,1167.917480 700.954529,1171.487183 
	C704.133240,1174.382080 707.015015,1177.600464 710.089722,1180.612793 
	C713.008301,1183.472290 713.131470,1186.406494 710.075684,1189.056030 
	C706.808899,1191.888672 703.230347,1194.358276 699.862671,1197.078857 
	C695.080750,1200.941895 690.264587,1204.772705 685.647034,1208.827026 
	C677.552795,1215.933716 669.421265,1223.013672 661.622009,1230.437622 
	C645.537354,1245.748169 631.151672,1262.848877 613.271057,1276.262939 
	C611.673950,1277.461060 609.718750,1278.223511 608.252258,1279.545654 
	C605.396118,1282.120972 602.934937,1285.146240 600.005859,1287.625854 
	C595.956909,1291.053345 591.601685,1294.117188 587.446716,1297.423706 
	C586.884521,1297.871216 586.871216,1298.961426 586.350098,1299.515381 
	C583.981079,1302.034058 581.568115,1304.516357 579.076111,1306.912964 
	C577.599854,1308.332764 575.865723,1309.484497 574.391479,1310.906128 
	C571.623108,1313.575928 569.132446,1316.559082 566.204041,1319.030273 
	C563.163635,1321.595825 559.458923,1323.405396 556.560730,1326.100464 
	C553.182434,1329.241943 551.005310,1337.731934 553.046143,1339.916260 
	C559.376770,1346.691772 565.656433,1353.628784 572.758850,1359.538086 
	C580.085938,1365.634155 588.422852,1370.503906 596.184753,1376.095093 
	C600.367065,1379.107788 603.843689,1383.577759 608.429810,1385.407227 
	C612.373962,1386.980713 617.470032,1384.565552 622.022461,1386.097412 
	C622.270874,1386.181152 622.822998,1385.106201 623.336365,1384.700195 
	C627.126160,1381.703003 630.868896,1378.638184 634.773682,1375.796875 
	C637.733704,1373.643066 640.777466,1370.459473 644.024780,1370.133545 
	C648.126343,1369.721924 650.181458,1367.554321 652.586731,1365.132446 
	C654.217041,1363.490845 655.909485,1360.559570 657.582947,1360.553223 
	C663.829041,1360.529907 667.057739,1355.424561 671.838745,1353.062378 
	C674.852539,1351.573120 677.349304,1349.037598 679.995911,1347.033569 
	C683.220154,1344.924072 686.090759,1342.345947 689.454651,1341.008423 
	C694.544678,1338.984497 698.750488,1336.117310 702.589844,1332.238159 
	C705.012207,1329.790771 708.198669,1326.957764 711.321167,1326.575684 
	C718.477173,1325.699829 723.017517,1321.532593 727.548279,1316.790405 
	C728.617981,1315.670776 730.154907,1314.973877 731.529907,1314.173584 
	C739.225220,1309.695190 748.290039,1307.439453 754.141602,1299.937378 
	C755.138916,1298.658691 757.059326,1298.095947 758.560669,1297.214966 
	C764.860657,1293.517334 771.196106,1289.878784 777.450562,1286.105835 
	C780.321655,1284.374023 782.962891,1282.260864 785.834961,1280.531006 
	C794.808105,1275.126099 803.841736,1269.821655 813.636475,1264.012939 
	C815.196838,1265.698364 817.078369,1268.599121 819.712708,1270.396484 
	C825.339478,1274.235352 831.698914,1277.046143 837.125244,1281.120972 
	C843.740051,1286.088257 849.807129,1291.809937 855.906128,1297.427979 
	C858.857788,1300.146729 861.327637,1303.107422 866.064575,1302.216309 
	C867.244324,1301.994385 868.943176,1303.411865 870.101196,1304.421997 
	C872.710999,1306.698608 874.734070,1310.267090 877.713623,1311.368896 
	C883.605530,1313.547607 888.131531,1317.136353 892.218262,1321.582275 
	C894.958557,1324.563477 897.672119,1327.340088 902.355225,1326.319214 
	C903.228149,1326.128906 904.548218,1326.878052 905.333191,1327.567749 
	C913.179993,1334.463013 920.945007,1341.451294 928.772522,1348.368774 
	C929.708374,1349.195801 930.972290,1350.447632 931.924011,1350.318970 
	C935.531494,1349.830811 937.178894,1352.314087 939.414917,1354.267700 
	C943.050781,1357.444458 946.868652,1360.454834 950.855957,1363.174316 
	C954.245667,1365.486084 958.309387,1366.876343 961.498108,1369.402466 
	C967.991272,1374.546753 974.096008,1380.181396 980.358459,1385.616699 
	C980.608093,1385.833130 980.847839,1386.287109 981.071716,1386.274170 
	C987.271301,1385.917725 992.711304,1387.746338 997.667786,1391.497803 
	C999.626038,1392.979858 1002.229553,1393.598389 1004.227600,1395.041504 
	C1006.729431,1396.848511 1008.710571,1400.516968 1011.269958,1400.878418 
	C1017.603516,1401.772461 1021.906189,1405.199585 1026.006836,1409.450317 
	C1030.598633,1414.210205 1038.404663,1414.266235 1042.109741,1420.385376 
	C1042.264771,1420.641235 1043.117310,1420.382324 1043.541992,1420.582153 
	C1047.240356,1422.322998 1051.823486,1423.274536 1054.404907,1426.067627 
	C1059.520874,1431.603027 1065.484253,1434.929199 1072.345093,1437.677368 
	C1076.642334,1439.398682 1080.688354,1442.687378 1083.702148,1446.243164 
	C1085.038818,1447.820068 1085.652588,1449.410400 1087.948730,1449.918823 
	C1090.554077,1450.495728 1093.211426,1451.256958 1095.558716,1452.486694 
	C1099.620728,1454.614868 1103.852051,1456.708984 1107.296631,1459.654541 
	C1111.722046,1463.439087 1119.781372,1462.734253 1120.942993,1470.576904 
	C1120.988403,1470.883667 1122.149780,1470.927368 1122.666382,1471.277832 
	C1126.793335,1474.076172 1130.721558,1477.297852 1136.278809,1476.463989 
	C1136.761963,1476.391479 1137.352173,1477.657837 1138.025391,1478.100220 
	C1139.612427,1479.143188 1141.212891,1480.208374 1142.929199,1481.002075 
	C1145.903809,1482.377686 1149.331909,1483.053101 1151.921875,1484.920898 
	C1157.029053,1488.604004 1161.642334,1492.965698 1166.586060,1496.887695 
	C1167.495850,1497.609375 1168.987183,1497.661865 1170.234741,1497.882690 
	C1176.220947,1498.941895 1182.296021,1499.646484 1186.564575,1504.864746 
	C1188.230225,1506.900757 1190.160034,1508.825439 1192.291016,1510.352173 
	C1195.752930,1512.832275 1199.391602,1515.102051 1203.120850,1517.161621 
	C1206.410767,1518.978516 1209.942749,1520.353149 1213.335693,1521.989746 
	C1214.890991,1522.739868 1216.447144,1524.482544 1217.869751,1524.349731 
	C1225.909790,1523.598877 1231.666626,1527.362915 1236.485229,1533.113770 
	C1242.973755,1540.857544 1250.678589,1545.436157 1261.267456,1543.937988 
	C1262.838989,1543.715454 1264.725464,1545.198364 1266.363770,1546.082520 
	C1269.295532,1547.665039 1271.974731,1550.209351 1275.075928,1550.872070 
	C1280.031738,1551.931030 1283.930176,1554.080933 1287.572998,1557.510498 
	C1292.043823,1561.720215 1296.554810,1566.227783 1301.859741,1569.116821 
	C1307.310547,1572.085083 1313.625488,1573.970703 1319.781982,1574.951172 
	C1323.516602,1575.546143 1325.861572,1576.998291 1328.688110,1579.149170 
	C1333.647217,1582.922485 1338.088135,1588.479614 1345.479736,1587.257324 
	C1349.771362,1586.547729 1352.640991,1588.365356 1355.297729,1591.484375 
	C1360.216064,1597.258545 1366.360840,1600.392212 1374.209839,1599.427612 
	C1375.479126,1599.271606 1377.336060,1599.149414 1378.031738,1599.870239 
	C1381.679321,1603.648926 1385.588745,1606.346313 1390.854614,1607.999512 
	C1396.480225,1609.765625 1401.333862,1613.857544 1406.769287,1616.413940 
	C1409.867065,1617.870728 1413.698486,1617.787354 1416.764771,1619.286743 
	C1421.825317,1621.760864 1428.100830,1621.236938 1432.298096,1625.908325 
	C1433.466187,1627.208496 1435.629639,1627.633545 1437.360962,1628.404907 
	C1442.109375,1630.519653 1447.253418,1632.022095 1451.539307,1634.835693 
	C1458.363892,1639.316162 1464.889404,1643.805176 1473.637939,1643.008789 
	C1475.172974,1642.869019 1477.424805,1643.599609 1478.327271,1644.736450 
	C1482.129761,1649.526245 1486.916016,1651.078125 1492.733032,1650.130249 
	C1496.883789,1649.453857 1500.178711,1650.711914 1502.562622,1654.243408 
	C1507.134766,1661.016479 1515.035278,1659.919678 1521.494385,1662.238281 
	C1523.539307,1662.972168 1525.612915,1663.692383 1527.535889,1664.685425 
	C1532.040771,1667.011841 1536.225708,1670.333618 1540.985229,1671.685425 
	C1545.650146,1673.010376 1549.889160,1674.472534 1553.000366,1678.148804 
	C1555.369873,1680.948486 1558.081787,1681.700684 1561.671753,1681.713989 
	C1566.136841,1681.730591 1570.980469,1681.776611 1574.973633,1683.449707 
	C1581.222046,1686.067749 1586.921997,1690.014282 1592.803101,1693.484741 
	C1598.921387,1697.094849 1606.725220,1697.256958 1611.890381,1702.882446 
	C1612.400757,1703.438354 1613.781860,1703.297607 1614.760010,1703.303833 
	C1620.259155,1703.339111 1625.761719,1703.416382 1631.255981,1703.247925 
	C1632.527100,1703.208862 1633.770630,1702.268066 1635.026855,1701.742188 
	C1634.439941,1700.482910 1634.073242,1699.046875 1633.228638,1697.994507 
	C1629.276855,1693.070557 1625.115845,1688.314209 1621.174927,1683.381836 
	C1615.042847,1675.706909 1609.247437,1667.751953 1602.886475,1660.275269 
	C1598.714966,1655.371704 1594.249268,1650.484131 1589.090210,1646.720093 
	C1583.769165,1642.837891 1583.906372,1635.571167 1577.669922,1631.977783 
	C1572.812256,1629.178711 1570.113525,1622.856689 1565.940430,1618.605713 
	C1551.326172,1603.717407 1536.432129,1589.103638 1521.821289,1574.212036 
	C1520.308350,1572.669922 1520.039185,1569.940308 1519.083496,1567.810913 
	C1517.411255,1564.084961 1516.391479,1558.031372 1513.769897,1557.214111 
	C1509.125488,1555.765991 1507.039062,1552.755737 1504.398682,1549.656494 
	C1503.933105,1549.109863 1502.877686,1549.108154 1502.275269,1548.628174 
	C1499.880249,1546.720337 1497.320068,1544.938843 1495.273438,1542.697510 
	C1493.250000,1540.481812 1492.060425,1537.490601 1489.988647,1535.336426 
	C1486.660767,1531.876221 1482.932495,1528.900024 1479.749634,1525.167603 
	C1473.853394,1518.253540 1467.075684,1512.082642 1460.544067,1505.726440 
	C1459.208130,1504.426636 1457.375854,1503.609253 1455.710327,1502.680786 
	C1450.964478,1500.035522 1447.340332,1496.369995 1443.896729,1492.094238 
	C1439.268555,1486.347656 1433.799683,1481.188965 1428.203247,1476.341919 
	C1424.274902,1472.939697 1418.928955,1471.072998 1415.328125,1467.423462 
	C1411.965454,1464.015259 1410.308105,1458.984253 1405.080688,1457.302612 
	C1404.238770,1457.031738 1403.889404,1455.461914 1403.125488,1454.673706 
	C1400.629517,1452.098999 1398.335938,1449.180908 1395.416382,1447.204956 
	C1392.486816,1445.222534 1388.366699,1444.857178 1385.700073,1442.654907 
	C1377.525024,1435.903320 1369.710327,1428.704346 1361.915649,1421.505859 
	C1349.624023,1410.154541 1337.517456,1398.602173 1325.181274,1387.300171 
	C1323.536621,1385.793335 1320.864258,1385.470337 1318.929199,1384.200684 
	C1317.026489,1382.952271 1315.335449,1381.309937 1313.769775,1379.636353 
	C1311.580811,1377.296509 1309.983032,1374.211914 1307.441650,1372.432495 
	C1301.734375,1368.436035 1295.221924,1365.537720 1289.733887,1361.291992 
	C1282.273926,1355.520508 1275.404175,1348.974487 1268.402832,1342.626465 
	C1265.214722,1339.735840 1262.441772,1336.384888 1259.229736,1333.524414 
	C1257.895386,1332.336060 1255.838989,1331.999634 1254.227539,1331.072876 
	C1250.703857,1329.046509 1246.791626,1327.385010 1243.888062,1324.666504 
	C1239.893066,1320.926514 1236.709106,1316.325073 1233.097778,1312.162231 
	C1232.755737,1311.767822 1231.800903,1311.971069 1231.205811,1311.719238 
	C1227.894775,1310.318481 1223.895142,1309.616699 1221.435181,1307.294556 
	C1211.173706,1297.608398 1201.277222,1287.614014 1188.193848,1281.523315 
	C1185.497803,1280.268311 1183.608276,1277.381592 1181.118896,1275.558350 
	C1177.136597,1272.641479 1172.863037,1270.119751 1168.908813,1267.168335 
	C1166.550781,1265.408447 1164.760742,1262.875244 1162.371460,1261.172241 
	C1158.502197,1258.414307 1154.292114,1256.139771 1150.335205,1253.497314 
	C1147.144287,1251.366455 1144.420410,1248.071655 1140.949707,1246.922974 
	C1134.070557,1244.645996 1129.386230,1239.950806 1124.649414,1235.014038 
	C1123.455811,1233.770142 1121.858521,1232.856323 1120.326416,1232.008545 
	C1118.018066,1230.731323 1115.509399,1229.799316 1113.269165,1228.422119 
	C1111.896851,1227.578613 1110.979980,1226.024780 1109.663818,1225.053833 
	C1104.269897,1221.075073 1098.825317,1217.163696 1093.353638,1213.291870 
	C1087.350342,1209.043945 1081.590942,1204.324219 1075.165527,1200.842651 
	C1070.585449,1198.360718 1066.222046,1196.002808 1062.427490,1192.316040 
	C1057.913696,1187.930298 1053.108398,1183.700195 1047.866943,1180.259277 
	C1044.393677,1177.979126 1039.511353,1177.996948 1036.777832,1174.117310 
	C1036.648315,1173.933594 1036.105957,1174.093994 1035.820312,1173.958374 
	C1033.437378,1172.827515 1030.742554,1172.059570 1028.769531,1170.424561 
	C1025.339600,1167.582153 1022.118225,1164.399048 1019.259949,1160.981812 
	C1016.669800,1157.885132 1013.826599,1156.626221 1009.804016,1156.934937 
	C1007.911682,1157.080322 1005.747498,1156.226196 1004.004456,1155.277466 
	C999.535645,1152.844971 995.215393,1150.135742 990.870117,1147.480957 
	C986.807495,1144.998779 982.623108,1142.670044 978.798706,1139.857178 
	C975.109375,1137.143799 973.070374,1131.910278 967.157410,1132.711426 
	C966.631897,1132.782593 965.920044,1131.745483 965.349304,1131.168945 
	C962.344727,1128.134155 959.357544,1125.082031 956.326721,1121.997681 
	C957.895264,1119.531372 959.436707,1117.130493 960.955139,1114.715332 
	C964.168274,1109.604614 967.372986,1104.488647 970.572876,1099.369751 
	C971.325806,1098.165283 971.859314,1096.764404 972.812378,1095.754517 
	C976.946472,1091.373657 982.566101,1087.816895 980.494934,1081.543823 
	C983.300110,1079.226196 985.915161,1077.897583 987.281921,1075.767822 
	C990.353333,1070.981812 992.134827,1065.253174 995.668213,1060.905151 
	C1000.860596,1054.515381 1007.289978,1049.113281 1007.125671,1039.855957 
	C1007.113037,1039.145752 1008.356506,1038.396973 1009.044128,1037.693481 
	C1011.592651,1035.086792 1014.316833,1032.627686 1016.638855,1029.833862 
	C1017.780823,1028.459961 1018.208069,1026.482910 1018.920227,1024.762939 
	C1019.933105,1022.316528 1021.213684,1019.928345 1021.825745,1017.382141 
	C1022.577759,1014.253540 1024.313721,1009.606873 1022.910400,1008.026550 
	C1017.581177,1002.025269 1012.511475,995.362671 1004.279236,992.660767 
	C999.627258,991.133911 994.677063,989.847900 990.649902,987.236938 
	C984.109924,982.996765 978.217590,977.757751 972.265503,973.107300 
	C970.633179,974.372742 969.619324,975.771545 968.863525,975.643799 
	C964.434509,974.894958 962.431213,978.148071 959.744751,980.518555 
	C955.260620,984.475220 950.600647,988.236755 945.935730,991.982056 
	C944.654297,993.010864 942.882935,993.465881 941.697876,994.571655 
	C938.133972,997.896545 934.728271,1001.392700 931.309631,1004.870056 
	C930.589722,1005.602356 930.121887,1006.576050 929.457947,1007.371826 
	C928.801880,1008.158203 928.173889,1009.108521 927.310364,1009.558105 
	C922.235779,1012.199585 916.251770,1013.712463 914.728027,1020.498047 
	C914.610535,1021.020935 913.383057,1021.743469 912.800720,1021.640747 
	C908.782410,1020.931824 906.998047,1023.939270 904.575378,1026.132324 
	C897.690979,1032.364502 890.622620,1038.392944 883.684143,1044.566162 
	C875.629761,1051.732056 867.636353,1058.966675 859.181274,1066.750366 
z"/>
<path fill="#67C2C0" opacity="1.000000" stroke="none" 
	d="
M1884.979126,3.157639 
	C1885.635986,3.638551 1886.716675,4.017577 1886.861938,4.621479 
	C1887.165283,5.883537 1886.985840,7.264302 1886.985962,8.596327 
	C1886.987427,194.621384 1886.987915,380.646454 1886.977783,566.671509 
	C1886.977661,568.329041 1886.832886,569.986572 1885.920776,571.817749 
	C1883.087036,571.964233 1881.088013,571.913208 1879.089111,571.913208 
	C1256.710327,571.909790 634.331482,571.909607 11.952708,571.917419 
	C9.623259,571.917419 7.293810,572.032776 4.964360,572.094177 
	C4.643012,570.572510 4.040519,569.050903 4.040175,567.529175 
	C3.998049,380.816681 3.999882,194.104172 4.009756,7.391672 
	C4.009826,6.066692 4.151884,4.741720 4.938222,3.538433 
	C7.467248,3.773261 9.285606,3.983245 11.104154,3.984896 
	C35.265678,4.006833 59.427231,3.999553 83.588776,3.999553 
	C681.628662,3.999554 1279.668579,4.000550 1877.708496,3.964855 
	C1880.132080,3.964711 1882.555542,3.438260 1884.979126,3.157639 
M857.971375,290.977661 
	C857.971375,290.977661 857.914185,290.928802 857.681091,290.041748 
	C858.168091,281.998840 858.655151,273.955933 859.180298,265.283264 
	C847.050720,265.283264 835.917969,265.512482 824.802185,265.177765 
	C819.911743,265.030487 818.231262,266.199341 818.252747,271.468933 
	C818.459778,322.273407 818.372925,373.079041 818.392090,423.884369 
	C818.392822,425.810333 818.617554,427.736267 818.739624,429.689148 
	C833.061890,429.689148 846.815247,429.689148 861.210571,429.689148 
	C861.210571,427.433136 861.210571,425.485870 861.210571,423.538635 
	C861.210876,400.551300 861.143738,377.563721 861.241333,354.576782 
	C861.286804,343.858643 862.564758,333.305084 867.114990,323.418671 
	C872.685120,311.315979 880.263428,301.329803 894.317749,298.514465 
	C907.117798,295.950378 916.053467,302.017487 918.033447,314.835571 
	C918.766296,319.579376 919.004272,324.439789 919.017029,329.248230 
	C919.100525,360.730621 919.060486,392.213379 919.060669,423.696014 
	C919.060730,425.628296 919.060669,427.560547 919.060669,429.719269 
	C933.560669,429.719269 947.300415,429.719269 961.736694,429.719269 
	C961.736694,427.326263 961.736755,425.212189 961.736755,423.098114 
	C961.736755,389.450012 961.773010,355.801819 961.702942,322.153839 
	C961.690491,316.166473 961.588562,310.140320 960.919983,304.200531 
	C958.905273,286.302429 951.637146,271.577698 933.499329,265.385437 
	C916.610840,259.619690 899.699707,260.948944 883.389587,268.378662 
	C872.599609,273.293793 864.920959,281.729401 857.971375,290.977661 
M1203.603882,273.036896 
	C1205.327026,265.894257 1207.050171,258.751587 1208.773315,251.608948 
	C1211.369751,311.473663 1221.812378,370.235138 1228.050903,429.623901 
	C1243.190308,429.623901 1257.737427,429.623901 1272.553833,429.623901 
	C1272.283813,426.594086 1272.125244,423.951050 1271.803223,421.328156 
	C1263.197876,351.247437 1254.551636,281.171692 1246.028809,211.080963 
	C1245.608521,207.624390 1244.242065,206.680191 1240.964966,206.702393 
	C1223.466675,206.820877 1205.966675,206.834213 1188.468872,206.690735 
	C1185.210205,206.664001 1183.838379,207.869415 1182.866699,210.881088 
	C1178.879639,223.240433 1174.573242,235.496323 1170.494873,247.826828 
	C1160.770996,277.225555 1150.902832,306.579315 1141.543823,336.094238 
	C1138.558350,345.509521 1136.991699,355.374634 1134.563965,365.957825 
	C1132.375122,356.903473 1130.957031,348.657440 1128.384155,340.788879 
	C1114.155396,297.271484 1099.623779,253.853180 1085.284546,210.371735 
	C1084.406494,207.708969 1083.111450,206.696213 1080.306885,206.711777 
	C1062.808350,206.809052 1045.308594,206.814774 1027.810303,206.709167 
	C1024.706665,206.690445 1023.345398,207.684204 1023.030823,210.875366 
	C1022.230652,218.994034 1021.131409,227.083130 1020.159729,235.185013 
	C1013.179626,293.386353 1006.195374,351.587189 999.230896,409.790375 
	C998.448486,416.329224 997.779663,422.881683 997.036499,429.623962 
	C1011.362244,429.623962 1025.080078,429.623962 1039.719116,429.623962 
	C1045.378296,370.137451 1051.010254,310.938538 1056.642090,251.739609 
	C1056.830200,255.056305 1057.669434,258.570923 1058.550171,262.075134 
	C1072.612671,318.040253 1093.474121,371.839355 1110.945557,426.718445 
	C1111.854980,429.574768 1113.463379,430.071381 1116.086304,430.045105 
	C1126.751343,429.938263 1137.423096,429.812988 1148.081421,430.102600 
	C1151.865356,430.205383 1153.164551,428.666840 1154.248901,425.385620 
	C1164.124634,395.504761 1174.333984,365.733398 1184.092407,335.814758 
	C1190.801514,315.245453 1196.950439,294.493439 1203.603882,273.036896 
M1547.814697,248.331573 
	C1555.943848,234.847183 1564.072998,221.362808 1572.703613,207.046677 
	C1569.878052,206.917038 1568.126831,206.769867 1566.375366,206.767044 
	C1553.879150,206.746948 1541.378052,206.950882 1528.889160,206.648270 
	C1524.654907,206.545685 1522.313110,207.913483 1520.228516,211.562775 
	C1507.672607,233.543304 1494.883911,255.390854 1482.165283,277.278412 
	C1481.115234,279.085571 1480.006958,280.859009 1478.626831,283.142731 
	C1477.192749,280.789398 1476.134399,279.110291 1475.131714,277.398621 
	C1462.083618,255.125107 1448.992554,232.876419 1436.064941,210.533127 
	C1434.426514,207.701340 1432.586670,206.646729 1429.338989,206.686966 
	C1415.845093,206.854187 1402.347778,206.744370 1388.851807,206.774155 
	C1387.307495,206.777573 1385.763672,207.019028 1383.441040,207.216187 
	C1384.779297,209.521362 1385.647583,211.088501 1386.581421,212.615448 
	C1406.481445,245.153641 1426.285156,277.751740 1446.416382,310.146301 
	C1449.156738,314.556091 1448.892700,317.483521 1446.230347,321.709076 
	C1424.653809,355.951324 1403.333252,390.354919 1381.947876,424.717468 
	C1381.025757,426.199066 1380.231812,427.760406 1378.976685,430.001740 
	C1395.012817,430.001740 1410.137451,429.859222 1425.255981,430.100403 
	C1429.105713,430.161804 1431.194458,428.943085 1433.107544,425.623199 
	C1446.827759,401.814209 1460.753296,378.123413 1474.629761,354.404602 
	C1475.580566,352.779327 1476.663330,351.231201 1478.069946,349.049713 
	C1479.502197,351.411621 1480.458984,352.941223 1481.369385,354.497864 
	C1495.074097,377.931458 1508.848877,401.324707 1522.394043,424.850128 
	C1524.532837,428.565063 1526.731567,430.252502 1531.288208,430.136261 
	C1545.608032,429.770874 1559.942993,430.009888 1574.272095,429.991241 
	C1576.016113,429.988983 1577.759766,429.842865 1580.268188,429.728577 
	C1578.861938,427.415405 1577.886597,425.732666 1576.837646,424.097198 
	C1555.075195,390.168732 1533.451050,356.149780 1511.384277,322.420258 
	C1507.892822,317.083374 1508.108765,313.480835 1511.358032,308.295990 
	C1523.649902,288.681396 1535.443481,268.754425 1547.814697,248.331573 
M362.421814,205.723618 
	C349.363770,206.038406 336.305756,206.353180 323.362122,206.665207 
	C323.362122,281.702179 323.362122,355.698364 323.362122,429.661957 
	C337.761749,429.661957 351.679138,429.661957 366.243469,429.661957 
	C366.243469,405.778015 366.243469,382.222229 366.243469,358.792664 
	C367.339630,358.473419 367.805634,358.216644 368.267090,358.224640 
	C370.096680,358.256531 371.925598,358.357147 373.753387,358.457458 
	C389.674835,359.331299 405.354126,358.126587 420.613403,353.131683 
	C472.564240,336.126404 484.157379,284.008301 469.540070,247.589340 
	C460.130981,224.146698 440.421661,212.994110 416.655823,208.074295 
	C399.044067,204.428452 381.208893,205.161880 362.421814,205.723618 
M577.193420,464.665833 
	C580.246948,457.827850 583.736694,451.148193 586.285217,444.126923 
	C607.360901,386.062347 628.264771,327.935364 649.198608,269.819336 
	C649.623413,268.640045 649.782654,267.365112 650.035156,266.267822 
	C649.405640,265.865265 649.135254,265.541565 648.862793,265.539734 
	C635.038452,265.447205 621.213013,265.298279 607.391235,265.460205 
	C606.178223,265.474426 604.313599,267.333252 603.887939,268.691376 
	C593.485107,301.887482 583.235168,335.131470 572.963928,368.368835 
	C572.414978,370.145264 571.921631,371.938904 571.014771,375.057587 
	C570.083801,372.479706 569.664856,371.423035 569.317566,370.343292 
	C558.563293,336.913239 547.763184,303.497681 537.142944,270.025024 
	C535.979065,266.356537 534.201416,265.136780 530.404663,265.203979 
	C517.910278,265.425232 505.409454,265.273407 492.911194,265.304443 
	C491.326355,265.308380 489.742096,265.547119 487.522980,265.729095 
	C488.322388,268.186005 488.862732,270.055023 489.532959,271.876251 
	C508.220612,322.658997 526.946106,373.427917 545.546509,424.242615 
	C546.466309,426.755341 547.258484,429.967560 546.489075,432.324921 
	C544.067261,439.744263 541.351807,447.149597 537.882874,454.129395 
	C528.714172,472.577637 516.132568,478.743652 495.806915,475.463928 
	C492.583893,474.943848 489.354218,474.464874 485.648041,473.892853 
	C484.296844,485.508331 482.946014,496.559906 481.839355,507.635864 
	C481.744904,508.581360 483.172485,510.488983 484.066681,510.604401 
	C504.860260,513.288757 525.356445,513.338562 544.258362,502.325500 
	C559.204529,493.617188 568.902039,480.219727 577.193420,464.665833 
M678.924866,408.549469 
	C685.483459,417.089874 693.768738,423.401489 703.876587,427.056580 
	C729.767761,436.419098 755.626587,433.815125 781.439514,426.514313 
	C784.223206,425.727020 784.484253,423.953644 784.091980,421.552063 
	C782.723267,413.172516 781.447632,404.777740 780.079224,396.398132 
	C779.722534,394.213867 779.157043,392.063690 778.998108,391.330566 
	C767.072754,392.956848 755.980652,395.391815 744.818481,395.772247 
	C728.683716,396.322205 716.889038,386.984863 711.979248,371.682068 
	C708.394348,360.508514 708.032532,349.012115 709.659729,337.573425 
	C710.562439,331.227570 712.187866,324.711548 714.918518,318.950409 
	C722.794739,302.332642 736.620056,295.954071 755.944458,299.443146 
	C763.056030,300.727112 770.042603,302.702911 777.454529,304.449982 
	C779.649780,292.350891 781.808044,280.455475 783.999817,268.375366 
	C782.416199,267.796387 781.213135,267.279022 779.965820,266.912445 
	C765.716248,262.724426 751.135010,261.586517 736.433472,263.005432 
	C707.962891,265.753296 686.356628,279.008392 673.798462,305.345032 
	C664.642639,324.546417 662.813232,344.964264 664.498169,365.851166 
	C665.721130,381.011780 669.457031,395.388794 678.924866,408.549469 
M1351.191406,211.634857 
	C1351.856934,207.491150 1349.747314,206.634155 1346.037964,206.695694 
	C1335.047363,206.878006 1324.051636,206.745651 1313.057983,206.777588 
	C1311.467163,206.782211 1309.876831,207.013092 1308.352661,207.133987 
	C1308.352661,281.672394 1308.352661,355.672302 1308.352661,429.669250 
	C1322.740845,429.669250 1336.658569,429.669250 1351.192993,429.669250 
	C1351.192993,357.097626 1351.192993,284.854553 1351.191406,211.634857 
z"/>
<path fill="#FFFFFF" opacity="1.000000" stroke="none" 
	d="
M4.980675,572.549438 
	C7.293810,572.032776 9.623259,571.917419 11.952708,571.917419 
	C634.331482,571.909607 1256.710327,571.909790 1879.089111,571.913208 
	C1881.088013,571.913208 1883.087036,571.964233 1885.547729,572.052734 
	C1886.007202,608.437256 1886.005005,644.760437 1886.016357,681.550171 
	C1883.770142,682.311707 1881.510498,682.865112 1879.250732,682.865295 
	C1339.777466,682.902832 800.304260,682.901794 260.830994,682.901794 
	C177.668442,682.901794 94.505905,682.903320 11.343361,682.892151 
	C9.351157,682.891907 7.358972,682.748962 5.116441,682.322021 
	C4.909732,645.649170 4.953361,609.326904 4.980675,572.549438 
z"/>
<path fill="#ACDEDB" opacity="1.000000" stroke="none" 
	d="
M1884.524658,3.086791 
	C1882.555542,3.438260 1880.132080,3.964711 1877.708496,3.964855 
	C1279.668579,4.000550 681.628662,3.999554 83.588776,3.999553 
	C59.427231,3.999553 35.265678,4.006833 11.104154,3.984896 
	C9.285606,3.983245 7.467248,3.773261 5.354617,3.412829 
	C6.722747,3.110364 8.385062,3.006852 10.047379,3.006833 
	C633.721924,2.999885 1257.396484,3.000003 1881.071045,3.000664 
	C1882.070679,3.000665 1883.070435,3.010650 1884.524658,3.086791 
z"/>
<path fill="#246883" opacity="1.000000" stroke="none" 
	d="
M5.538639,1849.898926 
	C7.520152,1849.561401 9.951965,1849.035278 12.383845,1849.034912 
	C307.878876,1848.998047 603.373901,1849.000000 898.868958,1849.000000 
	C1225.030151,1849.000000 1551.191406,1848.999146 1877.352539,1849.015747 
	C1879.668823,1849.015869 1881.984985,1849.254272 1884.607666,1849.615845 
	C1882.916748,1849.900146 1880.919189,1849.993896 1878.921753,1849.993896 
	C1256.443848,1850.000122 633.965942,1850.000122 11.488075,1849.998291 
	C9.655040,1849.998291 7.822005,1849.970581 5.538639,1849.898926 
z"/>
<path fill="#FD2CD7" opacity="1.000000" stroke="none" 
	d="
M859.398926,1066.460938 
	C867.636353,1058.966675 875.629761,1051.732056 883.684143,1044.566162 
	C890.622620,1038.392944 897.690979,1032.364502 904.575378,1026.132324 
	C906.998047,1023.939270 908.782410,1020.931824 912.800720,1021.640747 
	C913.383057,1021.743469 914.610535,1021.020935 914.728027,1020.498047 
	C916.251770,1013.712463 922.235779,1012.199585 927.310364,1009.558105 
	C928.173889,1009.108521 928.801880,1008.158203 929.457947,1007.371826 
	C930.121887,1006.576050 930.589722,1005.602356 931.309631,1004.870056 
	C934.728271,1001.392700 938.133972,997.896545 941.697876,994.571655 
	C942.882935,993.465881 944.654297,993.010864 945.935730,991.982056 
	C950.600647,988.236755 955.260620,984.475220 959.744751,980.518555 
	C962.431213,978.148071 964.434509,974.894958 968.863525,975.643799 
	C969.619324,975.771545 970.633179,974.372742 972.265503,973.107300 
	C978.217590,977.757751 984.109924,982.996765 990.649902,987.236938 
	C994.677063,989.847900 999.627258,991.133911 1004.279236,992.660767 
	C1012.511475,995.362671 1017.581177,1002.025269 1022.910400,1008.026550 
	C1024.313721,1009.606873 1022.577759,1014.253540 1021.825745,1017.382141 
	C1021.213684,1019.928345 1019.933105,1022.316528 1018.920227,1024.762939 
	C1018.208069,1026.482910 1017.780823,1028.459961 1016.638855,1029.833862 
	C1014.316833,1032.627686 1011.592651,1035.086792 1009.044128,1037.693481 
	C1008.356506,1038.396973 1007.113037,1039.145752 1007.125671,1039.855957 
	C1007.289978,1049.113281 1000.860596,1054.515381 995.668213,1060.905151 
	C992.134827,1065.253174 990.353333,1070.981812 987.281921,1075.767822 
	C985.915161,1077.897583 983.300110,1079.226196 980.494934,1081.543823 
	C982.566101,1087.816895 976.946472,1091.373657 972.812378,1095.754517 
	C971.859314,1096.764404 971.325806,1098.165283 970.572876,1099.369751 
	C967.372986,1104.488647 964.168274,1109.604614 960.955139,1114.715332 
	C959.436707,1117.130493 957.895264,1119.531372 956.326721,1121.997681 
	C959.357544,1125.082031 962.344727,1128.134155 965.349304,1131.168945 
	C965.920044,1131.745483 966.631897,1132.782593 967.157410,1132.711426 
	C973.070374,1131.910278 975.109375,1137.143799 978.798706,1139.857178 
	C982.623108,1142.670044 986.807495,1144.998779 990.870117,1147.480957 
	C995.215393,1150.135742 999.535645,1152.844971 1004.004456,1155.277466 
	C1005.747498,1156.226196 1007.911682,1157.080322 1009.804016,1156.934937 
	C1013.826599,1156.626221 1016.669800,1157.885132 1019.259949,1160.981812 
	C1022.118225,1164.399048 1025.339600,1167.582153 1028.769531,1170.424561 
	C1030.742554,1172.059570 1033.437378,1172.827515 1035.820312,1173.958374 
	C1036.105957,1174.093994 1036.648315,1173.933594 1036.777832,1174.117310 
	C1039.511353,1177.996948 1044.393677,1177.979126 1047.866943,1180.259277 
	C1053.108398,1183.700195 1057.913696,1187.930298 1062.427490,1192.316040 
	C1066.222046,1196.002808 1070.585449,1198.360718 1075.165527,1200.842651 
	C1081.590942,1204.324219 1087.350342,1209.043945 1093.353638,1213.291870 
	C1098.825317,1217.163696 1104.269897,1221.075073 1109.663818,1225.053833 
	C1110.979980,1226.024780 1111.896851,1227.578613 1113.269165,1228.422119 
	C1115.509399,1229.799316 1118.018066,1230.731323 1120.326416,1232.008545 
	C1121.858521,1232.856323 1123.455811,1233.770142 1124.649414,1235.014038 
	C1129.386230,1239.950806 1134.070557,1244.645996 1140.949707,1246.922974 
	C1144.420410,1248.071655 1147.144287,1251.366455 1150.335205,1253.497314 
	C1154.292114,1256.139771 1158.502197,1258.414307 1162.371460,1261.172241 
	C1164.760742,1262.875244 1166.550781,1265.408447 1168.908813,1267.168335 
	C1172.863037,1270.119751 1177.136597,1272.641479 1181.118896,1275.558350 
	C1183.608276,1277.381592 1185.497803,1280.268311 1188.193848,1281.523315 
	C1201.277222,1287.614014 1211.173706,1297.608398 1221.435181,1307.294556 
	C1223.895142,1309.616699 1227.894775,1310.318481 1231.205811,1311.719238 
	C1231.800903,1311.971069 1232.755737,1311.767822 1233.097778,1312.162231 
	C1236.709106,1316.325073 1239.893066,1320.926514 1243.888062,1324.666504 
	C1246.791626,1327.385010 1250.703857,1329.046509 1254.227539,1331.072876 
	C1255.838989,1331.999634 1257.895386,1332.336060 1259.229736,1333.524414 
	C1262.441772,1336.384888 1265.214722,1339.735840 1268.402832,1342.626465 
	C1275.404175,1348.974487 1282.273926,1355.520508 1289.733887,1361.291992 
	C1295.221924,1365.537720 1301.734375,1368.436035 1307.441650,1372.432495 
	C1309.983032,1374.211914 1311.580811,1377.296509 1313.769775,1379.636353 
	C1315.335449,1381.309937 1317.026489,1382.952271 1318.929199,1384.200684 
	C1320.864258,1385.470337 1323.536621,1385.793335 1325.181274,1387.300171 
	C1337.517456,1398.602173 1349.624023,1410.154541 1361.915649,1421.505859 
	C1369.710327,1428.704346 1377.525024,1435.903320 1385.700073,1442.654907 
	C1388.366699,1444.857178 1392.486816,1445.222534 1395.416382,1447.204956 
	C1398.335938,1449.180908 1400.629517,1452.098999 1403.125488,1454.673706 
	C1403.889404,1455.461914 1404.238770,1457.031738 1405.080688,1457.302612 
	C1410.308105,1458.984253 1411.965454,1464.015259 1415.328125,1467.423462 
	C1418.928955,1471.072998 1424.274902,1472.939697 1428.203247,1476.341919 
	C1433.799683,1481.188965 1439.268555,1486.347656 1443.896729,1492.094238 
	C1447.340332,1496.369995 1450.964478,1500.035522 1455.710327,1502.680786 
	C1457.375854,1503.609253 1459.208130,1504.426636 1460.544067,1505.726440 
	C1467.075684,1512.082642 1473.853394,1518.253540 1479.749634,1525.167603 
	C1482.932495,1528.900024 1486.660767,1531.876221 1489.988647,1535.336426 
	C1492.060425,1537.490601 1493.250000,1540.481812 1495.273438,1542.697510 
	C1497.320068,1544.938843 1499.880249,1546.720337 1502.275269,1548.628174 
	C1502.877686,1549.108154 1503.933105,1549.109863 1504.398682,1549.656494 
	C1507.039062,1552.755737 1509.125488,1555.765991 1513.769897,1557.214111 
	C1516.391479,1558.031372 1517.411255,1564.084961 1519.083496,1567.810913 
	C1520.039185,1569.940308 1520.308350,1572.669922 1521.821289,1574.212036 
	C1536.432129,1589.103638 1551.326172,1603.717407 1565.940430,1618.605713 
	C1570.113525,1622.856689 1572.812256,1629.178711 1577.669922,1631.977783 
	C1583.906372,1635.571167 1583.769165,1642.837891 1589.090210,1646.720093 
	C1594.249268,1650.484131 1598.714966,1655.371704 1602.886475,1660.275269 
	C1609.247437,1667.751953 1615.042847,1675.706909 1621.174927,1683.381836 
	C1625.115845,1688.314209 1629.276855,1693.070557 1633.228638,1697.994507 
	C1634.073242,1699.046875 1634.439941,1700.482910 1635.026855,1701.742188 
	C1633.770630,1702.268066 1632.527100,1703.208862 1631.255981,1703.247925 
	C1625.761719,1703.416382 1620.259155,1703.339111 1614.760010,1703.303833 
	C1613.781860,1703.297607 1612.400757,1703.438354 1611.890381,1702.882446 
	C1606.725220,1697.256958 1598.921387,1697.094849 1592.803101,1693.484741 
	C1586.921997,1690.014282 1581.222046,1686.067749 1574.973633,1683.449707 
	C1570.980469,1681.776611 1566.136841,1681.730591 1561.671753,1681.713989 
	C1558.081787,1681.700684 1555.369873,1680.948486 1553.000366,1678.148804 
	C1549.889160,1674.472534 1545.650146,1673.010376 1540.985229,1671.685425 
	C1536.225708,1670.333618 1532.040771,1667.011841 1527.535889,1664.685425 
	C1525.612915,1663.692383 1523.539307,1662.972168 1521.494385,1662.238281 
	C1515.035278,1659.919678 1507.134766,1661.016479 1502.562622,1654.243408 
	C1500.178711,1650.711914 1496.883789,1649.453857 1492.733032,1650.130249 
	C1486.916016,1651.078125 1482.129761,1649.526245 1478.327271,1644.736450 
	C1477.424805,1643.599609 1475.172974,1642.869019 1473.637939,1643.008789 
	C1464.889404,1643.805176 1458.363892,1639.316162 1451.539307,1634.835693 
	C1447.253418,1632.022095 1442.109375,1630.519653 1437.360962,1628.404907 
	C1435.629639,1627.633545 1433.466187,1627.208496 1432.298096,1625.908325 
	C1428.100830,1621.236938 1421.825317,1621.760864 1416.764771,1619.286743 
	C1413.698486,1617.787354 1409.867065,1617.870728 1406.769287,1616.413940 
	C1401.333862,1613.857544 1396.480225,1609.765625 1390.854614,1607.999512 
	C1385.588745,1606.346313 1381.679321,1603.648926 1378.031738,1599.870239 
	C1377.336060,1599.149414 1375.479126,1599.271606 1374.209839,1599.427612 
	C1366.360840,1600.392212 1360.216064,1597.258545 1355.297729,1591.484375 
	C1352.640991,1588.365356 1349.771362,1586.547729 1345.479736,1587.257324 
	C1338.088135,1588.479614 1333.647217,1582.922485 1328.688110,1579.149170 
	C1325.861572,1576.998291 1323.516602,1575.546143 1319.781982,1574.951172 
	C1313.625488,1573.970703 1307.310547,1572.085083 1301.859741,1569.116821 
	C1296.554810,1566.227783 1292.043823,1561.720215 1287.572998,1557.510498 
	C1283.930176,1554.080933 1280.031738,1551.931030 1275.075928,1550.872070 
	C1271.974731,1550.209351 1269.295532,1547.665039 1266.363770,1546.082520 
	C1264.725464,1545.198364 1262.838989,1543.715454 1261.267456,1543.937988 
	C1250.678589,1545.436157 1242.973755,1540.857544 1236.485229,1533.113770 
	C1231.666626,1527.362915 1225.909790,1523.598877 1217.869751,1524.349731 
	C1216.447144,1524.482544 1214.890991,1522.739868 1213.335693,1521.989746 
	C1209.942749,1520.353149 1206.410767,1518.978516 1203.120850,1517.161621 
	C1199.391602,1515.102051 1195.752930,1512.832275 1192.291016,1510.352173 
	C1190.160034,1508.825439 1188.230225,1506.900757 1186.564575,1504.864746 
	C1182.296021,1499.646484 1176.220947,1498.941895 1170.234741,1497.882690 
	C1168.987183,1497.661865 1167.495850,1497.609375 1166.586060,1496.887695 
	C1161.642334,1492.965698 1157.029053,1488.604004 1151.921875,1484.920898 
	C1149.331909,1483.053101 1145.903809,1482.377686 1142.929199,1481.002075 
	C1141.212891,1480.208374 1139.612427,1479.143188 1138.025391,1478.100220 
	C1137.352173,1477.657837 1136.761963,1476.391479 1136.278809,1476.463989 
	C1130.721558,1477.297852 1126.793335,1474.076172 1122.666382,1471.277832 
	C1122.149780,1470.927368 1120.988403,1470.883667 1120.942993,1470.576904 
	C1119.781372,1462.734253 1111.722046,1463.439087 1107.296631,1459.654541 
	C1103.852051,1456.708984 1099.620728,1454.614868 1095.558716,1452.486694 
	C1093.211426,1451.256958 1090.554077,1450.495728 1087.948730,1449.918823 
	C1085.652588,1449.410400 1085.038818,1447.820068 1083.702148,1446.243164 
	C1080.688354,1442.687378 1076.642334,1439.398682 1072.345093,1437.677368 
	C1065.484253,1434.929199 1059.520874,1431.603027 1054.404907,1426.067627 
	C1051.823486,1423.274536 1047.240356,1422.322998 1043.541992,1420.582153 
	C1043.117310,1420.382324 1042.264771,1420.641235 1042.109741,1420.385376 
	C1038.404663,1414.266235 1030.598633,1414.210205 1026.006836,1409.450317 
	C1021.906189,1405.199585 1017.603516,1401.772461 1011.269958,1400.878418 
	C1008.710571,1400.516968 1006.729431,1396.848511 1004.227600,1395.041504 
	C1002.229553,1393.598389 999.626038,1392.979858 997.667786,1391.497803 
	C992.711304,1387.746338 987.271301,1385.917725 981.071716,1386.274170 
	C980.847839,1386.287109 980.608093,1385.833130 980.358459,1385.616699 
	C974.096008,1380.181396 967.991272,1374.546753 961.498108,1369.402466 
	C958.309387,1366.876343 954.245667,1365.486084 950.855957,1363.174316 
	C946.868652,1360.454834 943.050781,1357.444458 939.414917,1354.267700 
	C937.178894,1352.314087 935.531494,1349.830811 931.924011,1350.318970 
	C930.972290,1350.447632 929.708374,1349.195801 928.772522,1348.368774 
	C920.945007,1341.451294 913.179993,1334.463013 905.333191,1327.567749 
	C904.548218,1326.878052 903.228149,1326.128906 902.355225,1326.319214 
	C897.672119,1327.340088 894.958557,1324.563477 892.218262,1321.582275 
	C888.131531,1317.136353 883.605530,1313.547607 877.713623,1311.368896 
	C874.734070,1310.267090 872.710999,1306.698608 870.101196,1304.421997 
	C868.943176,1303.411865 867.244324,1301.994385 866.064575,1302.216309 
	C861.327637,1303.107422 858.857788,1300.146729 855.906128,1297.427979 
	C849.807129,1291.809937 843.740051,1286.088257 837.125244,1281.120972 
	C831.698914,1277.046143 825.339478,1274.235352 819.712708,1270.396484 
	C817.078369,1268.599121 815.196838,1265.698364 813.636475,1264.012939 
	C803.841736,1269.821655 794.808105,1275.126099 785.834961,1280.531006 
	C782.962891,1282.260864 780.321655,1284.374023 777.450562,1286.105835 
	C771.196106,1289.878784 764.860657,1293.517334 758.560669,1297.214966 
	C757.059326,1298.095947 755.138916,1298.658691 754.141602,1299.937378 
	C748.290039,1307.439453 739.225220,1309.695190 731.529907,1314.173584 
	C730.154907,1314.973877 728.617981,1315.670776 727.548279,1316.790405 
	C723.017517,1321.532593 718.477173,1325.699829 711.321167,1326.575684 
	C708.198669,1326.957764 705.012207,1329.790771 702.589844,1332.238159 
	C698.750488,1336.117310 694.544678,1338.984497 689.454651,1341.008423 
	C686.090759,1342.345947 683.220154,1344.924072 679.995911,1347.033569 
	C677.349304,1349.037598 674.852539,1351.573120 671.838745,1353.062378 
	C667.057739,1355.424561 663.829041,1360.529907 657.582947,1360.553223 
	C655.909485,1360.559570 654.217041,1363.490845 652.586731,1365.132446 
	C650.181458,1367.554321 648.126343,1369.721924 644.024780,1370.133545 
	C640.777466,1370.459473 637.733704,1373.643066 634.773682,1375.796875 
	C630.868896,1378.638184 627.126160,1381.703003 623.336365,1384.700195 
	C622.822998,1385.106201 622.270874,1386.181152 622.022461,1386.097412 
	C617.470032,1384.565552 612.373962,1386.980713 608.429810,1385.407227 
	C603.843689,1383.577759 600.367065,1379.107788 596.184753,1376.095093 
	C588.422852,1370.503906 580.085938,1365.634155 572.758850,1359.538086 
	C565.656433,1353.628784 559.376770,1346.691772 553.046143,1339.916260 
	C551.005310,1337.731934 553.182434,1329.241943 556.560730,1326.100464 
	C559.458923,1323.405396 563.163635,1321.595825 566.204041,1319.030273 
	C569.132446,1316.559082 571.623108,1313.575928 574.391479,1310.906128 
	C575.865723,1309.484497 577.599854,1308.332764 579.076111,1306.912964 
	C581.568115,1304.516357 583.981079,1302.034058 586.350098,1299.515381 
	C586.871216,1298.961426 586.884521,1297.871216 587.446716,1297.423706 
	C591.601685,1294.117188 595.956909,1291.053345 600.005859,1287.625854 
	C602.934937,1285.146240 605.396118,1282.120972 608.252258,1279.545654 
	C609.718750,1278.223511 611.673950,1277.461060 613.271057,1276.262939 
	C631.151672,1262.848877 645.537354,1245.748169 661.622009,1230.437622 
	C669.421265,1223.013672 677.552795,1215.933716 685.647034,1208.827026 
	C690.264587,1204.772705 695.080750,1200.941895 699.862671,1197.078857 
	C703.230347,1194.358276 706.808899,1191.888672 710.075684,1189.056030 
	C713.131470,1186.406494 713.008301,1183.472290 710.089722,1180.612793 
	C707.015015,1177.600464 704.133240,1174.382080 700.954529,1171.487183 
	C697.035095,1167.917480 694.919739,1163.337646 692.378296,1158.821655 
	C689.949585,1154.506104 685.324036,1151.489624 682.119141,1147.533447 
	C677.281555,1141.562256 672.888306,1135.232910 668.199036,1129.138306 
	C666.795776,1127.314575 664.820129,1125.919922 663.483948,1124.058105 
	C660.986389,1120.578125 658.767517,1116.898315 656.427612,1113.304810 
	C654.343445,1110.104126 652.644714,1106.545288 650.088318,1103.780151 
	C643.351135,1096.492188 638.543457,1088.115845 634.495361,1079.153687 
	C634.012817,1078.085327 631.606079,1077.441040 630.096558,1077.450684 
	C629.211609,1077.456177 627.888245,1078.998169 627.531677,1080.098389 
	C625.390259,1086.706421 624.466675,1093.807983 619.119568,1099.012207 
	C617.557739,1100.532349 616.356689,1102.427979 614.770752,1103.917603 
	C611.238098,1107.235596 607.904175,1106.591675 603.829224,1104.135986 
	C599.845398,1101.735107 594.892090,1100.995117 590.696228,1098.870605 
	C588.826050,1097.923706 586.763794,1095.485718 586.539001,1093.523804 
	C585.954712,1088.424438 585.085510,1082.817261 586.571045,1078.121582 
	C591.211609,1063.453491 587.515259,1048.590698 588.787903,1033.899170 
	C589.009094,1031.345093 587.979248,1030.318115 585.569885,1028.518311 
	C576.713684,1021.902832 568.747437,1014.095947 560.446228,1006.737488 
	C561.184875,999.636169 554.007751,998.847900 550.844238,994.855896 
	C546.480225,989.349121 540.082092,986.387695 534.359070,982.522766 
	C529.968567,979.557556 527.076965,974.387207 523.472534,970.237793 
	C521.645996,968.135071 519.970825,965.784912 517.783630,964.134521 
	C512.686340,960.288208 507.319580,956.799011 502.063446,953.163025 
	C496.817017,949.533813 492.031525,944.516174 486.221039,942.590942 
	C477.141937,939.582825 471.233032,932.976868 464.205200,927.491028 
	C460.487915,924.589294 455.957062,922.750610 451.904144,920.252502 
	C447.578766,917.586609 442.947479,915.185059 439.250061,911.795227 
	C435.248627,908.126587 431.101501,905.210632 426.111267,903.018616 
	C422.374878,901.377380 419.304321,898.259277 415.846985,895.932983 
	C412.163452,893.454407 408.351135,891.168091 404.637054,888.733826 
	C401.439362,886.638000 398.355347,884.365601 395.124084,882.324890 
	C389.483368,878.762451 383.674866,875.458130 378.125641,871.761902 
	C375.573395,870.062012 373.515167,867.635132 371.144714,865.642822 
	C369.352966,864.136841 365.730591,864.627991 365.975128,860.769165 
	C365.991241,860.514954 363.505951,860.413940 362.554260,859.728088 
	C359.746338,857.704590 355.636292,855.872864 354.806488,853.128296 
	C353.769043,849.696838 352.192566,843.876221 356.905731,841.975647 
	C360.974091,840.335083 366.614319,839.770447 370.576355,841.291443 
	C378.208405,844.221313 385.256195,848.777161 392.325439,853.026062 
	C396.015717,855.244080 398.917999,859.804016 402.732208,860.582642 
	C412.349396,862.545898 416.420410,872.517578 425.810211,874.868469 
	C430.078461,875.937073 433.311066,880.754211 437.285217,883.473999 
	C443.712982,887.873047 450.373779,891.930786 456.911316,896.171021 
	C457.722778,896.697327 458.322876,897.544067 459.122498,898.095032 
	C464.111633,901.532898 469.163757,904.880127 474.129242,908.351501 
	C480.030121,912.476746 485.780609,916.822021 491.754822,920.835938 
	C496.493042,924.019287 501.470032,926.847351 506.341644,929.832092 
	C507.553223,930.574463 508.782745,931.288696 509.977539,932.057068 
	C513.857239,934.552124 517.721069,937.071960 521.604797,939.560608 
	C521.867310,939.728821 522.455505,939.622742 522.537964,939.804749 
	C527.078064,949.825684 540.892822,948.076782 545.537231,957.937988 
	C552.541870,958.288330 555.975830,963.870239 560.550171,967.900208 
	C561.648621,968.868042 564.044250,968.483032 565.846436,968.509460 
	C570.511597,968.577942 575.178711,968.499939 579.844421,968.547668 
	C580.982239,968.559387 582.264343,968.539490 583.229492,969.028564 
	C588.631836,971.766296 588.781616,971.723083 588.798462,965.881042 
	C588.809570,962.048096 589.283997,958.139771 588.700378,954.397827 
	C587.477051,946.553467 585.433105,938.835938 584.241821,930.988098 
	C583.598511,926.749756 584.462280,922.286560 583.854370,918.038147 
	C582.961975,911.800842 581.360657,905.664917 579.940430,898.910583 
	C580.196899,898.429077 581.001343,897.220642 581.516113,895.899414 
	C583.603394,890.541626 587.717712,889.882507 592.247803,893.315430 
	C598.197693,897.824158 604.733154,901.553589 610.885742,905.807739 
	C611.994568,906.574341 612.594666,908.197876 613.215149,909.525940 
	C614.804077,912.927002 616.994873,916.255310 617.637024,919.846558 
	C618.944519,927.158630 618.854675,934.737122 620.376221,941.988586 
	C621.426453,946.993469 624.201416,951.639160 626.239136,956.431152 
	C626.548401,957.158508 627.323669,957.776611 627.404236,958.498718 
	C628.284607,966.391418 628.938232,974.311157 629.929688,982.188843 
	C630.528564,986.947388 630.995056,991.890320 632.736328,996.266907 
	C633.609314,998.461365 637.134399,999.684143 639.577271,1001.151184 
	C643.318237,1003.397827 647.113464,1004.942139 651.792603,1005.023865 
	C655.751831,1005.093079 659.677856,1007.123779 663.616272,1008.294067 
	C665.122803,1008.741699 667.401245,1010.073303 668.001404,1009.531799 
	C672.283386,1005.668457 676.270020,1009.272705 680.338867,1009.624756 
	C681.122314,1009.692566 682.281494,1009.845642 682.583862,1010.360657 
	C685.684265,1015.640747 690.806641,1014.072571 695.460266,1014.518616 
	C701.367004,1015.084717 708.817383,1014.262512 712.717651,1017.506897 
	C718.212646,1022.077576 723.998047,1020.142883 729.115784,1022.112305 
	C733.866882,1023.940613 738.986694,1022.518005 742.792114,1024.446045 
	C747.787720,1026.977173 754.256836,1024.645264 758.339294,1030.199341 
	C759.909302,1032.335205 763.915527,1033.014771 766.959656,1033.658936 
	C772.291443,1034.787231 777.858887,1034.923340 783.098877,1036.328003 
	C787.639709,1037.545288 792.068115,1039.585083 796.171509,1041.919922 
	C800.474548,1044.368408 804.589600,1046.516968 809.776978,1045.992188 
	C811.130615,1045.855225 812.639893,1047.072876 814.051208,1047.725586 
	C817.897461,1049.504150 821.733521,1051.305176 825.566467,1053.112427 
	C829.453796,1054.945435 833.294434,1056.882935 837.224670,1058.618042 
	C842.404541,1060.904785 847.636414,1063.076660 852.878174,1065.219116 
	C854.885925,1066.039673 856.292175,1069.524170 859.398926,1066.460938 
z"/>
<path fill="#FEFFFF" opacity="1.000000" stroke="none" 
	d="
M1203.476807,273.429993 
	C1196.950439,294.493439 1190.801514,315.245453 1184.092407,335.814758 
	C1174.333984,365.733398 1164.124634,395.504761 1154.248901,425.385620 
	C1153.164551,428.666840 1151.865356,430.205383 1148.081421,430.102600 
	C1137.423096,429.812988 1126.751343,429.938263 1116.086304,430.045105 
	C1113.463379,430.071381 1111.854980,429.574768 1110.945557,426.718445 
	C1093.474121,371.839355 1072.612671,318.040253 1058.550171,262.075134 
	C1057.669434,258.570923 1056.830200,255.056305 1056.642090,251.739609 
	C1051.010254,310.938538 1045.378296,370.137451 1039.719116,429.623962 
	C1025.080078,429.623962 1011.362244,429.623962 997.036499,429.623962 
	C997.779663,422.881683 998.448486,416.329224 999.230896,409.790375 
	C1006.195374,351.587189 1013.179626,293.386353 1020.159729,235.185013 
	C1021.131409,227.083130 1022.230652,218.994034 1023.030823,210.875366 
	C1023.345398,207.684204 1024.706665,206.690445 1027.810303,206.709167 
	C1045.308594,206.814774 1062.808350,206.809052 1080.306885,206.711777 
	C1083.111450,206.696213 1084.406494,207.708969 1085.284546,210.371735 
	C1099.623779,253.853180 1114.155396,297.271484 1128.384155,340.788879 
	C1130.957031,348.657440 1132.375122,356.903473 1134.563965,365.957825 
	C1136.991699,355.374634 1138.558350,345.509521 1141.543823,336.094238 
	C1150.902832,306.579315 1160.770996,277.225555 1170.494873,247.826828 
	C1174.573242,235.496323 1178.879639,223.240433 1182.866699,210.881088 
	C1183.838379,207.869415 1185.210205,206.664001 1188.468872,206.690735 
	C1205.966675,206.834213 1223.466675,206.820877 1240.964966,206.702393 
	C1244.242065,206.680191 1245.608521,207.624390 1246.028809,211.080963 
	C1254.551636,281.171692 1263.197876,351.247437 1271.803223,421.328156 
	C1272.125244,423.951050 1272.283813,426.594086 1272.553833,429.623901 
	C1257.737427,429.623901 1243.190308,429.623901 1228.050903,429.623901 
	C1221.812378,370.235138 1211.369751,311.473663 1208.773315,251.608948 
	C1207.050171,258.751587 1205.327026,265.894257 1203.476807,273.429993 
z"/>
<path fill="#FEFFFF" opacity="1.000000" stroke="none" 
	d="
M1547.619141,248.637970 
	C1535.443481,268.754425 1523.649902,288.681396 1511.358032,308.295990 
	C1508.108765,313.480835 1507.892822,317.083374 1511.384277,322.420258 
	C1533.451050,356.149780 1555.075195,390.168732 1576.837646,424.097198 
	C1577.886597,425.732666 1578.861938,427.415405 1580.268188,429.728577 
	C1577.759766,429.842865 1576.016113,429.988983 1574.272095,429.991241 
	C1559.942993,430.009888 1545.608032,429.770874 1531.288208,430.136261 
	C1526.731567,430.252502 1524.532837,428.565063 1522.394043,424.850128 
	C1508.848877,401.324707 1495.074097,377.931458 1481.369385,354.497864 
	C1480.458984,352.941223 1479.502197,351.411621 1478.069946,349.049713 
	C1476.663330,351.231201 1475.580566,352.779327 1474.629761,354.404602 
	C1460.753296,378.123413 1446.827759,401.814209 1433.107544,425.623199 
	C1431.194458,428.943085 1429.105713,430.161804 1425.255981,430.100403 
	C1410.137451,429.859222 1395.012817,430.001740 1378.976685,430.001740 
	C1380.231812,427.760406 1381.025757,426.199066 1381.947876,424.717468 
	C1403.333252,390.354919 1424.653809,355.951324 1446.230347,321.709076 
	C1448.892700,317.483521 1449.156738,314.556091 1446.416382,310.146301 
	C1426.285156,277.751740 1406.481445,245.153641 1386.581421,212.615448 
	C1385.647583,211.088501 1384.779297,209.521362 1383.441040,207.216187 
	C1385.763672,207.019028 1387.307495,206.777573 1388.851807,206.774155 
	C1402.347778,206.744370 1415.845093,206.854187 1429.338989,206.686966 
	C1432.586670,206.646729 1434.426514,207.701340 1436.064941,210.533127 
	C1448.992554,232.876419 1462.083618,255.125107 1475.131714,277.398621 
	C1476.134399,279.110291 1477.192749,280.789398 1478.626831,283.142731 
	C1480.006958,280.859009 1481.115234,279.085571 1482.165283,277.278412 
	C1494.883911,255.390854 1507.672607,233.543304 1520.228516,211.562775 
	C1522.313110,207.913483 1524.654907,206.545685 1528.889160,206.648270 
	C1541.378052,206.950882 1553.879150,206.746948 1566.375366,206.767044 
	C1568.126831,206.769867 1569.878052,206.917038 1572.703613,207.046677 
	C1564.072998,221.362808 1555.943848,234.847183 1547.619141,248.637970 
z"/>
<path fill="#FEFFFF" opacity="1.000000" stroke="none" 
	d="
M362.908691,205.717407 
	C381.208893,205.161880 399.044067,204.428452 416.655823,208.074295 
	C440.421661,212.994110 460.130981,224.146698 469.540070,247.589340 
	C484.157379,284.008301 472.564240,336.126404 420.613403,353.131683 
	C405.354126,358.126587 389.674835,359.331299 373.753387,358.457458 
	C371.925598,358.357147 370.096680,358.256531 368.267090,358.224640 
	C367.805634,358.216644 367.339630,358.473419 366.243469,358.792664 
	C366.243469,382.222229 366.243469,405.778015 366.243469,429.661957 
	C351.679138,429.661957 337.761749,429.661957 323.362122,429.661957 
	C323.362122,355.698364 323.362122,281.702179 323.362122,206.665207 
	C336.305756,206.353180 349.363770,206.038406 362.908691,205.717407 
M416.544708,313.075378 
	C430.111511,301.165039 432.531067,286.000183 428.581421,269.430298 
	C425.173584,255.133408 415.552826,246.117767 401.337982,243.471634 
	C391.474701,241.635544 381.195862,242.070251 371.111633,241.363220 
	C367.122467,241.083527 366.083160,242.789673 366.113770,246.607224 
	C366.275116,266.732880 366.188782,286.860535 366.188568,306.987488 
	C366.188416,322.133118 366.184967,322.254517 381.606018,322.706970 
	C393.932495,323.068573 405.883362,321.652161 416.544708,313.075378 
z"/>
<path fill="#FEFFFF" opacity="1.000000" stroke="none" 
	d="
M577.042236,465.004242 
	C568.902039,480.219727 559.204529,493.617188 544.258362,502.325500 
	C525.356445,513.338562 504.860260,513.288757 484.066681,510.604401 
	C483.172485,510.488983 481.744904,508.581360 481.839355,507.635864 
	C482.946014,496.559906 484.296844,485.508331 485.648041,473.892853 
	C489.354218,474.464874 492.583893,474.943848 495.806915,475.463928 
	C516.132568,478.743652 528.714172,472.577637 537.882874,454.129395 
	C541.351807,447.149597 544.067261,439.744263 546.489075,432.324921 
	C547.258484,429.967560 546.466309,426.755341 545.546509,424.242615 
	C526.946106,373.427917 508.220612,322.658997 489.532959,271.876251 
	C488.862732,270.055023 488.322388,268.186005 487.522980,265.729095 
	C489.742096,265.547119 491.326355,265.308380 492.911194,265.304443 
	C505.409454,265.273407 517.910278,265.425232 530.404663,265.203979 
	C534.201416,265.136780 535.979065,266.356537 537.142944,270.025024 
	C547.763184,303.497681 558.563293,336.913239 569.317566,370.343292 
	C569.664856,371.423035 570.083801,372.479706 571.014771,375.057587 
	C571.921631,371.938904 572.414978,370.145264 572.963928,368.368835 
	C583.235168,335.131470 593.485107,301.887482 603.887939,268.691376 
	C604.313599,267.333252 606.178223,265.474426 607.391235,265.460205 
	C621.213013,265.298279 635.038452,265.447205 648.862793,265.539734 
	C649.135254,265.541565 649.405640,265.865265 650.035156,266.267822 
	C649.782654,267.365112 649.623413,268.640045 649.198608,269.819336 
	C628.264771,327.935364 607.360901,386.062347 586.285217,444.126923 
	C583.736694,451.148193 580.246948,457.827850 577.042236,465.004242 
z"/>
<path fill="#FDFEFE" opacity="1.000000" stroke="none" 
	d="
M858.027893,291.027191 
	C864.920959,281.729401 872.599609,273.293793 883.389587,268.378662 
	C899.699707,260.948944 916.610840,259.619690 933.499329,265.385437 
	C951.637146,271.577698 958.905273,286.302429 960.919983,304.200531 
	C961.588562,310.140320 961.690491,316.166473 961.702942,322.153839 
	C961.773010,355.801819 961.736755,389.450012 961.736755,423.098114 
	C961.736755,425.212189 961.736694,427.326263 961.736694,429.719269 
	C947.300415,429.719269 933.560669,429.719269 919.060669,429.719269 
	C919.060669,427.560547 919.060730,425.628296 919.060669,423.696014 
	C919.060486,392.213379 919.100525,360.730621 919.017029,329.248230 
	C919.004272,324.439789 918.766296,319.579376 918.033447,314.835571 
	C916.053467,302.017487 907.117798,295.950378 894.317749,298.514465 
	C880.263428,301.329803 872.685120,311.315979 867.114990,323.418671 
	C862.564758,333.305084 861.286804,343.858643 861.241333,354.576782 
	C861.143738,377.563721 861.210876,400.551300 861.210571,423.538635 
	C861.210571,425.485870 861.210571,427.433136 861.210571,429.689148 
	C846.815247,429.689148 833.061890,429.689148 818.739624,429.689148 
	C818.617554,427.736267 818.392822,425.810333 818.392090,423.884369 
	C818.372925,373.079041 818.459778,322.273407 818.252747,271.468933 
	C818.231262,266.199341 819.911743,265.030487 824.802185,265.177765 
	C835.917969,265.512482 847.050720,265.283264 859.180298,265.283264 
	C858.655151,273.955933 858.168091,281.998840 857.600464,290.538483 
	C857.489380,291.313843 857.458862,291.592499 857.428345,291.871124 
	C857.628174,291.589813 857.828064,291.308502 858.027893,291.027191 
z"/>
<path fill="#FEFFFF" opacity="1.000000" stroke="none" 
	d="
M678.715515,408.260742 
	C669.457031,395.388794 665.721130,381.011780 664.498169,365.851166 
	C662.813232,344.964264 664.642639,324.546417 673.798462,305.345032 
	C686.356628,279.008392 707.962891,265.753296 736.433472,263.005432 
	C751.135010,261.586517 765.716248,262.724426 779.965820,266.912445 
	C781.213135,267.279022 782.416199,267.796387 783.999817,268.375366 
	C781.808044,280.455475 779.649780,292.350891 777.454529,304.449982 
	C770.042603,302.702911 763.056030,300.727112 755.944458,299.443146 
	C736.620056,295.954071 722.794739,302.332642 714.918518,318.950409 
	C712.187866,324.711548 710.562439,331.227570 709.659729,337.573425 
	C708.032532,349.012115 708.394348,360.508514 711.979248,371.682068 
	C716.889038,386.984863 728.683716,396.322205 744.818481,395.772247 
	C755.980652,395.391815 767.072754,392.956848 778.998108,391.330566 
	C779.157043,392.063690 779.722534,394.213867 780.079224,396.398132 
	C781.447632,404.777740 782.723267,413.172516 784.091980,421.552063 
	C784.484253,423.953644 784.223206,425.727020 781.439514,426.514313 
	C755.626587,433.815125 729.767761,436.419098 703.876587,427.056580 
	C693.768738,423.401489 685.483459,417.089874 678.715515,408.260742 
z"/>
<path fill="#FFFFFF" opacity="1.000000" stroke="none" 
	d="
M1351.192139,212.123184 
	C1351.192993,284.854553 1351.192993,357.097626 1351.192993,429.669250 
	C1336.658569,429.669250 1322.740845,429.669250 1308.352661,429.669250 
	C1308.352661,355.672302 1308.352661,281.672394 1308.352661,207.133987 
	C1309.876831,207.013092 1311.467163,206.782211 1313.057983,206.777588 
	C1324.051636,206.745651 1335.047363,206.878006 1346.037964,206.695694 
	C1349.747314,206.634155 1351.856934,207.491150 1351.192139,212.123184 
z"/>
<path fill="#69C3C1" opacity="1.000000" stroke="none" 
	d="
M416.263611,313.293152 
	C405.883362,321.652161 393.932495,323.068573 381.606018,322.706970 
	C366.184967,322.254517 366.188416,322.133118 366.188568,306.987488 
	C366.188782,286.860535 366.275116,266.732880 366.113770,246.607224 
	C366.083160,242.789673 367.122467,241.083527 371.111633,241.363220 
	C381.195862,242.070251 391.474701,241.635544 401.337982,243.471634 
	C415.552826,246.117767 425.173584,255.133408 428.581421,269.430298 
	C432.531067,286.000183 430.111511,301.165039 416.263611,313.293152 
z"/>
<path fill="#67C2C0" opacity="1.000000" stroke="none" 
	d="
M857.999634,291.002441 
	C857.828064,291.308502 857.628174,291.589813 857.428345,291.871124 
	C857.458862,291.592499 857.489380,291.313843 857.717041,290.981995 
	C857.914185,290.928802 857.971375,290.977661 857.999634,291.002441 
z"/>
</svg>