<svg version="1.1" id="Layer_1" xmlns="http://www.w3.org/2000/svg" xmlns:xlink="http://www.w3.org/1999/xlink" x="0px" y="0px"
	 width="100%" viewBox="0 0 524 524" enable-background="new 0 0 524 524" xml:space="preserve">
<path fill="#3772B6" opacity="1.000000" stroke="none" 
	d="
M525.000000,141.000000 
	C525.000000,268.939575 525.000000,396.879150 525.000000,525.000000 
	C350.975952,525.000000 176.951859,525.000000 2.463706,524.533020 
	C2.016146,396.418549 2.032648,268.771088 2.505070,141.054962 
	C91.716019,140.975464 180.471054,140.954514 269.226074,140.956619 
	C354.484039,140.958649 439.742035,140.984558 525.000000,141.000000 
M351.355499,204.190094 
	C360.726044,219.919083 370.055115,235.673172 379.534332,251.336395 
	C380.437622,252.828979 382.215607,254.675690 383.697205,254.778625 
	C389.458252,255.178848 395.263611,254.941666 401.319153,254.941666 
	C401.319153,223.232864 401.319153,192.018890 401.319153,160.662537 
	C394.939178,160.662537 388.914886,160.662537 382.278534,160.662537 
	C382.278534,181.584152 382.278534,202.098495 382.278534,222.612839 
	C380.360016,221.380310 379.350677,219.957336 378.463409,218.461914 
	C367.677368,200.283020 356.934814,182.078201 346.087616,163.935959 
	C345.231232,162.503616 343.739441,160.520676 342.442169,160.441330 
	C336.372528,160.070023 330.267578,160.276459 324.090881,160.276459 
	C324.090881,192.176239 324.090881,223.411835 324.090881,254.584839 
	C330.498627,254.584839 336.573486,254.584839 343.061554,254.584839 
	C343.061554,233.506042 343.061554,212.789017 343.061554,192.071991 
	C343.340851,191.985153 343.620178,191.898315 343.899475,191.811462 
	C346.264893,195.726410 348.630280,199.641373 351.355499,204.190094 
M254.383347,168.041534 
	C236.157074,157.095413 213.434921,163.954361 205.602905,183.573883 
	C198.516129,201.326584 198.364532,219.761475 204.773911,237.786804 
	C209.991333,252.459885 222.994934,259.611450 238.915833,257.766998 
	C254.475494,255.964340 264.537079,246.033615 266.692719,230.351334 
	C269.427856,210.453110 256.946503,195.186981 237.390747,195.459564 
	C231.568893,195.540726 225.780304,198.008911 220.109863,199.351791 
	C219.777252,188.730515 224.150497,180.014526 231.149429,178.216888 
	C238.124268,176.425430 242.533890,178.827927 246.455750,186.564270 
	C252.223175,186.564270 257.990601,186.564270 264.178223,186.564270 
	C264.090149,178.756378 260.803497,172.984711 254.383347,168.041534 
M171.203156,220.704651 
	C175.222809,217.226044 179.676025,214.134293 183.185760,210.200714 
	C197.117157,194.586975 189.518707,169.521454 169.299240,164.492004 
	C164.545837,163.309616 159.352051,162.939621 154.472275,163.393555 
	C135.991257,165.112701 124.949158,178.062225 126.633904,195.714020 
	C132.009171,195.714020 137.414703,195.714020 142.772980,195.714020 
	C143.287994,192.935806 143.528259,190.249802 144.301559,187.727173 
	C146.680557,179.966614 155.124649,176.434814 163.515778,179.525589 
	C170.246246,182.004684 173.216583,189.771988 169.940384,197.016281 
	C168.865067,199.394028 167.407547,201.850204 165.484100,203.542160 
	C161.132080,207.370422 156.372177,210.733688 151.794861,214.307465 
	C146.169922,218.699203 140.147324,222.683929 135.044632,227.618134 
	C127.528046,234.886536 124.518829,244.201248 124.867935,254.763885 
	C146.389999,254.763885 167.455231,254.763885 188.752808,254.763885 
	C188.752808,249.622269 188.752808,244.724991 188.752808,239.263580 
	C181.723190,239.263580 174.940353,239.263596 168.157516,239.263596 
	C161.492447,239.263596 154.827393,239.263580 148.162323,239.263580 
	C147.924362,238.565414 147.686401,237.867264 147.448441,237.169098 
	C155.167465,231.811005 162.886490,226.452911 171.203156,220.704651 
M308.309021,191.706482 
	C313.191162,184.236710 313.329834,176.628967 308.285492,169.314621 
	C303.608185,162.532501 296.846527,159.842834 288.711487,161.248413 
	C281.103333,162.562927 275.034973,168.794693 273.408936,176.539520 
	C271.613251,185.092361 275.844879,193.904037 283.660645,197.886917 
	C291.838196,202.054169 300.650421,200.023315 308.309021,191.706482 
z"/>
<path fill="#63B5AD" opacity="1.000000" stroke="none" 
	d="
M525.000000,3.000000 
	C525.000000,44.354229 525.000000,85.708458 524.536865,127.560486 
	C351.391998,128.065002 178.710251,128.072144 6.028503,128.071045 
	C4.699711,128.071030 3.370919,127.958572 2.032419,127.436874 
	C2.028896,85.676407 2.035082,44.377689 2.501465,3.011943 
	C4.126931,2.923757 5.292198,2.884083 6.457467,2.884063 
	C177.807617,2.881207 349.157776,2.880921 520.507935,2.886033 
	C522.005310,2.886078 523.502625,2.960372 525.000000,3.000000 
z"/>
<path fill="#FCFDFD" opacity="1.000000" stroke="none" 
	d="
M2.042128,127.898621 
	C3.370919,127.958572 4.699711,128.071030 6.028503,128.071045 
	C178.710251,128.072144 351.391998,128.065002 524.536865,128.029144 
	C525.000000,132.025894 525.000000,136.051788 525.000000,140.538849 
	C439.742035,140.984558 354.484039,140.958649 269.226074,140.956619 
	C180.471054,140.954514 91.716019,140.975464 2.246184,140.995178 
	C1.354251,141.002686 1.177126,141.001343 1.000000,141.000000 
	C1.000000,136.974106 1.000000,132.948212 1.262746,128.458572 
	C1.697704,127.962769 1.869916,127.930695 2.042128,127.898621 
z"/>
<path fill="#E5F2F1" opacity="1.000000" stroke="none" 
	d="
M525.000000,2.500000 
	C523.502625,2.960372 522.005310,2.886078 520.507935,2.886033 
	C349.157776,2.880921 177.807617,2.881207 6.457467,2.884063 
	C5.292198,2.884083 4.126931,2.923757 2.242276,2.977247 
	C1.348592,3.006386 1.174296,3.003193 1.000000,3.000000 
	C1.333333,2.333333 1.548027,1.216341 2.023962,1.090954 
	C3.114909,0.803541 4.333333,1.000000 5.500000,1.000000 
	C177.166672,1.000000 348.833344,0.997452 520.500000,1.041363 
	C522.000061,1.041746 523.500000,1.666667 525.000000,2.500000 
z"/>
<path fill="#6E99CA" opacity="1.000000" stroke="none" 
	d="
M1.000000,141.466980 
	C1.177126,141.001343 1.354251,141.002686 1.790263,141.063812 
	C2.032648,268.771088 2.016146,396.418549 1.999822,524.533020 
	C1.666666,523.668518 1.042765,522.337341 1.041736,521.005554 
	C0.993771,458.909119 1.000000,396.812653 1.000000,334.716156 
	C1.000000,270.455414 1.000000,206.194687 1.000000,141.466980 
z"/>
<path fill="#8EC9C4" opacity="1.000000" stroke="none" 
	d="
M1.000000,3.468657 
	C1.174296,3.003193 1.348592,3.006386 1.782078,3.044275 
	C2.035082,44.377689 2.028896,85.676407 2.032419,127.436874 
	C1.869916,127.930695 1.697704,127.962769 1.262746,127.997421 
	C1.000000,86.645775 1.000000,45.291542 1.000000,3.468657 
z"/>
<path fill="#FBFCFD" opacity="1.000000" stroke="none" 
	d="
M351.175598,203.873199 
	C348.630280,199.641373 346.264893,195.726410 343.899475,191.811462 
	C343.620178,191.898315 343.340851,191.985153 343.061554,192.071991 
	C343.061554,212.789017 343.061554,233.506042 343.061554,254.584839 
	C336.573486,254.584839 330.498627,254.584839 324.090881,254.584839 
	C324.090881,223.411835 324.090881,192.176239 324.090881,160.276459 
	C330.267578,160.276459 336.372528,160.070023 342.442169,160.441330 
	C343.739441,160.520676 345.231232,162.503616 346.087616,163.935959 
	C356.934814,182.078201 367.677368,200.283020 378.463409,218.461914 
	C379.350677,219.957336 380.360016,221.380310 382.278534,222.612839 
	C382.278534,202.098495 382.278534,181.584152 382.278534,160.662537 
	C388.914886,160.662537 394.939178,160.662537 401.319153,160.662537 
	C401.319153,192.018890 401.319153,223.232864 401.319153,254.941666 
	C395.263611,254.941666 389.458252,255.178848 383.697205,254.778625 
	C382.215607,254.675690 380.437622,252.828979 379.534332,251.336395 
	C370.055115,235.673172 360.726044,219.919083 351.175598,203.873199 
z"/>
<path fill="#FCFDFE" opacity="1.000000" stroke="none" 
	d="
M254.677521,168.253448 
	C260.803497,172.984711 264.090149,178.756378 264.178223,186.564270 
	C257.990601,186.564270 252.223175,186.564270 246.454010,186.559296 
	C242.533890,178.827927 238.124268,176.425430 231.149429,178.216888 
	C224.150497,180.014526 219.777252,188.730515 220.109863,199.351791 
	C225.780304,198.008911 231.568893,195.540726 237.390747,195.459564 
	C256.946503,195.186981 269.427856,210.453110 266.692719,230.351334 
	C264.537079,246.033615 254.475494,255.964340 238.915833,257.766998 
	C222.994934,259.611450 209.991333,252.459885 204.773911,237.786804 
	C198.364532,219.761475 198.516129,201.326584 205.602905,183.573883 
	C213.434921,163.954361 236.157074,157.095413 254.677521,168.253448 
M248.000595,225.573059 
	C247.857468,218.994431 246.032104,213.364426 239.148392,210.936523 
	C231.142609,208.112854 223.363556,211.581573 220.796951,218.956329 
	C217.423126,228.650528 221.548416,239.428879 229.638184,242.056290 
	C239.980377,245.415237 247.291718,239.201065 248.000595,225.573059 
z"/>
<path fill="#FCFDFE" opacity="1.000000" stroke="none" 
	d="
M170.904327,220.899719 
	C162.886490,226.452911 155.167465,231.811005 147.448441,237.169098 
	C147.686401,237.867264 147.924362,238.565414 148.162323,239.263580 
	C154.827393,239.263580 161.492447,239.263596 168.157516,239.263596 
	C174.940353,239.263596 181.723190,239.263580 188.752808,239.263580 
	C188.752808,244.724991 188.752808,249.622269 188.752808,254.763885 
	C167.455231,254.763885 146.389999,254.763885 124.867935,254.763885 
	C124.518829,244.201248 127.528046,234.886536 135.044632,227.618134 
	C140.147324,222.683929 146.169922,218.699203 151.794861,214.307465 
	C156.372177,210.733688 161.132080,207.370422 165.484100,203.542160 
	C167.407547,201.850204 168.865067,199.394028 169.940384,197.016281 
	C173.216583,189.771988 170.246246,182.004684 163.515778,179.525589 
	C155.124649,176.434814 146.680557,179.966614 144.301559,187.727173 
	C143.528259,190.249802 143.287994,192.935806 142.772980,195.714020 
	C137.414703,195.714020 132.009171,195.714020 126.633904,195.714020 
	C124.949158,178.062225 135.991257,165.112701 154.472275,163.393555 
	C159.352051,162.939621 164.545837,163.309616 169.299240,164.492004 
	C189.518707,169.521454 197.117157,194.586975 183.185760,210.200714 
	C179.676025,214.134293 175.222809,217.226044 170.904327,220.899719 
z"/>
<path fill="#F9FAFD" opacity="1.000000" stroke="none" 
	d="
M308.098022,192.005127 
	C300.650421,200.023315 291.838196,202.054169 283.660645,197.886917 
	C275.844879,193.904037 271.613251,185.092361 273.408936,176.539520 
	C275.034973,168.794693 281.103333,162.562927 288.711487,161.248413 
	C296.846527,159.842834 303.608185,162.532501 308.285492,169.314621 
	C313.329834,176.628967 313.191162,184.236710 308.098022,192.005127 
M281.118927,182.097549 
	C283.941010,191.054474 292.522949,194.525818 299.124969,189.380920 
	C303.152588,186.242218 304.606384,180.613754 302.597260,175.937897 
	C300.613373,171.320786 295.337646,168.568115 290.338623,169.541885 
	C284.627258,170.654434 281.514832,174.595688 281.118927,182.097549 
z"/>
<path fill="#3B75B7" opacity="1.000000" stroke="none" 
	d="
M248.000366,226.011414 
	C247.291718,239.201065 239.980377,245.415237 229.638184,242.056290 
	C221.548416,239.428879 217.423126,228.650528 220.796951,218.956329 
	C223.363556,211.581573 231.142609,208.112854 239.148392,210.936523 
	C246.032104,213.364426 247.857468,218.994431 248.000366,226.011414 
z"/>
<path fill="#3C75B8" opacity="1.000000" stroke="none" 
	d="
M281.087067,181.697540 
	C281.514832,174.595688 284.627258,170.654434 290.338623,169.541885 
	C295.337646,168.568115 300.613373,171.320786 302.597260,175.937897 
	C304.606384,180.613754 303.152588,186.242218 299.124969,189.380920 
	C292.522949,194.525818 283.941010,191.054474 281.087067,181.697540 
z"/>
</svg>