<?xml version="1.0" encoding="UTF-8"?>
<svg xmlns="http://www.w3.org/2000/svg" version="1.1" oldviewbox="0 0 283.46 141.73" viewBox="28 24.5 227.46 85.73">
  <defs>
    <style>
      .cls-1 {
        fill: none;
        stroke: #1974bb;
        stroke-miterlimit: 10;
      }

      .cls-2 {
        fill: #1974bb;
      }

      .cls-3, .cls-4 {
        fill: #40b7ae;
      }

      .cls-5 {
        fill: #fff;
      }

      .cls-4 {
        font-family: Swiss721BT-Medium, 'Swiss721 BT';
        font-size: 11.1px;
        font-weight: 500;
        letter-spacing: -.02em;
      }
    </style>
  </defs>
  <!-- Generator: Adobe Illustrator 28.7.1, SVG Export Plug-In . SVG Version: 1.2.0 Build 142)  -->
  <g>
    <g id="Layer_1">
      <g>
        <g>
          <path class="cls-2" d="M28.54,71.88V25.01h15.62c1.83,0,3.39.04,4.69.11,1.3.08,2.36.19,3.16.33,1.59.28,3.01.76,4.26,1.46,1.87,1.04,3.29,2.47,4.28,4.3.99,1.83,1.48,3.91,1.48,6.27,0,2.91-.64,5.34-1.92,7.3-1.28,1.96-3.17,3.37-5.65,4.22,1.91.64,3.28,1.61,4.1,2.93.81,1.27,1.39,3.93,1.75,7.95l.6,7.03c.09,1.1.25,2.02.51,2.74.25.72.58,1.25.99,1.59v.64h-4.77c-.25-.49-.47-1.12-.64-1.91-.17-.78-.3-1.75-.38-2.9l-.54-6.2c-.32-4.26-1.08-6.99-2.29-8.18-1.23-1.19-3.66-1.78-7.29-1.78h-13.68v20.97h-4.3ZM32.83,47.06h12.44c4.39,0,7.53-.74,9.42-2.23,1.93-1.48,2.9-3.89,2.9-7.22,0-1.53-.3-2.91-.89-4.14-.59-1.23-1.46-2.22-2.61-2.96-.83-.59-1.87-1.02-3.12-1.27-1.21-.25-3.19-.38-5.95-.38h-12.19v18.2Z"/>
          <path class="cls-2" d="M64.7,71.88l17.79-46.87h5.15l17.79,46.87h-4.52l-5.31-14.41h-21l-5.41,14.41h-4.49ZM75.97,53.71h18.17l-9.1-24.12-9.07,24.12Z"/>
          <path class="cls-2" d="M108.76,71.88V25.01h16.35c10.24,0,15.37,4.39,15.37,13.17,0,4.52-1.44,7.87-4.31,10.07-2.88,2.2-7.26,3.29-13.16,3.29h-9.96v20.33h-4.3ZM113.06,47.64h10.02c4.65,0,7.97-.74,9.96-2.23,2.02-1.51,3.02-3.93,3.02-7.29s-.9-5.55-2.69-7.03c-1.79-1.48-4.61-2.23-8.45-2.23h-11.87v18.77Z"/>
          <path class="cls-2" d="M145.2,71.88V25.01h4.42v46.87h-4.42Z"/>
          <path class="cls-2" d="M168.8,25.01h3.18c3.9,0,6.8.2,8.69.6,1.95.43,3.62,1.07,5,1.94,2.91,1.85,5.11,4.53,6.62,8.05,1.51,3.52,2.26,7.77,2.26,12.76,0,5.37-.82,9.85-2.47,13.44s-4.1,6.28-7.37,8.07c-1.34.72-3,1.24-5,1.56-1,.15-2.24.26-3.74.33-1.5.08-3.26.11-5.3.11h-12.89V25.01h11.01ZM162.09,68.03h9.07c3.54,0,6.13-.13,7.76-.38,1.65-.3,3.01-.75,4.07-1.37,2.37-1.42,4.15-3.58,5.31-6.49,1.17-2.91,1.75-6.67,1.75-11.29,0-8.74-2.24-14.58-6.71-17.53-1.15-.76-2.56-1.3-4.23-1.62-1.65-.32-4.47-.48-8.43-.48h-8.59v39.17Z"/>
        </g>
        <text class="cls-4" transform="translate(28.54 93.96)"><tspan x="0" y="0">Monitoring the Atlantic Meridional Overturning </tspan><tspan x="0" y="13.32">Circulation to understand climate change</tspan></text>
        <g>
          <rect class="cls-2" x="208.06" y="37.38" width="46.87" height="34.5"/>
          <rect class="cls-3" x="208.06" y="25.01" width="46.87" height="11.23"/>
          <g>
            <path class="cls-5" d="M221.13,46.18c.09-.24.5-.59,1.22-1.06.14-.09.27-.17.38-.24.11-.07.21-.14.29-.19.75-.51,1.27-.97,1.53-1.37.26-.4.4-.88.4-1.42,0-.77-.25-1.38-.76-1.84-.5-.46-1.18-.69-2.03-.69-.93,0-1.65.25-2.16.76-.51.51-.76,1.24-.76,2.18h1.52v-.07c0-.48.11-.85.33-1.11.22-.26.54-.38.96-.38.38,0,.68.1.9.31.22.21.32.5.32.86,0,.62-.52,1.25-1.55,1.91l-.52.33c-.78.52-1.32,1.04-1.63,1.56-.31.52-.47,1.14-.47,1.87h5.76v-1.4h-3.73Z"/>
            <path class="cls-5" d="M231.09,42.98c-.49-.49-1.13-.73-1.93-.73-.33,0-.62.05-.88.14-.26.1-.49.24-.68.44.05-1.43.49-2.15,1.33-2.15.6,0,.94.26,1.02.8h1.66c-.04-.65-.28-1.16-.73-1.54-.44-.38-1.03-.57-1.76-.57-1.05,0-1.84.38-2.4,1.14-.56.75-.83,1.84-.83,3.27,0,1.33.26,2.34.78,3.03.52.69,1.28,1.04,2.28,1.04.87,0,1.56-.26,2.09-.8.53-.53.79-1.23.79-2.1,0-.82-.24-1.47-.73-1.96ZM229.83,46.1c-.22.26-.51.4-.9.4-.41,0-.73-.14-.97-.42-.23-.27-.35-.64-.35-1.12,0-.44.11-.78.33-1.02.22-.24.53-.37.93-.37s.72.12.94.37c.22.25.33.59.33,1.03,0,.48-.11.86-.32,1.12Z"/>
            <path class="cls-5" d="M235.34,39.69c-.34-.35-.75-.52-1.22-.52s-.9.17-1.23.51c-.34.33-.51.75-.51,1.24s.17.9.5,1.23c.33.33.74.51,1.22.51s.9-.17,1.24-.51c.35-.34.51-.75.51-1.23s-.17-.9-.51-1.23ZM234.82,41.63c-.2.2-.43.3-.71.3s-.52-.1-.72-.29c-.2-.19-.3-.44-.3-.72s.1-.51.3-.71c.19-.19.44-.29.72-.29s.51.1.71.29c.19.19.29.43.29.71s-.1.51-.29.71Z"/>
            <polygon class="cls-5" points="243.88 39.12 242.17 39.12 242.17 44.93 238.73 39.12 236.91 39.12 236.91 47.58 238.63 47.58 238.63 41.77 242.09 47.58 243.88 47.58 243.88 39.12"/>
          </g>
        </g>
        <line class="cls-1" x1="28.54" y1="78.41" x2="254.93" y2="78.41"/>
      </g>
    </g>
  </g>
</svg>
