<svg version="1.1" id="Layer_1" xmlns="http://www.w3.org/2000/svg" xmlns:xlink="http://www.w3.org/1999/xlink" x="0px" y="0px"
	 width="100%" viewBox="0 0 338 315" enable-background="new 0 0 338 315" xml:space="preserve">
<path fill="#FDFEFE" opacity="1.000000" stroke="none" 
	d="
M143.000000,316.000000 
	C95.700905,316.000000 48.401810,316.000000 1.051359,316.000000 
	C1.051359,211.110214 1.051359,106.220398 1.051359,1.000000 
	C50.020397,1.000000 99.041542,1.000000 148.378174,1.366253 
	C139.430832,4.083575 130.168015,6.434645 120.532837,8.851927 
	C117.005760,10.234547 113.851036,11.550954 110.336136,12.877655 
	C107.218338,14.213953 104.460709,15.539956 101.355415,16.897463 
	C96.992348,19.259098 92.976944,21.589230 88.622498,23.999466 
	C84.508087,26.685188 80.732735,29.290806 76.648148,32.031219 
	C73.491837,34.638271 70.644753,37.110527 67.485809,39.711563 
	C65.434792,41.524300 63.695644,43.208256 61.650475,45.034000 
	C59.310825,47.364452 57.277195,49.553112 54.981785,51.888168 
	C53.456017,53.627167 52.192028,55.219765 50.617958,56.956223 
	C48.162174,59.996445 46.016468,62.892799 43.577404,65.966194 
	C41.435127,69.071274 39.586212,71.999306 37.466507,75.113426 
	C35.800861,77.873589 34.406006,80.447670 32.724327,83.211426 
	C30.824125,86.906082 29.210749,90.411064 27.364449,94.161613 
	C24.012980,101.065910 24.141895,100.815788 30.465046,104.074867 
	C40.667023,109.333183 50.103748,108.096291 59.548130,102.085983 
	C69.383003,95.827179 79.541740,94.882812 89.929695,101.229546 
	C91.028503,101.900887 93.513664,101.483780 94.661812,100.634094 
	C96.698875,99.126541 98.203636,96.899712 100.233932,94.830444 
	C102.805069,92.010292 105.073364,89.333511 107.630814,86.461334 
	C110.908394,82.830605 113.896820,79.395287 117.169266,75.784576 
	C119.612808,73.066391 121.772331,70.523590 124.229431,67.828003 
	C126.692230,65.119225 128.857452,62.563240 131.323135,59.866859 
	C133.452377,57.495659 135.281143,55.264851 137.399567,52.865349 
	C138.920975,51.192696 140.152695,49.688736 141.656342,48.015377 
	C143.606339,45.892857 145.284393,43.939732 147.251373,41.822968 
	C149.391602,39.455738 151.242920,37.252148 153.399170,34.904446 
	C155.304382,32.197834 157.208527,31.665821 159.799179,33.540943 
	C160.975754,34.392551 162.495880,34.769524 164.083344,35.619957 
	C167.551529,37.458519 170.750427,39.146938 174.066238,40.561325 
	C175.242630,41.063122 176.930466,41.413410 177.993835,40.945091 
	C181.884293,39.231712 185.610001,37.144314 189.739502,35.133976 
	C192.227081,34.089371 194.372910,33.108570 196.669846,32.058704 
	C197.477829,33.137524 198.215225,34.122101 198.977676,35.458237 
	C200.096283,37.867619 201.189835,39.925442 202.346573,42.295273 
	C203.295898,44.070923 204.182053,45.534561 205.075027,47.289284 
	C205.417175,48.052612 205.752487,48.524853 206.102905,49.322586 
	C206.776260,50.763874 207.434479,51.879662 208.130524,53.336777 
	C209.432770,55.789505 210.697220,57.900906 211.999603,60.367889 
	C213.376083,63.142658 214.714645,65.561844 216.108429,68.323029 
	C217.491165,71.106628 218.818680,73.548233 220.193420,76.332375 
	C221.839325,79.446671 223.438034,82.218422 225.071899,85.345551 
	C226.793182,88.794594 228.479294,91.888268 230.222763,95.321747 
	C231.630020,98.100578 232.979935,100.539612 234.346954,103.315285 
	C235.194534,104.986137 236.025009,106.320343 237.192642,108.196228 
	C240.625931,106.827400 243.870850,105.533669 247.479218,104.171234 
	C249.644302,103.259636 251.527435,102.555283 253.234192,101.551132 
	C263.393738,95.573792 273.538483,95.305573 283.773285,101.354927 
	C285.624603,102.449181 287.660797,103.226761 289.538788,104.280396 
	C300.337891,110.339188 310.155884,107.165504 320.046326,101.345360 
	C318.801636,98.668678 317.693970,96.286674 316.381348,93.580147 
	C314.647797,90.128639 313.119293,87.001656 311.378571,83.560074 
	C309.575897,80.456444 307.985413,77.667404 306.206726,74.577332 
	C304.303406,71.754448 302.588318,69.232605 300.759949,66.356903 
	C298.097015,63.012695 295.547333,60.022343 292.719269,56.844311 
	C290.974091,54.739902 289.507294,52.823177 287.936615,50.612324 
	C286.914032,49.490025 285.995392,48.661850 284.981506,47.571865 
	C284.317810,46.854305 283.749298,46.398560 283.036316,45.638378 
	C280.588257,43.317242 278.284760,41.300541 275.691620,39.098946 
	C272.963409,36.890171 270.524841,34.866291 267.911194,32.542645 
	C263.514221,29.444162 259.292328,26.645447 254.900726,23.550606 
	C250.527817,21.057375 246.324585,18.860271 241.902466,16.398088 
	C238.844101,14.955047 236.004623,13.777084 232.901093,12.350271 
	C229.439590,11.028366 226.242126,9.955312 222.794952,8.615250 
	C219.734161,7.527088 216.950180,6.593777 214.106659,5.906953 
	C207.085648,4.211102 200.037338,2.628264 193.000000,1.000001 
	C241.631165,1.000000 290.262329,1.000000 338.946747,1.000000 
	C338.946747,105.887863 338.946747,210.775772 338.946747,316.000000 
	C292.979645,316.000000 246.958481,316.000000 200.647522,315.653137 
	C206.939575,313.779877 213.521439,312.253479 220.560059,310.621155 
	C219.794250,309.536530 219.617218,309.055389 219.274658,308.849152 
	C218.585785,308.434387 217.806641,308.169556 216.888931,307.546570 
	C208.938828,301.924713 201.327881,301.979675 193.539841,307.995605 
	C185.830292,312.189453 178.032333,315.344055 169.525558,313.837708 
	C163.473740,312.766083 157.678864,310.243439 151.587097,308.083679 
	C137.953125,300.395172 137.990707,299.915802 122.299202,309.927032 
	C124.299217,310.493591 126.027428,310.983154 128.067749,311.678467 
	C133.253220,313.256134 138.126602,314.628082 143.000000,316.000000 
M29.889553,227.690109 
	C29.780087,227.655396 29.670620,227.620697 29.561153,227.585999 
	C29.709890,227.721710 29.858629,227.857422 29.869051,228.701096 
	C30.601023,230.129822 31.332994,231.558548 32.189625,233.682541 
	C34.138111,237.127899 36.105217,240.562912 38.029789,244.021576 
	C39.921089,247.420471 42.847099,248.681091 46.387974,247.355652 
	C51.456928,245.458237 56.547573,243.473206 61.301098,240.916122 
	C67.046593,237.825394 72.973991,236.298538 79.390770,237.139648 
	C82.120697,237.497498 84.761101,238.538391 87.890244,239.825531 
	C92.275665,242.167633 96.429466,245.261765 101.093788,246.698318 
	C111.427925,249.881073 119.314949,243.407745 127.544525,238.733124 
	C127.346947,238.492416 127.149368,238.251724 126.834755,237.342194 
	C125.221909,235.231125 123.609062,233.120056 121.889610,230.329422 
	C120.915977,227.600235 119.313416,227.051376 116.575005,228.230392 
	C114.196373,229.254532 111.533775,229.619141 108.249512,230.218887 
	C107.501404,230.240799 106.753296,230.262726 105.181190,230.059631 
	C99.597893,228.202774 93.434380,227.287628 88.558105,224.283249 
	C79.759407,218.862167 71.923889,218.557877 63.069481,224.033157 
	C58.261688,227.006119 52.388733,228.256546 46.249584,230.221512 
	C45.501492,230.242722 44.753399,230.263931 43.156895,230.059784 
	C38.770042,229.374741 34.383194,228.689713 29.889553,227.690109 
M279.789795,251.349976 
	C272.932220,246.977203 266.024536,245.420044 258.288055,251.089401 
	C255.849792,252.359894 253.411530,253.630386 250.205353,254.978378 
	C246.082336,255.984329 242.006470,257.311737 237.825836,257.924835 
	C230.602219,258.984161 224.371765,255.666473 217.681686,252.194305 
	C215.503174,250.994232 213.412247,249.583344 211.129272,248.634659 
	C204.900711,246.046387 196.632874,248.702072 193.459579,254.476181 
	C192.501816,256.934509 191.544052,259.392822 190.146820,262.373932 
	C189.160889,264.798065 188.174973,267.222198 186.876160,270.415680 
	C201.290802,263.536743 206.449234,263.700867 215.738022,267.198944 
	C219.279144,268.532471 222.585007,270.590363 225.829254,272.591766 
	C232.578781,276.755676 239.359619,276.411621 246.245651,273.136261 
	C249.851959,271.420929 253.430618,269.646393 257.003479,267.862030 
	C263.883972,264.425690 270.789520,264.010712 278.058929,266.891205 
	C285.447723,269.818970 285.531555,269.607361 291.681458,262.858215 
	C293.044556,261.365753 294.407684,259.873322 296.046509,258.078979 
	C292.227386,256.816711 289.144562,255.797821 285.634308,254.294449 
	C283.839996,253.494522 282.045685,252.694595 279.789795,251.349976 
M60.269199,170.120071 
	C56.846924,171.421432 53.424652,172.722794 49.074409,173.967484 
	C35.955849,175.868820 25.059555,169.262756 12.515431,163.593765 
	C13.469868,169.828476 14.140740,174.840500 15.108997,179.794388 
	C15.240322,180.466293 16.861940,180.846909 18.219063,181.880737 
	C23.622643,184.430801 28.939478,187.190063 34.452499,189.476212 
	C40.857117,192.132095 47.392406,192.243866 53.717991,188.994553 
	C58.574173,186.500046 63.378944,183.905457 69.107491,181.267654 
	C73.673164,181.297821 78.238831,181.327988 83.312370,181.813446 
	C86.290665,183.250198 89.563644,184.281982 92.194420,186.196320 
	C101.784027,193.174393 111.187874,192.247192 120.930817,186.568848 
	C123.668457,184.973282 125.409851,183.315369 125.579895,179.547729 
	C125.531883,178.319550 125.483879,177.091370 125.209579,175.141464 
	C123.826500,171.025589 121.479645,170.023392 117.398796,172.042877 
	C114.855606,173.301422 111.831818,173.588821 108.133286,174.244537 
	C105.753342,174.188690 103.373390,174.132843 100.239647,173.973618 
	C96.838058,172.625900 93.436470,171.278168 89.627251,169.394913 
	C77.164665,161.467712 71.857330,161.566940 60.269199,170.120071 
M173.266571,302.072510 
	C170.527191,298.708405 167.787796,295.344269 164.842178,291.341888 
	C163.624283,289.771271 162.406372,288.200684 161.034546,285.967194 
	C158.149536,284.259521 155.264511,282.551849 151.931534,280.284790 
	C143.698914,274.619324 135.381561,273.339050 126.189384,279.920532 
	C113.988182,286.737915 101.650757,288.787445 88.590569,280.451324 
	C86.138000,279.151764 83.745117,277.719879 81.220047,276.581085 
	C76.431328,274.421387 71.919128,274.866760 67.255577,278.472992 
	C69.572105,280.269287 71.484421,281.752167 73.853432,283.770630 
	C76.571762,285.802734 79.290085,287.834808 82.599823,290.228668 
	C85.355743,291.912689 88.111664,293.596741 91.264496,295.833313 
	C94.876366,297.812561 98.553963,299.682343 102.082207,301.800842 
	C105.845901,304.060730 109.602333,304.088226 113.371910,302.132050 
	C117.701286,299.885406 121.937088,297.458435 126.952599,295.028442 
	C134.128128,291.421204 141.445465,290.962769 149.321243,294.614410 
	C153.151932,296.545258 156.836212,298.898376 160.853424,300.291260 
	C165.089783,301.760193 169.643936,302.312592 174.878601,303.292023 
	C178.602875,301.968323 182.753906,301.299255 185.973145,299.200775 
	C196.541626,292.311737 207.317169,290.893921 219.264496,296.848694 
	C227.993057,302.793671 236.857498,307.036926 246.765060,299.174011 
	C248.139862,298.082947 249.619675,297.124176 251.685440,295.808929 
	C253.450684,294.857208 255.215927,293.905518 257.648743,292.795746 
	C261.543427,289.915375 265.438110,287.034973 269.970734,283.988770 
	C272.276245,282.046631 274.581787,280.104523 277.098633,277.984406 
	C268.355042,272.527771 261.673401,276.805023 254.218994,280.942047 
	C243.790512,286.411652 233.150726,288.089752 221.727249,282.187073 
	C211.485458,274.159576 201.083954,273.777344 190.494690,281.510529 
	C189.716431,282.078857 188.836853,282.508484 187.266357,283.095551 
	C183.236404,284.424713 179.031906,285.558105 178.120239,291.387024 
	C176.738037,294.901306 175.355835,298.415558 173.266571,302.072510 
M330.191925,151.174042 
	C330.097778,149.782272 330.003632,148.390488 330.010193,146.172195 
	C329.559662,143.502686 329.109100,140.833176 328.636475,138.032776 
	C322.183014,140.672577 316.012512,143.196625 308.951355,145.770966 
	C302.322266,145.467194 295.693146,145.163422 288.766388,144.246567 
	C286.011536,142.746689 283.121704,141.448196 280.527252,139.709061 
	C272.832123,134.550888 265.367920,134.516449 257.322388,139.271194 
	C253.934830,141.273148 252.359314,143.241058 252.901260,147.713989 
	C252.705048,149.136780 252.508850,150.559570 252.071350,152.793152 
	C252.071350,154.160248 252.071350,155.527359 252.071350,157.868225 
	C255.787704,156.007736 258.616089,154.591782 262.319946,153.241791 
	C267.075653,153.238419 271.831360,153.235046 277.041595,153.780762 
	C281.598297,156.119156 286.132660,158.502502 290.717072,160.785202 
	C297.274841,164.050446 304.019073,164.534668 310.846924,161.714935 
	C317.102600,159.131516 323.314209,156.439850 329.506042,153.707123 
	C329.882965,153.540771 329.914948,152.592957 330.191925,151.174042 
M114.307663,153.184204 
	C113.284401,151.435654 112.261147,149.687088 111.062958,147.193176 
	C110.261642,146.803467 109.425499,146.018356 108.664429,146.085419 
	C101.367348,146.728287 94.637367,145.315140 88.746735,140.809387 
	C80.293091,134.343170 71.967636,134.238739 63.068996,140.279297 
	C53.854641,146.534180 43.444050,148.000610 32.824070,144.821793 
	C26.790195,143.015717 21.139179,139.930573 14.595314,137.111038 
	C14.261732,141.399536 13.968598,145.168030 13.315929,149.538956 
	C14.116942,150.799667 14.628663,152.634613 15.774089,153.211685 
	C19.002537,154.838135 22.491390,155.947693 26.353308,157.734833 
	C39.499390,165.496902 49.472301,165.319489 60.768856,156.922638 
	C70.031166,152.107300 79.413757,151.257507 89.406250,156.576904 
	C96.077400,160.620285 102.583946,165.102600 111.118958,162.829803 
	C117.960403,161.007950 118.412903,159.960175 114.307663,153.184204 
M69.136528,125.452011 
	C73.681023,125.490204 78.225525,125.528389 83.296906,125.966057 
	C89.700951,127.315948 94.092789,134.313782 102.628128,132.636108 
	C101.214180,129.116837 99.983780,126.054390 98.766327,122.297203 
	C97.245476,120.163040 95.724617,118.028885 93.678673,115.387230 
	C90.699432,113.772781 87.652435,112.270325 84.756470,110.518242 
	C80.155602,107.734650 75.424164,106.057930 70.227921,108.618080 
	C66.094360,110.654655 62.094032,112.961655 57.298782,115.233971 
	C44.522610,120.912712 32.464138,118.036545 20.134474,111.577507 
	C19.241096,115.992096 18.437586,119.962608 17.310411,124.464844 
	C17.680927,125.122253 17.889734,126.115891 18.447430,126.384109 
	C23.087383,128.615753 27.791401,130.714249 32.476624,132.851730 
	C40.997150,136.738953 49.172417,136.224197 57.195095,131.276688 
	C60.713608,129.106857 64.549255,127.451279 69.136528,125.452011 
M22.245195,210.682617 
	C22.563036,211.243225 22.738434,212.052216 23.219547,212.328110 
	C35.169510,219.180557 47.234848,223.330185 59.817410,213.674164 
	C61.120674,212.674042 62.627831,211.939606 64.778992,210.870697 
	C72.438080,207.690048 80.038307,208.626724 88.064369,211.741180 
	C91.803719,213.847565 95.411842,216.245102 99.308853,218.001724 
	C108.338921,222.072113 114.828590,218.979416 116.871887,209.591492 
	C117.288864,207.743103 117.705849,205.894730 118.554901,203.483551 
	C118.687874,202.438400 118.820847,201.393250 119.031677,199.736115 
	C116.916031,200.636627 115.433899,201.267487 113.025276,201.851913 
	C108.371452,201.859222 103.717628,201.866531 98.518074,201.444031 
	C93.943436,199.165726 89.251877,197.091660 84.823936,194.557083 
	C79.376396,191.438889 74.066483,190.774796 68.357170,193.770355 
	C62.953136,196.605728 57.422367,199.199570 51.019718,201.854263 
	C46.034374,201.860825 41.049034,201.867386 35.502224,201.440750 
	C29.857454,199.280075 24.212685,197.119385 17.163378,194.421082 
	C18.607431,198.466248 19.624556,201.315475 20.710953,204.931351 
	C21.213621,206.618271 21.716290,208.305176 22.245195,210.682617 
M249.951599,177.830048 
	C249.636841,180.739853 249.322083,183.649658 248.921188,187.355835 
	C251.551773,186.091522 253.475388,185.189697 255.379303,184.248032 
	C264.477295,179.748199 273.503021,179.466934 282.509674,184.556274 
	C285.252502,186.106140 288.079163,187.521271 290.932556,188.859116 
	C297.035828,191.720718 303.330170,192.504532 309.718109,189.919510 
	C314.786835,187.868378 319.687561,185.381470 324.815033,183.503510 
	C328.104126,182.298843 329.809143,180.584473 329.523590,176.277695 
	C329.740540,172.924088 329.957489,169.570480 330.238617,165.225021 
	C324.182159,167.755112 319.298492,170.042328 314.244110,171.853119 
	C304.967865,175.176422 295.696716,175.597824 286.639832,170.887115 
	C282.960022,168.973145 279.224640,167.166275 275.522400,165.295090 
	C271.440338,163.231949 267.304474,162.920441 263.095123,164.879028 
	C260.392731,166.136414 257.779083,167.636826 254.984329,168.631165 
	C250.864517,170.097000 249.238190,172.756134 249.951599,177.830048 
M245.086197,123.725548 
	C246.354996,126.187126 247.623795,128.648697 248.839859,131.007965 
	C254.517258,128.865479 259.760162,126.886963 265.876221,124.982315 
	C267.915680,124.941635 269.955109,124.900963 272.739166,125.040154 
	C278.357666,127.444511 284.116730,129.570526 289.561127,132.319626 
	C297.380219,136.267776 305.089111,136.544861 312.995605,132.914093 
	C316.616058,131.251556 320.151306,129.370651 323.863678,127.950851 
	C327.176849,126.683739 327.857300,124.871658 325.996857,121.158279 
	C325.169830,118.429161 324.342804,115.700035 323.405762,112.608017 
	C320.866638,113.531853 318.743835,114.331223 316.602905,115.078629 
	C305.946747,118.798729 295.405151,120.476349 285.021484,114.035088 
	C281.653503,111.945854 278.094666,109.850212 274.332153,108.805542 
	C271.025055,107.887306 266.938751,107.411926 263.851349,108.537247 
	C256.480347,111.223907 249.495667,114.970497 242.104095,118.405663 
	C243.085892,119.972633 244.035965,121.488953 245.086197,123.725548 
M229.037842,211.050964 
	C227.898926,212.543411 226.760010,214.035858 225.624191,215.524246 
	C233.461884,221.347916 241.725769,220.566864 252.945343,213.205643 
	C257.830231,211.804062 262.638184,209.944717 267.617981,209.107941 
	C275.130737,207.845535 281.458282,211.793228 287.561859,215.313644 
	C297.291321,220.925385 306.610504,220.265762 316.371155,215.422119 
	C320.591644,213.327728 322.823151,210.580185 323.556854,205.462341 
	C324.360474,202.406860 325.164093,199.351379 326.097626,195.801987 
	C300.683380,205.621826 293.978851,203.758911 275.643707,193.457977 
	C269.484680,189.997757 263.961548,192.661865 258.156891,195.303406 
	C251.908630,198.146820 245.163452,199.893448 238.653976,202.172592 
	C237.645691,202.525635 236.738358,203.167038 235.215973,204.044632 
	C233.362030,206.297134 231.508102,208.549637 229.037842,211.050964 
M286.404968,242.663879 
	C289.370819,244.036530 292.231110,245.745911 295.323303,246.715622 
	C303.093781,249.152466 304.770782,248.133041 308.228333,239.429230 
	C309.255249,237.660309 310.282166,235.891388 311.788910,233.653442 
	C312.621674,232.117783 313.454407,230.582138 314.717133,228.253555 
	C312.786407,228.624374 311.868347,228.770203 310.964844,228.978989 
	C301.713745,231.116882 292.829803,230.390167 284.386566,225.750839 
	C281.471588,224.149170 278.442261,222.755646 275.465668,221.266037 
	C271.362122,219.212448 267.208405,218.954788 262.993103,220.917084 
	C260.433136,222.108780 257.800049,223.167068 255.327713,224.519241 
	C243.807907,230.819672 232.204468,232.551697 220.200394,225.743210 
	C219.247665,225.202835 217.121338,225.328873 216.410645,226.028824 
	C214.316040,228.091721 212.659119,230.599030 210.299759,233.285736 
	C209.400208,234.347122 208.500641,235.408508 208.169830,235.798843 
	C214.146240,238.699081 220.108368,241.147690 225.613556,244.375626 
	C232.624313,248.486328 239.402008,248.366592 246.418655,244.858887 
	C249.240723,243.448105 251.932724,241.664352 254.891724,240.666718 
	C259.360535,239.160049 264.110992,236.948334 268.560242,237.304382 
	C274.450317,237.775696 280.165314,240.435150 286.404968,242.663879 
M87.682861,252.193893 
	C77.326889,245.694473 72.644211,245.788712 62.149403,252.895050 
	C57.635147,254.741791 53.120892,256.588531 48.342583,258.543304 
	C50.826057,261.459961 53.222721,264.171661 55.500500,266.979858 
	C57.617077,269.589294 59.531883,270.535522 62.957474,268.456573 
	C69.113800,264.720367 75.978874,264.043060 83.642860,266.191254 
	C85.975441,267.429352 88.304550,268.674072 90.641228,269.904419 
	C97.997322,273.777679 105.204979,278.305084 114.043983,274.057831 
	C119.978683,271.206146 125.997940,268.530426 132.794662,265.684570 
	C137.001648,265.327179 141.208649,264.969788 146.076218,264.556274 
	C142.018463,258.815674 138.244858,253.477081 134.480972,248.152222 
	C133.439957,248.572067 132.812546,248.788422 132.217194,249.072067 
	C130.416565,249.929993 128.568542,250.710297 126.844849,251.704407 
	C114.108040,259.050079 101.245682,260.603973 87.682861,252.193893 
M155.787781,51.317776 
	C140.903931,69.246704 126.020096,87.175636 111.136261,105.104561 
	C111.510559,105.507187 111.884865,105.909805 112.259163,106.312424 
	C116.698036,104.141342 120.993309,101.569725 125.616348,99.912376 
	C130.195892,98.270615 135.057190,97.227211 139.882111,96.500099 
	C147.687439,95.323837 153.875900,99.959679 160.224075,103.283638 
	C168.955643,107.855560 177.211456,107.849060 185.709625,102.962502 
	C194.598801,97.851120 203.923874,94.563759 215.291168,98.096176 
	C206.914230,82.251968 199.018646,67.318169 190.726578,51.634472 
	C180.683762,58.981834 171.281677,54.684078 161.842285,50.804111 
	C160.617401,50.300632 159.344635,49.792316 158.051056,49.631008 
	C157.448563,49.555885 156.743179,50.305809 155.787781,51.317776 
M160.677429,116.977463 
	C156.352798,114.922211 152.136444,112.578354 147.669571,110.902184 
	C144.035583,109.538544 139.660156,107.438858 136.392578,108.377533 
	C129.673721,110.307632 123.476295,114.052811 116.863693,117.144760 
	C118.001854,120.052185 119.026520,122.466278 119.894485,124.935455 
	C121.136169,128.467773 122.722237,129.272232 126.526123,127.457092 
	C135.243988,123.297058 144.251633,122.814316 153.092926,127.612572 
	C155.866318,129.117722 158.728378,130.460052 161.555740,131.865051 
	C168.446411,135.289230 175.357910,136.242065 182.483093,132.396835 
	C186.094666,130.447800 189.836090,128.721191 193.594345,127.065498 
	C205.524506,121.809669 216.121429,125.542770 226.388077,131.919250 
	C228.734924,133.376846 231.469025,134.210922 234.978653,135.750305 
	C229.964371,123.866203 224.790085,113.903145 212.956512,110.046501 
	C209.833847,109.028801 206.130127,108.295662 203.051208,108.998993 
	C198.617142,110.011887 194.379196,112.206779 190.290680,114.343323 
	C181.012619,119.191757 171.472565,120.289688 160.677429,116.977463 
M128.806412,143.902039 
	C129.812119,146.173080 130.509842,148.668579 131.939789,150.630402 
	C132.788406,151.794662 134.982513,152.960724 136.242279,152.674789 
	C142.083969,151.348907 147.307983,152.904922 152.438828,155.301392 
	C155.600220,156.777985 158.657211,158.477112 161.809387,159.974609 
	C167.502670,162.679367 173.370468,164.243576 179.545853,161.693954 
	C183.357971,160.120056 187.166321,158.485382 190.807007,156.558060 
	C199.854782,151.768326 208.940521,150.961227 218.247147,155.696167 
	C222.523697,157.871964 226.803909,160.040619 231.085953,162.205582 
	C234.486282,163.924789 235.661469,162.024338 235.948212,159.063126 
	C236.282898,155.607010 236.629486,152.126678 236.523941,148.670502 
	C236.496201,147.761978 234.800949,146.126617 233.898148,146.144867 
	C226.258957,146.299316 220.351990,142.127182 214.163239,138.640915 
	C210.442657,136.544998 206.661316,134.995270 202.384872,136.906830 
	C197.549149,139.068359 192.750412,141.312790 187.911911,143.467957 
	C180.944824,146.571198 173.673676,148.344177 166.197906,146.064621 
	C160.248016,144.250351 154.320923,142.057968 148.797821,139.225861 
	C142.237625,135.861938 136.187332,134.580032 129.595825,138.988449 
	C127.503525,140.387772 127.306190,141.417450 128.806412,143.902039 
M192.912781,183.207260 
	C205.057678,177.888290 216.120377,181.254913 226.967056,188.333008 
	C228.888107,183.050110 235.954544,181.142700 234.080948,175.999176 
	C226.830215,172.689499 220.543930,170.491898 214.989807,167.096588 
	C209.392471,163.674866 204.214844,163.472900 198.578018,166.140701 
	C196.474854,167.136093 194.348404,168.106491 192.338928,169.271683 
	C177.362427,177.955765 162.939255,176.054123 148.652695,167.397736 
	C145.684616,165.599365 142.099854,164.818771 138.581116,163.486496 
	C139.928589,169.235519 140.845718,173.697372 142.097137,178.063416 
	C142.375549,179.034760 143.711090,179.928986 144.764618,180.414505 
	C150.332092,182.980316 155.841797,185.759369 161.615189,187.762039 
	C166.042755,189.297867 171.077652,191.177597 175.399582,190.410202 
	C181.227158,189.375458 186.629562,185.946320 192.912781,183.207260 
M157.631866,213.923050 
	C167.385803,219.780487 176.890762,220.283264 187.166809,214.392532 
	C192.583221,211.287582 199.214905,210.283905 205.325531,208.422180 
	C206.810989,207.969604 208.948013,208.417999 209.850571,207.516327 
	C212.840988,204.528824 215.404633,201.114105 218.114578,197.884048 
	C210.247162,191.101730 206.031036,190.512680 197.454849,194.732315 
	C195.662842,195.614029 193.819336,196.406952 192.091461,197.400620 
	C177.239716,205.941345 162.928238,204.014099 148.806030,195.461517 
	C146.075974,193.808151 142.890411,192.906921 139.342178,191.418457 
	C137.994507,197.550446 136.841232,202.797943 135.558945,208.632401 
	C143.968811,207.027969 150.503082,210.165604 157.631866,213.923050 
M141.254791,220.140167 
	C140.056061,220.140167 138.857330,220.140167 136.932510,220.140167 
	C140.068802,225.213867 142.710236,229.575500 145.452835,233.872559 
	C146.329895,235.246719 147.211075,237.014923 148.541672,237.636124 
	C155.285889,240.784637 162.079346,243.882858 169.052567,246.467072 
	C174.079025,248.329819 181.425491,246.239258 183.617371,242.694061 
	C187.288376,236.756454 190.685852,230.649719 194.269562,224.491974 
	C193.478134,224.837128 192.451569,225.190002 191.515884,225.707306 
	C180.012680,232.066833 168.294800,232.808365 156.304062,227.139206 
	C151.532791,224.883392 146.746658,222.658981 141.254791,220.140167 
M166.095383,266.369659 
	C167.469788,268.429169 168.844208,270.488678 170.477493,272.936127 
	C172.533356,268.092285 174.303543,263.921539 176.205032,259.441376 
	C170.764206,258.812653 166.051208,258.268005 160.460663,257.621979 
	C162.573425,260.824799 164.185181,263.268127 166.095383,266.369659 
z"/>
<path fill="#FF090B" opacity="1.000000" stroke="none" 
	d="
M192.531342,1.000001 
	C200.037338,2.628264 207.085648,4.211102 214.106659,5.906953 
	C216.950180,6.593777 219.734161,7.527088 222.701447,9.019630 
	C221.542664,10.127102 220.228531,10.940855 218.912537,10.943892 
	C187.927933,11.015397 156.943024,11.034123 125.958794,10.905167 
	C124.271355,10.898143 122.589600,9.523662 120.905197,8.785715 
	C130.168015,6.434645 139.430832,4.083575 148.846832,1.366253 
	C163.354233,1.000000 177.708450,1.000000 192.531342,1.000001 
z"/>
<path fill="#09B1F0" opacity="1.000000" stroke="none" 
	d="
M217.064743,307.842834 
	C217.806641,308.169556 218.585785,308.434387 219.274658,308.849152 
	C219.617218,309.055389 219.794250,309.536530 220.560059,310.621155 
	C213.521439,312.253479 206.939575,313.779877 200.178864,315.653137 
	C181.312439,316.000000 162.624878,316.000000 143.468658,316.000000 
	C138.126602,314.628082 133.253220,313.256134 128.296509,311.325256 
	C130.702591,310.177551 133.166306,309.268219 135.686707,309.066376 
	C141.031937,308.638336 146.406677,308.578979 151.769318,308.368408 
	C157.678864,310.243439 163.473740,312.766083 169.525558,313.837708 
	C178.032333,315.344055 185.830292,312.189453 193.929642,308.168060 
	C202.138840,308.139526 209.601791,307.991180 217.064743,307.842834 
z"/>
<path fill="#A7E8FF" opacity="1.000000" stroke="none" 
	d="
M155.936111,50.999763 
	C156.743179,50.305809 157.448563,49.555885 158.051056,49.631008 
	C159.344635,49.792316 160.617401,50.300632 161.842285,50.804111 
	C171.281677,54.684078 180.683762,58.981834 190.726578,51.634472 
	C199.018646,67.318169 206.914230,82.251968 215.291168,98.096176 
	C203.923874,94.563759 194.598801,97.851120 185.709625,102.962502 
	C177.211456,107.849060 168.955643,107.855560 160.224075,103.283638 
	C153.875900,99.959679 147.687439,95.323837 139.882111,96.500099 
	C135.057190,97.227211 130.195892,98.270615 125.616348,99.912376 
	C120.993309,101.569725 116.698036,104.141342 112.259163,106.312424 
	C111.884865,105.909805 111.510559,105.507187 111.136261,105.104561 
	C126.020096,87.175636 140.903931,69.246704 155.936111,50.999763 
z"/>
<path fill="#A7E8FF" opacity="1.000000" stroke="none" 
	d="
M161.070526,117.082169 
	C171.472565,120.289688 181.012619,119.191757 190.290680,114.343323 
	C194.379196,112.206779 198.617142,110.011887 203.051208,108.998993 
	C206.130127,108.295662 209.833847,109.028801 212.956512,110.046501 
	C224.790085,113.903145 229.964371,123.866203 234.978653,135.750305 
	C231.469025,134.210922 228.734924,133.376846 226.388077,131.919250 
	C216.121429,125.542770 205.524506,121.809669 193.594345,127.065498 
	C189.836090,128.721191 186.094666,130.447800 182.483093,132.396835 
	C175.357910,136.242065 168.446411,135.289230 161.555740,131.865051 
	C158.728378,130.460052 155.866318,129.117722 153.092926,127.612572 
	C144.251633,122.814316 135.243988,123.297058 126.526123,127.457092 
	C122.722237,129.272232 121.136169,128.467773 119.894485,124.935455 
	C119.026520,122.466278 118.001854,120.052185 116.863693,117.144760 
	C123.476295,114.052811 129.673721,110.307632 136.392578,108.377533 
	C139.660156,107.438858 144.035583,109.538544 147.669571,110.902184 
	C152.136444,112.578354 156.352798,114.922211 161.070526,117.082169 
z"/>
<path fill="#FC1E28" opacity="1.000000" stroke="none" 
	d="
M163.860168,35.361797 
	C162.495880,34.769524 160.975754,34.392551 159.799179,33.540943 
	C157.208527,31.665821 155.304382,32.197834 153.009857,34.733555 
	C150.365509,34.471184 148.415878,34.035221 146.465256,34.030754 
	C125.058281,33.981743 103.650841,34.049389 82.244667,33.908878 
	C80.477913,33.897282 78.719612,32.597610 76.957382,31.896423 
	C80.732735,29.290806 84.508087,26.685188 88.909912,24.309523 
	C90.506119,24.692884 91.475792,24.980135 92.445580,24.980536 
	C145.288010,25.002417 198.130463,25.008875 250.972839,24.952177 
	C252.339096,24.950710 253.704559,24.231314 255.070404,23.846731 
	C259.292328,26.645447 263.514221,29.444162 267.628052,32.864151 
	C265.731506,33.656948 263.943298,33.974239 262.154510,33.977592 
	C242.951431,34.013577 223.748138,33.969597 204.545319,34.048294 
	C202.679672,34.055939 200.816803,34.737782 198.952637,35.106674 
	C198.215225,34.122101 197.477829,33.137524 196.669846,32.058704 
	C194.372910,33.108570 192.227081,34.089371 189.327789,34.953148 
	C181.162842,34.565689 173.752319,34.251106 166.338470,34.087444 
	C165.522141,34.069427 164.686737,34.916142 163.860168,35.361797 
z"/>
<path fill="#A7E8FF" opacity="1.000000" stroke="none" 
	d="
M128.668274,143.569366 
	C127.306190,141.417450 127.503525,140.387772 129.595825,138.988449 
	C136.187332,134.580032 142.237625,135.861938 148.797821,139.225861 
	C154.320923,142.057968 160.248016,144.250351 166.197906,146.064621 
	C173.673676,148.344177 180.944824,146.571198 187.911911,143.467957 
	C192.750412,141.312790 197.549149,139.068359 202.384872,136.906830 
	C206.661316,134.995270 210.442657,136.544998 214.163239,138.640915 
	C220.351990,142.127182 226.258957,146.299316 233.898148,146.144867 
	C234.800949,146.126617 236.496201,147.761978 236.523941,148.670502 
	C236.629486,152.126678 236.282898,155.607010 235.948212,159.063126 
	C235.661469,162.024338 234.486282,163.924789 231.085953,162.205582 
	C226.803909,160.040619 222.523697,157.871964 218.247147,155.696167 
	C208.940521,150.961227 199.854782,151.768326 190.807007,156.558060 
	C187.166321,158.485382 183.357971,160.120056 179.545853,161.693954 
	C173.370468,164.243576 167.502670,162.679367 161.809387,159.974609 
	C158.657211,158.477112 155.600220,156.777985 152.438828,155.301392 
	C147.307983,152.904922 142.083969,151.348907 136.242279,152.674789 
	C134.982513,152.960724 132.788406,151.794662 131.939789,150.630402 
	C130.509842,148.668579 129.812119,146.173080 128.668274,143.569366 
z"/>
<path fill="#A7E8FF" opacity="1.000000" stroke="none" 
	d="
M192.563599,183.375977 
	C186.629562,185.946320 181.227158,189.375458 175.399582,190.410202 
	C171.077652,191.177597 166.042755,189.297867 161.615189,187.762039 
	C155.841797,185.759369 150.332092,182.980316 144.764618,180.414505 
	C143.711090,179.928986 142.375549,179.034760 142.097137,178.063416 
	C140.845718,173.697372 139.928589,169.235519 138.581116,163.486496 
	C142.099854,164.818771 145.684616,165.599365 148.652695,167.397736 
	C162.939255,176.054123 177.362427,177.955765 192.338928,169.271683 
	C194.348404,168.106491 196.474854,167.136093 198.578018,166.140701 
	C204.214844,163.472900 209.392471,163.674866 214.989807,167.096588 
	C220.543930,170.491898 226.830215,172.689499 234.080948,175.999176 
	C235.954544,181.142700 228.888107,183.050110 226.967056,188.333008 
	C216.120377,181.254913 205.057678,177.888290 192.563599,183.375977 
z"/>
<path fill="#A7E8FF" opacity="1.000000" stroke="none" 
	d="
M157.300842,213.742737 
	C150.503082,210.165604 143.968811,207.027969 135.558945,208.632401 
	C136.841232,202.797943 137.994507,197.550446 139.342178,191.418457 
	C142.890411,192.906921 146.075974,193.808151 148.806030,195.461517 
	C162.928238,204.014099 177.239716,205.941345 192.091461,197.400620 
	C193.819336,196.406952 195.662842,195.614029 197.454849,194.732315 
	C206.031036,190.512680 210.247162,191.101730 218.114578,197.884048 
	C215.404633,201.114105 212.840988,204.528824 209.850571,207.516327 
	C208.948013,208.417999 206.810989,207.969604 205.325531,208.422180 
	C199.214905,210.283905 192.583221,211.287582 187.166809,214.392532 
	C176.890762,220.283264 167.385803,219.780487 157.300842,213.742737 
z"/>
<path fill="#FD151D" opacity="1.000000" stroke="none" 
	d="
M254.900726,23.550606 
	C253.704559,24.231314 252.339096,24.950710 250.972839,24.952177 
	C198.130463,25.008875 145.288010,25.002417 92.445580,24.980536 
	C91.475792,24.980135 90.506119,24.692884 89.248970,24.229420 
	C92.976944,21.589230 96.992348,19.259098 101.704056,17.115168 
	C103.861786,17.867214 105.322227,18.924540 106.784775,18.927479 
	C150.512863,19.015373 194.241226,19.020416 237.969147,18.900820 
	C239.355240,18.897032 240.737366,17.441769 242.121338,16.663162 
	C246.324585,18.860271 250.527817,21.057375 254.900726,23.550606 
z"/>
<path fill="#53AAE6" opacity="1.000000" stroke="none" 
	d="
M83.014999,265.837769 
	C75.978874,264.043060 69.113800,264.720367 62.957474,268.456573 
	C59.531883,270.535522 57.617077,269.589294 55.500500,266.979858 
	C53.222721,264.171661 50.826057,261.459961 48.342583,258.543304 
	C53.120892,256.588531 57.635147,254.741791 62.730816,253.141724 
	C71.133118,253.611679 78.953598,253.857819 86.775970,253.998230 
	C87.219421,254.006195 87.678452,253.146790 88.130226,252.691071 
	C101.245682,260.603973 114.108040,259.050079 126.844849,251.704407 
	C128.568542,250.710297 130.416565,249.929993 132.217194,249.072067 
	C132.812546,248.788422 133.439957,248.572067 134.480972,248.152222 
	C138.244858,253.477081 142.018463,258.815674 146.076218,264.556274 
	C141.208649,264.969788 137.001648,265.327179 132.277679,265.354126 
	C131.061264,264.685883 130.363037,264.056122 129.662262,264.053253 
	C115.104477,263.993561 100.546120,263.969086 85.988983,264.081299 
	C84.993195,264.088959 84.006119,265.225983 83.014999,265.837769 
z"/>
<path fill="#6DA4DE" opacity="1.000000" stroke="none" 
	d="
M311.309082,234.122452 
	C310.282166,235.891388 309.255249,237.660309 307.575714,239.714020 
	C301.332794,239.999512 295.736328,239.857620 290.156464,240.099365 
	C288.729156,240.161194 287.354431,241.436447 285.955536,242.154205 
	C280.165314,240.435150 274.450317,237.775696 268.560242,237.304382 
	C264.110992,236.948334 259.360535,239.160049 254.891724,240.666718 
	C251.932724,241.664352 249.240723,243.448105 246.418655,244.858887 
	C239.402008,248.366592 232.624313,248.486328 225.613556,244.375626 
	C220.108368,241.147690 214.146240,238.699081 208.169830,235.798843 
	C208.500641,235.408508 209.400208,234.347122 211.047867,233.130493 
	C242.708878,232.983109 273.621826,232.967529 304.534546,233.047119 
	C306.793610,233.052933 309.050934,233.747894 311.309082,234.122452 
z"/>
<path fill="#E8526F" opacity="1.000000" stroke="none" 
	d="
M311.590759,83.874672 
	C313.119293,87.001656 314.647797,90.128639 315.863647,93.603531 
	C289.693481,93.968025 263.835907,93.956871 237.978622,94.043869 
	C235.373199,94.052628 232.769760,94.655037 230.165405,94.981941 
	C228.479294,91.888268 226.793182,88.794594 225.537933,85.346954 
	C251.235825,84.995224 276.502991,85.038124 301.769684,84.949852 
	C305.044586,84.938408 308.317139,84.249680 311.590759,83.874672 
z"/>
<path fill="#EC4A64" opacity="1.000000" stroke="none" 
	d="
M311.378571,83.560074 
	C308.317139,84.249680 305.044586,84.938408 301.769684,84.949852 
	C276.502991,85.038124 251.235825,84.995224 225.502762,84.991577 
	C223.438034,82.218422 221.839325,79.446671 220.651947,76.334564 
	C246.559677,75.996040 272.056183,76.034271 297.552277,75.950325 
	C300.500977,75.940620 303.447418,75.252144 306.394928,74.878372 
	C307.985413,77.667404 309.575897,80.456444 311.378571,83.560074 
z"/>
<path fill="#8C9AD1" opacity="1.000000" stroke="none" 
	d="
M323.077515,206.029602 
	C322.823151,210.580185 320.591644,213.327728 316.371155,215.422119 
	C306.610504,220.265762 297.291321,220.925385 287.561859,215.313644 
	C281.458282,211.793228 275.130737,207.845535 267.617981,209.107941 
	C262.638184,209.944717 257.830231,211.804062 252.305695,212.934753 
	C248.563644,212.442596 245.458145,212.257416 242.359619,211.991196 
	C238.121689,211.627106 233.889053,211.201431 229.654160,210.802139 
	C231.508102,208.549637 233.362030,206.297134 235.785736,204.208466 
	C238.300720,204.581543 240.245682,204.969650 242.191254,204.972870 
	C267.061188,205.013992 291.931305,204.975357 316.801147,205.044647 
	C318.894165,205.050461 320.985443,205.686417 323.077515,206.029602 
z"/>
<path fill="#D8688D" opacity="1.000000" stroke="none" 
	d="
M271.994568,124.860283 
	C269.955109,124.900963 267.915680,124.941635 265.337891,124.558151 
	C263.301086,123.756447 261.810211,123.093307 260.302795,123.053391 
	C255.200348,122.918297 250.092072,123.003975 244.986023,123.005280 
	C244.035965,121.488953 243.085892,119.972633 242.104095,118.405663 
	C249.495667,114.970497 256.480347,111.223907 263.851349,108.537247 
	C266.938751,107.411926 271.025055,107.887306 274.332153,108.805542 
	C278.094666,109.850212 281.653503,111.945854 285.021484,114.035088 
	C295.405151,120.476349 305.946747,118.798729 316.602905,115.078629 
	C318.743835,114.331223 320.866638,113.531853 323.405762,112.608017 
	C324.342804,115.700035 325.169830,118.429161 325.724243,121.857147 
	C323.659546,122.704422 321.867706,122.977173 320.075226,122.981560 
	C305.697754,123.016777 291.319550,122.941254 276.943359,123.083130 
	C275.288086,123.099464 273.643890,124.240639 271.994568,124.860283 
z"/>
<path fill="#F33C52" opacity="1.000000" stroke="none" 
	d="
M216.053207,67.981033 
	C214.714645,65.561844 213.376083,63.142658 212.417404,60.311974 
	C215.083298,59.600475 217.368591,59.046288 219.655426,59.039791 
	C242.470795,58.974979 265.286621,59.040764 288.101501,58.915676 
	C289.736938,58.906715 291.365784,57.688141 292.997681,57.031990 
	C295.547333,60.022343 298.097015,63.012695 300.274872,66.429077 
	C297.285309,67.236595 294.668518,67.941376 292.049622,67.949379 
	C266.717682,68.026794 241.385391,67.987206 216.053207,67.981033 
z"/>
<path fill="#6EA4DE" opacity="1.000000" stroke="none" 
	d="
M44.005302,230.285126 
	C44.753399,230.263931 45.501492,230.242722 46.745369,230.620010 
	C48.290363,231.344879 49.338615,231.952148 50.388927,231.955734 
	C67.721062,232.014771 85.053680,232.032043 102.385345,231.924240 
	C103.595306,231.916702 104.798729,230.855759 106.005188,230.284653 
	C106.753296,230.262726 107.501404,230.240799 108.742447,230.612396 
	C113.488991,231.006912 117.742599,231.007950 121.996216,231.008987 
	C123.609062,233.120056 125.221909,235.231125 126.428680,237.673126 
	C115.405106,238.002731 104.786736,237.929749 94.170792,238.057632 
	C91.923386,238.084717 89.684822,238.845917 87.442184,239.268860 
	C84.761101,238.538391 82.120697,237.497498 79.390770,237.139648 
	C72.973991,236.298538 67.046593,237.825394 61.301098,240.916122 
	C56.547573,243.473206 51.456928,245.458237 46.387974,247.355652 
	C42.847099,248.681091 39.921089,247.420471 38.029789,244.021576 
	C36.105217,240.562912 34.138111,237.127899 32.530739,233.285370 
	C35.256977,232.591629 37.670502,232.432220 40.016449,231.946472 
	C41.401360,231.659714 42.679272,230.856232 44.005302,230.285126 
z"/>
<path fill="#E35B7A" opacity="1.000000" stroke="none" 
	d="
M230.222763,95.321747 
	C232.769760,94.655037 235.373199,94.052628 237.978622,94.043869 
	C263.835907,93.956871 289.693481,93.968025 316.068665,93.928055 
	C317.693970,96.286674 318.801636,98.668678 320.046326,101.345360 
	C310.155884,107.165504 300.337891,110.339188 289.538788,104.280396 
	C287.660797,103.226761 285.624603,102.449181 283.773285,101.354927 
	C273.538483,95.305573 263.393738,95.573792 253.234192,101.551132 
	C251.527435,102.555283 249.644302,103.259636 247.207306,103.836823 
	C242.491241,103.373627 238.410538,103.176132 234.329834,102.978638 
	C232.979935,100.539612 231.630020,98.100578 230.222763,95.321747 
z"/>
<path fill="#F0435B" opacity="1.000000" stroke="none" 
	d="
M37.737293,74.927345 
	C39.586212,71.999306 41.435127,69.071274 43.860519,66.294739 
	C46.227901,66.630928 48.018471,66.972122 49.809784,66.976105 
	C67.751221,67.015938 85.693428,66.912804 103.633980,67.045235 
	C110.401863,67.095192 117.166008,67.653969 123.931854,67.980789 
	C121.772331,70.523590 119.612808,73.066391 116.708633,75.795227 
	C92.833740,75.987411 69.703369,76.031738 46.573425,75.952164 
	C43.626907,75.942024 40.682617,75.284790 37.737293,74.927345 
z"/>
<path fill="#EC4A65" opacity="1.000000" stroke="none" 
	d="
M37.466507,75.113426 
	C40.682617,75.284790 43.626907,75.942024 46.573425,75.952164 
	C69.703369,76.031738 92.833740,75.987411 116.424614,75.970619 
	C113.896820,79.395287 110.908394,82.830605 107.374519,86.064789 
	C104.907120,85.575676 102.985870,85.042923 101.063095,85.037346 
	C80.273758,84.977089 59.483833,85.050941 38.695229,84.913651 
	C36.796452,84.901108 34.905651,83.681068 33.011147,83.021751 
	C34.406006,80.447670 35.800861,77.873589 37.466507,75.113426 
z"/>
<path fill="#A88FC0" opacity="1.000000" stroke="none" 
	d="
M329.146545,177.007675 
	C329.809143,180.584473 328.104126,182.298843 324.815033,183.503510 
	C319.687561,185.381470 314.786835,187.868378 309.718109,189.919510 
	C303.330170,192.504532 297.035828,191.720718 290.932556,188.859116 
	C288.079163,187.521271 285.252502,186.106140 282.509674,184.556274 
	C273.503021,179.466934 264.477295,179.748199 255.379303,184.248032 
	C253.475388,185.189697 251.551773,186.091522 248.921188,187.355835 
	C249.322083,183.649658 249.636841,180.739853 250.482437,177.415070 
	C277.057709,177.002609 303.102112,177.005142 329.146545,177.007675 
z"/>
<path fill="#E8526F" opacity="1.000000" stroke="none" 
	d="
M32.724327,83.211426 
	C34.905651,83.681068 36.796452,84.901108 38.695229,84.913651 
	C59.483833,85.050941 80.273758,84.977089 101.063095,85.037346 
	C102.985870,85.042923 104.907120,85.575676 107.085373,86.260185 
	C105.073364,89.333511 102.805069,92.010292 99.810394,94.834000 
	C94.303513,94.657440 89.523514,94.091286 84.742348,94.081284 
	C80.293465,94.071976 75.840706,94.948227 71.394371,94.908432 
	C64.779152,94.849228 58.171230,94.187286 51.554420,94.037781 
	C43.571896,93.857414 35.583324,93.944641 27.597370,93.916046 
	C29.210749,90.411064 30.824125,86.906082 32.724327,83.211426 
z"/>
<path fill="#F0435B" opacity="1.000000" stroke="none" 
	d="
M216.108429,68.323029 
	C241.385391,67.987206 266.717682,68.026794 292.049622,67.949379 
	C294.668518,67.941376 297.285309,67.236595 300.388123,66.782944 
	C302.588318,69.232605 304.303406,71.754448 306.206726,74.577332 
	C303.447418,75.252144 300.500977,75.940620 297.552277,75.950325 
	C272.056183,76.034271 246.559677,75.996040 220.604752,75.992027 
	C218.818680,73.548233 217.491165,71.106628 216.108429,68.323029 
z"/>
<path fill="#4BABE8" opacity="1.000000" stroke="none" 
	d="
M291.057922,263.098480 
	C285.531555,269.607361 285.447723,269.818970 278.058929,266.891205 
	C270.789520,264.010712 263.883972,264.425690 257.003479,267.862030 
	C253.430618,269.646393 249.851959,271.420929 246.245651,273.136261 
	C239.359619,276.411621 232.578781,276.755676 225.829254,272.591766 
	C222.585007,270.590363 219.279144,268.532471 215.738022,267.198944 
	C206.449234,263.700867 201.290802,263.536743 186.876160,270.415680 
	C188.174973,267.222198 189.160889,264.798065 190.868256,262.156677 
	C222.868866,261.959625 254.148071,261.960907 285.427063,262.046814 
	C287.304962,262.051971 289.181000,262.732300 291.057922,263.098480 
z"/>
<path fill="#A7E8FF" opacity="1.000000" stroke="none" 
	d="
M141.611038,220.280228 
	C146.746658,222.658981 151.532791,224.883392 156.304062,227.139206 
	C168.294800,232.808365 180.012680,232.066833 191.515884,225.707306 
	C192.451569,225.190002 193.478134,224.837128 194.269562,224.491974 
	C190.685852,230.649719 187.288376,236.756454 183.617371,242.694061 
	C181.425491,246.239258 174.079025,248.329819 169.052567,246.467072 
	C162.079346,243.882858 155.285889,240.784637 148.541672,237.636124 
	C147.211075,237.014923 146.329895,235.246719 145.452835,233.872559 
	C142.710236,229.575500 140.068802,225.213867 136.932510,220.140167 
	C138.857330,220.140167 140.056061,220.140167 141.611038,220.280228 
z"/>
<path fill="#AD8CBD" opacity="1.000000" stroke="none" 
	d="
M125.435875,175.863190 
	C125.483879,177.091370 125.531883,178.319550 124.889938,179.783936 
	C112.066338,180.013428 99.932243,179.954773 87.799583,180.060440 
	C86.130913,180.074966 84.469353,180.905441 82.804504,181.358170 
	C78.238831,181.327988 73.673164,181.297821 68.377823,180.955322 
	C66.861519,180.432327 66.075363,180.040009 65.288162,180.037888 
	C50.626209,179.998474 35.963951,179.974487 21.302431,180.061554 
	C20.130257,180.068512 18.963034,180.909164 17.793512,181.362396 
	C16.861940,180.846909 15.240322,180.466293 15.108997,179.794388 
	C14.140740,174.840500 13.469868,169.828476 12.515431,163.593765 
	C25.059555,169.262756 35.955849,175.868820 49.631187,174.389771 
	C50.858307,175.201569 51.527126,175.928040 52.199223,175.931076 
	C67.488556,176.000320 82.778519,176.025742 98.067284,175.913162 
	C99.047127,175.905960 100.018257,174.716492 100.993446,174.077011 
	C103.373390,174.132843 105.753342,174.188690 108.696686,174.641876 
	C114.652008,175.313873 120.043945,175.588531 125.435875,175.863190 
z"/>
<path fill="#F33C51" opacity="1.000000" stroke="none" 
	d="
M124.229431,67.828003 
	C117.166008,67.653969 110.401863,67.095192 103.633980,67.045235 
	C85.693428,66.912804 67.751221,67.015938 49.809784,66.976105 
	C48.018471,66.972122 46.227901,66.630928 44.153877,66.117691 
	C46.016468,62.892799 48.162174,59.996445 50.713505,57.365852 
	C52.913921,58.087814 54.707100,58.933559 56.503738,58.940968 
	C78.570213,59.031952 100.637314,58.964924 122.703873,59.044796 
	C125.477921,59.054836 128.249786,59.671597 131.022659,60.007248 
	C128.857452,62.563240 126.692230,65.119225 124.229431,67.828003 
z"/>
<path fill="#79A3DB" opacity="1.000000" stroke="none" 
	d="
M311.548981,233.887939 
	C309.050934,233.747894 306.793610,233.052933 304.534546,233.047119 
	C273.621826,232.967529 242.708878,232.983109 211.313446,232.953842 
	C212.659119,230.599030 214.316040,228.091721 216.410645,226.028824 
	C217.121338,225.328873 219.247665,225.202835 220.200394,225.743210 
	C232.204468,232.551697 243.807907,230.819672 255.327713,224.519241 
	C257.800049,223.167068 260.433136,222.108780 262.993103,220.917084 
	C267.208405,218.954788 271.362122,219.212448 275.465668,221.266037 
	C278.442261,222.755646 281.471588,224.149170 284.386566,225.750839 
	C292.829803,230.390167 301.713745,231.116882 310.964844,228.978989 
	C311.868347,228.770203 312.786407,228.624374 314.717133,228.253555 
	C313.454407,230.582138 312.621674,232.117783 311.548981,233.887939 
z"/>
<path fill="#8E98CF" opacity="1.000000" stroke="none" 
	d="
M99.063805,201.873840 
	C103.717628,201.866531 108.371452,201.859222 113.685402,202.152344 
	C115.604622,202.983978 116.863724,203.515167 118.122826,204.046356 
	C117.705849,205.894730 117.288864,207.743103 116.148293,209.825089 
	C110.342033,210.039124 105.253410,209.860092 100.178543,210.049530 
	C95.982323,210.206177 91.802361,210.798065 87.615189,211.197113 
	C80.038307,208.626724 72.438080,207.690048 64.161667,210.674789 
	C61.976879,209.991837 60.402229,209.062592 58.843071,209.087875 
	C46.633358,209.286057 34.426617,209.667313 22.218958,209.992096 
	C21.716290,208.305176 21.213621,206.618271 21.091591,204.370148 
	C23.536364,203.539307 25.600962,203.273178 27.664509,202.999130 
	C30.464657,202.627258 33.264004,202.249313 36.063690,201.873962 
	C41.049034,201.867386 46.034374,201.860825 51.771736,202.191833 
	C67.494164,202.658066 82.464516,202.797775 97.435188,202.870911 
	C97.976425,202.873550 98.520859,202.221039 99.063805,201.873840 
z"/>
<path fill="#C579A4" opacity="1.000000" stroke="none" 
	d="
M13.675464,148.936523 
	C13.968598,145.168030 14.261732,141.399536 14.595314,137.111038 
	C21.139179,139.930573 26.790195,143.015717 32.824070,144.821793 
	C43.444050,148.000610 53.854641,146.534180 63.068996,140.279297 
	C71.967636,134.238739 80.293091,134.343170 88.746735,140.809387 
	C94.637367,145.315140 101.367348,146.728287 108.664429,146.085419 
	C109.425499,146.018356 110.261642,146.803467 110.690079,147.584778 
	C78.103279,148.296417 45.889374,148.616470 13.675464,148.936523 
z"/>
<path fill="#AF8ABA" opacity="1.000000" stroke="none" 
	d="
M329.335083,176.642685 
	C303.102112,177.005142 277.057709,177.002609 250.552414,176.999512 
	C249.238190,172.756134 250.864517,170.097000 254.984329,168.631165 
	C257.779083,167.636826 260.392731,166.136414 263.095123,164.879028 
	C267.304474,162.920441 271.440338,163.231949 275.522400,165.295090 
	C279.224640,167.166275 282.960022,168.973145 286.639832,170.887115 
	C295.696716,175.597824 304.967865,175.176422 314.244110,171.853119 
	C319.298492,170.042328 324.182159,167.755112 330.238617,165.225021 
	C329.957489,169.570480 329.740540,172.924088 329.335083,176.642685 
z"/>
<path fill="#2CAFED" opacity="1.000000" stroke="none" 
	d="
M222.118835,282.730835 
	C233.150726,288.089752 243.790512,286.411652 254.670563,281.273102 
	C256.697266,282.068207 258.245209,282.700531 259.853394,282.960541 
	C262.995392,283.468536 266.171051,283.768494 269.332764,284.154572 
	C265.438110,287.034973 261.543427,289.915375 257.116943,292.533936 
	C254.552307,291.848053 252.521362,291.065674 250.486267,291.054688 
	C226.507812,290.925171 202.528717,290.911163 178.549805,290.866730 
	C179.031906,285.558105 183.236404,284.424713 188.017761,283.217529 
	C199.523087,283.465515 210.276947,283.601257 221.031235,283.675507 
	C221.391571,283.677979 221.756195,283.059753 222.118835,282.730835 
z"/>
<path fill="#9496CC" opacity="1.000000" stroke="none" 
	d="
M323.317200,205.745972 
	C320.985443,205.686417 318.894165,205.050461 316.801147,205.044647 
	C291.931305,204.975357 267.061188,205.013992 242.191254,204.972870 
	C240.245682,204.969650 238.300720,204.581543 236.069916,204.023697 
	C236.738358,203.167038 237.645691,202.525635 238.653976,202.172592 
	C245.163452,199.893448 251.908630,198.146820 258.156891,195.303406 
	C263.961548,192.661865 269.484680,189.997757 275.643707,193.457977 
	C293.978851,203.758911 300.683380,205.621826 326.097626,195.801987 
	C325.164093,199.351379 324.360474,202.406860 323.317200,205.745972 
z"/>
<path fill="#D6688E" opacity="1.000000" stroke="none" 
	d="
M94.203758,115.894730 
	C95.724617,118.028885 97.245476,120.163040 98.366486,122.713577 
	C94.521446,123.420227 91.060120,123.590874 87.637985,124.052277 
	C85.977455,124.276161 84.390358,125.044640 82.770020,125.566574 
	C78.225525,125.528389 73.681023,125.490204 68.437073,125.114655 
	C65.975426,124.518402 64.214401,124.044151 62.450832,124.034500 
	C47.512177,123.952713 32.573055,123.955627 17.634075,123.933121 
	C18.437586,119.962608 19.241096,115.992096 20.134474,111.577507 
	C32.464138,118.036545 44.522610,120.912712 57.762882,115.575089 
	C59.735615,116.277542 61.240692,116.933067 62.753479,116.951370 
	C71.161682,117.053139 79.572792,117.071434 87.980461,116.949760 
	C90.059547,116.919670 92.129570,116.263237 94.203758,115.894730 
z"/>
<path fill="#52A9E6" opacity="1.000000" stroke="none" 
	d="
M291.369690,262.978333 
	C289.181000,262.732300 287.304962,262.051971 285.427063,262.046814 
	C254.148071,261.960907 222.868866,261.959625 191.087997,261.895294 
	C191.544052,259.392822 192.501816,256.934509 194.122650,254.284164 
	C201.503296,254.342804 208.220093,254.691513 214.939178,254.742615 
	C215.996140,254.750656 217.063385,253.410446 218.125885,252.693634 
	C224.371765,255.666473 230.602219,258.984161 237.825836,257.924835 
	C242.006470,257.311737 246.082336,255.984329 250.679688,255.344315 
	C251.800034,256.129150 252.443085,256.907776 253.092484,256.913116 
	C263.183624,256.995941 273.276428,257.034973 283.365967,256.888458 
	C284.274597,256.875275 285.163635,255.514084 286.061768,254.778915 
	C289.144562,255.797821 292.227386,256.816711 296.046509,258.078979 
	C294.407684,259.873322 293.044556,261.365753 291.369690,262.978333 
z"/>
<path fill="#C07DA9" opacity="1.000000" stroke="none" 
	d="
M13.495697,149.237732 
	C45.889374,148.616470 78.103279,148.296417 110.777542,147.957458 
	C112.261147,149.687088 113.284401,151.435654 113.939537,153.595856 
	C108.207359,154.338547 102.838722,154.610382 97.481102,155.024612 
	C94.633553,155.244781 91.805092,155.711761 88.968010,156.067337 
	C79.413757,151.257507 70.031166,152.107300 60.172234,156.718842 
	C49.312019,156.214981 39.049225,155.869110 28.783518,155.690186 
	C27.824297,155.673462 26.846676,156.712280 25.877598,157.261002 
	C22.491390,155.947693 19.002537,154.838135 15.774089,153.211685 
	C14.628663,152.634613 14.116942,150.799667 13.495697,149.237732 
z"/>
<path fill="#F63648" opacity="1.000000" stroke="none" 
	d="
M131.323135,59.866859 
	C128.249786,59.671597 125.477921,59.054836 122.703873,59.044796 
	C100.637314,58.964924 78.570213,59.031952 56.503738,58.940968 
	C54.707100,58.933559 52.913921,58.087814 51.023590,57.221992 
	C52.192028,55.219765 53.456017,53.627167 55.505333,51.963371 
	C77.112633,51.928265 97.935150,51.890110 118.756218,52.046421 
	C124.876236,52.092369 130.992111,52.689510 137.109894,53.034042 
	C135.281143,55.264851 133.452377,57.495659 131.323135,59.866859 
z"/>
<path fill="#E35B7B" opacity="1.000000" stroke="none" 
	d="
M27.364447,94.161613 
	C35.583324,93.944641 43.571896,93.857414 51.554420,94.037781 
	C58.171230,94.187286 64.779152,94.849228 71.394371,94.908432 
	C75.840706,94.948227 80.293465,94.071976 84.742348,94.081284 
	C89.523514,94.091286 94.303513,94.657440 99.507568,94.977371 
	C98.203636,96.899712 96.698875,99.126541 94.661812,100.634094 
	C93.513664,101.483780 91.028503,101.900887 89.929695,101.229546 
	C79.541740,94.882812 69.383003,95.827179 59.548130,102.085983 
	C50.103748,108.096291 40.667023,109.333183 30.465046,104.074867 
	C24.141895,100.815788 24.012980,101.065910 27.364447,94.161613 
z"/>
<path fill="#FE1016" opacity="1.000000" stroke="none" 
	d="
M241.902466,16.398083 
	C240.737366,17.441769 239.355240,18.897032 237.969147,18.900820 
	C194.241226,19.020416 150.512863,19.015373 106.784775,18.927479 
	C105.322227,18.924540 103.861786,17.867214 102.051727,17.083664 
	C104.460709,15.539956 107.218338,14.213953 110.707184,13.050376 
	C113.265945,13.808418 115.092056,14.918620 116.921242,14.923682 
	C153.625168,15.025267 190.329620,15.038063 227.033279,14.897141 
	C229.080154,14.889283 231.121323,13.399272 233.165146,12.599125 
	C236.004623,13.777084 238.844101,14.955047 241.902466,16.398083 
z"/>
<path fill="#FA2633" opacity="1.000000" stroke="none" 
	d="
M76.648148,32.031219 
	C78.719612,32.597610 80.477913,33.897282 82.244667,33.908878 
	C103.650841,34.049389 125.058281,33.981743 146.465256,34.030754 
	C148.415878,34.035221 150.365509,34.471184 152.704926,34.877663 
	C151.242920,37.252148 149.391602,39.455738 146.830826,41.815147 
	C143.167282,41.647358 140.214233,41.054420 137.258957,41.043274 
	C115.930305,40.962822 94.601051,41.034630 73.272522,40.938629 
	C71.445572,40.930408 69.622536,40.055225 67.797676,39.582779 
	C70.644753,37.110527 73.491837,34.638271 76.648148,32.031219 
z"/>
<path fill="#FA2533" opacity="1.000000" stroke="none" 
	d="
M198.977692,35.458237 
	C200.816803,34.737782 202.679672,34.055939 204.545319,34.048294 
	C223.748138,33.969597 242.951431,34.013577 262.154510,33.977592 
	C263.943298,33.974239 265.731506,33.656948 267.803101,33.163918 
	C270.524841,34.866291 272.963409,36.890171 275.573975,39.470665 
	C274.031464,40.351570 272.317871,40.952423 270.602386,40.957954 
	C250.279160,41.023483 229.955551,40.966965 209.632416,41.043507 
	C207.181595,41.052738 204.733002,41.655560 202.283386,41.983261 
	C201.189835,39.925442 200.096283,37.867619 198.977692,35.458237 
z"/>
<path fill="#F53649" opacity="1.000000" stroke="none" 
	d="
M292.719269,56.844307 
	C291.365784,57.688141 289.736938,58.906715 288.101501,58.915676 
	C265.286621,59.040764 242.470795,58.974979 219.655426,59.039791 
	C217.368591,59.046288 215.083298,59.600475 212.379486,59.956390 
	C210.697220,57.900906 209.432770,55.789505 208.592957,53.338219 
	C233.319016,52.998890 257.620728,53.049503 281.921356,52.909248 
	C283.964874,52.897453 286.000977,51.604305 288.040527,50.906452 
	C289.507294,52.823177 290.974091,54.739902 292.719269,56.844307 
z"/>
<path fill="#F92B3B" opacity="1.000000" stroke="none" 
	d="
M67.485809,39.711563 
	C69.622536,40.055225 71.445572,40.930408 73.272522,40.938629 
	C94.601051,41.034630 115.930305,40.962822 137.258957,41.043274 
	C140.214233,41.054420 143.167282,41.647358 146.541901,41.978783 
	C145.284393,43.939732 143.606339,45.892857 141.244965,47.838276 
	C138.446213,47.553764 136.331375,47.041889 134.215240,47.036346 
	C111.898140,46.977852 89.580536,47.047840 67.264145,46.908970 
	C65.490814,46.897934 63.725525,45.594845 61.956497,44.892212 
	C63.695644,43.208256 65.434792,41.524300 67.485809,39.711563 
z"/>
<path fill="#FE0D12" opacity="1.000000" stroke="none" 
	d="
M232.901093,12.350273 
	C231.121323,13.399272 229.080154,14.889283 227.033279,14.897141 
	C190.329620,15.038063 153.625168,15.025267 116.921242,14.923682 
	C115.092056,14.918620 113.265945,13.808418 111.067360,13.040081 
	C113.851036,11.550954 117.005760,10.234547 120.532837,8.851927 
	C122.589600,9.523662 124.271355,10.898143 125.958794,10.905167 
	C156.943024,11.034123 187.927933,11.015397 218.912537,10.943892 
	C220.228531,10.940855 221.542664,10.127102 222.951172,9.286640 
	C226.242126,9.955312 229.439590,11.028366 232.901093,12.350273 
z"/>
<path fill="#D37096" opacity="1.000000" stroke="none" 
	d="
M272.366882,124.950218 
	C273.643890,124.240639 275.288086,123.099464 276.943359,123.083130 
	C291.319550,122.941254 305.697754,123.016777 320.075226,122.981560 
	C321.867706,122.977173 323.659546,122.704422 325.745056,122.251541 
	C327.857300,124.871658 327.176849,126.683739 323.863678,127.950851 
	C320.151306,129.370651 316.616058,131.251556 312.995605,132.914093 
	C305.089111,136.544861 297.380219,136.267776 289.561127,132.319626 
	C284.116730,129.570526 278.357666,127.444511 272.366882,124.950218 
z"/>
<path fill="#2FAEED" opacity="1.000000" stroke="none" 
	d="
M152.379501,280.844177 
	C155.264511,282.551849 158.149536,284.259521 160.842102,286.655090 
	C158.869049,287.562012 157.088806,287.968231 155.307785,287.971588 
	C132.530579,288.014618 109.753036,287.961151 86.976349,288.080414 
	C85.317291,288.089111 83.664246,289.244598 82.008408,289.866882 
	C79.290085,287.834808 76.571762,285.802734 74.084381,283.409729 
	C79.220802,282.359955 84.126289,281.671082 89.031769,280.982178 
	C101.650757,288.787445 113.988182,286.737915 126.829193,280.191467 
	C135.772491,280.589630 144.076004,280.716888 152.379501,280.844177 
z"/>
<path fill="#C17AA6" opacity="1.000000" stroke="none" 
	d="
M329.909515,146.998718 
	C330.003632,148.390488 330.097778,149.782272 329.670898,151.588654 
	C313.873871,152.002365 298.597534,151.951447 283.322266,152.055511 
	C281.074646,152.070831 278.832001,152.821320 276.587067,153.231674 
	C271.831360,153.235046 267.075653,153.238419 261.448181,153.128418 
	C257.821838,152.670822 255.067230,152.326584 252.312622,151.982361 
	C252.508850,150.559570 252.705048,149.136780 253.435913,147.356995 
	C263.802032,146.999969 273.635834,147.110413 283.462952,146.903259 
	C285.343536,146.863617 287.197693,145.573074 289.064056,144.859650 
	C295.693146,145.163422 302.322266,145.467194 309.676636,146.089172 
	C316.904480,146.604507 323.406982,146.801605 329.909515,146.998718 
z"/>
<path fill="#F73042" opacity="1.000000" stroke="none" 
	d="
M61.650475,45.034004 
	C63.725525,45.594845 65.490814,46.897934 67.264145,46.908970 
	C89.580536,47.047840 111.898140,46.977852 134.215240,47.036346 
	C136.331375,47.041889 138.446213,47.553764 140.973038,48.007671 
	C140.152695,49.688736 138.920975,51.192696 137.399567,52.865349 
	C130.992111,52.689510 124.876236,52.092369 118.756218,52.046421 
	C97.935150,51.890110 77.112633,51.928265 55.767113,51.816971 
	C57.277195,49.553112 59.310825,47.364452 61.650475,45.034004 
z"/>
<path fill="#28AFEE" opacity="1.000000" stroke="none" 
	d="
M82.304108,290.047791 
	C83.664246,289.244598 85.317291,288.089111 86.976349,288.080414 
	C109.753036,287.961151 132.530579,288.014618 155.307785,287.971588 
	C157.088806,287.968231 158.869049,287.562012 160.919052,286.986572 
	C162.406372,288.200684 163.624283,289.771271 164.560028,291.827637 
	C162.522385,292.542236 160.770157,292.800781 159.010712,292.993591 
	C155.649979,293.361847 152.285141,293.692627 148.921997,294.038940 
	C141.445465,290.962769 134.128128,291.421204 126.244720,294.842834 
	C124.411697,294.107117 123.293198,293.096069 122.160370,293.079742 
	C113.059044,292.948639 103.953033,292.912323 94.853966,293.105804 
	C93.510353,293.134399 92.195656,294.521973 90.867577,295.280792 
	C88.111664,293.596741 85.355743,291.912689 82.304108,290.047791 
z"/>
<path fill="#7AA3DB" opacity="1.000000" stroke="none" 
	d="
M105.593185,230.172150 
	C104.798729,230.855759 103.595306,231.916702 102.385345,231.924240 
	C85.053680,232.032043 67.721062,232.014771 50.388927,231.955734 
	C49.338615,231.952148 48.290363,231.344879 47.118690,230.651230 
	C52.388733,228.256546 58.261688,227.006119 63.069481,224.033157 
	C71.923889,218.557877 79.759407,218.862167 88.558105,224.283249 
	C93.434380,227.287628 99.597893,228.202774 105.593185,230.172150 
z"/>
<path fill="#BF81AD" opacity="1.000000" stroke="none" 
	d="
M276.814331,153.506226 
	C278.832001,152.821320 281.074646,152.070831 283.322266,152.055511 
	C298.597534,151.951447 313.873871,152.002365 329.628662,152.005997 
	C329.914948,152.592957 329.882965,153.540771 329.506042,153.707123 
	C323.314209,156.439850 317.102600,159.131516 310.846924,161.714935 
	C304.019073,164.534668 297.274841,164.050446 290.717072,160.785202 
	C286.132660,158.502502 281.598297,156.119156 276.814331,153.506226 
z"/>
<path fill="#F92B3B" opacity="1.000000" stroke="none" 
	d="
M202.346573,42.295273 
	C204.733002,41.655560 207.181595,41.052738 209.632416,41.043507 
	C229.955551,40.966965 250.279160,41.023483 270.602386,40.957954 
	C272.317871,40.952423 274.031464,40.351570 275.863586,39.655563 
	C278.284760,41.300541 280.588257,43.317242 282.555664,45.655308 
	C262.606476,45.984501 242.992905,45.915524 223.380630,46.045643 
	C217.274643,46.086151 211.172241,46.665520 205.068192,46.998199 
	C204.182053,45.534561 203.295898,44.070923 202.346573,42.295273 
z"/>
<path fill="#D36F96" opacity="1.000000" stroke="none" 
	d="
M17.472244,124.198982 
	C32.573055,123.955627 47.512177,123.952713 62.450832,124.034500 
	C64.214401,124.044151 65.975426,124.518402 67.989258,125.169739 
	C64.549255,127.451279 60.713608,129.106857 57.195095,131.276688 
	C49.172417,136.224197 40.997150,136.738953 32.476624,132.851730 
	C27.791401,130.714249 23.087383,128.615753 18.447430,126.384109 
	C17.889734,126.115891 17.680927,125.122253 17.472244,124.198982 
z"/>
<path fill="#A690C2" opacity="1.000000" stroke="none" 
	d="
M18.006287,181.621567 
	C18.963034,180.909164 20.130257,180.068512 21.302431,180.061554 
	C35.963951,179.974487 50.626209,179.998474 65.288162,180.037888 
	C66.075363,180.040009 66.861519,180.432327 67.927368,180.999191 
	C63.378944,183.905457 58.574173,186.500046 53.717991,188.994553 
	C47.392406,192.243866 40.857117,192.132095 34.452499,189.476212 
	C28.939478,187.190063 23.622643,184.430801 18.006287,181.621567 
z"/>
<path fill="#23B0EF" opacity="1.000000" stroke="none" 
	d="
M178.335022,291.126892 
	C202.528717,290.911163 226.507812,290.925171 250.486267,291.054688 
	C252.521362,291.065674 254.552307,291.848053 256.783173,292.612976 
	C255.215927,293.905518 253.450684,294.857208 251.082367,295.642456 
	C240.596008,295.339172 230.712875,295.177399 220.829147,295.121399 
	C220.164795,295.117615 219.495911,295.913116 218.829132,296.336884 
	C207.317169,290.893921 196.541626,292.311737 185.973145,299.200775 
	C182.753906,301.299255 178.602875,301.968323 174.447128,302.944275 
	C174.001633,302.374298 173.987625,302.152069 173.973602,301.929810 
	C175.355835,298.415558 176.738037,294.901306 178.335022,291.126892 
z"/>
<path fill="#48ACE9" opacity="1.000000" stroke="none" 
	d="
M83.328934,266.014526 
	C84.006119,265.225983 84.993195,264.088959 85.988983,264.081299 
	C100.546120,263.969086 115.104477,263.993561 129.662262,264.053253 
	C130.363037,264.056122 131.061264,264.685883 131.870026,265.399841 
	C125.997940,268.530426 119.978683,271.206146 114.043983,274.057831 
	C105.204979,278.305084 97.997322,273.777679 90.641228,269.904419 
	C88.304550,268.674072 85.975441,267.429352 83.328934,266.014526 
z"/>
<path fill="#A68FC1" opacity="1.000000" stroke="none" 
	d="
M83.058441,181.585815 
	C84.469353,180.905441 86.130913,180.074966 87.799583,180.060440 
	C99.932243,179.954773 112.066338,180.013428 124.683228,180.039673 
	C125.409851,183.315369 123.668457,184.973282 120.930817,186.568848 
	C111.187874,192.247192 101.784027,193.174393 92.194420,186.196320 
	C89.563644,184.281982 86.290665,183.250198 83.058441,181.585815 
z"/>
<path fill="#F73142" opacity="1.000000" stroke="none" 
	d="
M287.936615,50.612328 
	C286.000977,51.604305 283.964874,52.897453 281.921356,52.909248 
	C257.620728,53.049503 233.319016,52.998890 208.555145,52.996895 
	C207.434479,51.879662 206.776260,50.763874 206.565704,49.323563 
	C231.167404,48.999397 255.321503,49.025475 279.475311,48.949722 
	C281.343597,48.943863 283.209625,48.222488 285.076721,47.833679 
	C285.995392,48.661850 286.914032,49.490025 287.936615,50.612328 
z"/>
<path fill="#9596CC" opacity="1.000000" stroke="none" 
	d="
M98.790939,201.658936 
	C98.520859,202.221039 97.976425,202.873550 97.435188,202.870911 
	C82.464516,202.797775 67.494164,202.658066 52.235546,202.214508 
	C57.422367,199.199570 62.953136,196.605728 68.357170,193.770355 
	C74.066483,190.774796 79.376396,191.438889 84.823936,194.557083 
	C89.251877,197.091660 93.943436,199.165726 98.790939,201.658936 
z"/>
<path fill="#8B9DD3" opacity="1.000000" stroke="none" 
	d="
M22.232077,210.337357 
	C34.426617,209.667313 46.633358,209.286057 58.843071,209.087875 
	C60.402229,209.062592 61.976879,209.991837 63.792366,210.780380 
	C62.627831,211.939606 61.120674,212.674042 59.817410,213.674164 
	C47.234848,223.330185 35.169510,219.180557 23.219547,212.328110 
	C22.738434,212.052216 22.563036,211.243225 22.232077,210.337357 
z"/>
<path fill="#C77AA4" opacity="1.000000" stroke="none" 
	d="
M288.915222,144.553101 
	C287.197693,145.573074 285.343536,146.863617 283.462952,146.903259 
	C273.635834,147.110413 263.802032,146.999969 253.505325,147.000061 
	C252.359314,143.241058 253.934830,141.273148 257.322388,139.271194 
	C265.367920,134.516449 272.832123,134.550888 280.527252,139.709061 
	C283.121704,141.448196 286.011536,142.746689 288.915222,144.553101 
z"/>
<path fill="#6CA6E0" opacity="1.000000" stroke="none" 
	d="
M87.666214,239.547195 
	C89.684822,238.845917 91.923386,238.084717 94.170792,238.057632 
	C104.786736,237.929749 115.405106,238.002731 126.487198,238.007538 
	C127.149368,238.251724 127.346947,238.492416 127.544525,238.733124 
	C119.314949,243.407745 111.427925,249.881073 101.093788,246.698318 
	C96.429466,245.261765 92.275665,242.167633 87.666214,239.547195 
z"/>
<path fill="#20AFEF" opacity="1.000000" stroke="none" 
	d="
M91.066040,295.557068 
	C92.195656,294.521973 93.510353,293.134399 94.853966,293.105804 
	C103.953033,292.912323 113.059044,292.948639 122.160370,293.079742 
	C123.293198,293.096069 124.411697,294.107117 125.875198,294.883514 
	C121.937088,297.458435 117.701286,299.885406 113.371910,302.132050 
	C109.602333,304.088226 105.845901,304.060730 102.082207,301.800842 
	C98.553963,299.682343 94.876366,297.812561 91.066040,295.557068 
z"/>
<path fill="#F82F3F" opacity="1.000000" stroke="none" 
	d="
M284.981506,47.571869 
	C283.209625,48.222488 281.343597,48.943863 279.475311,48.949722 
	C255.321503,49.025475 231.167404,48.999397 206.550583,48.998070 
	C205.752487,48.524853 205.417175,48.052612 205.075027,47.289284 
	C211.172241,46.665520 217.274643,46.086151 223.380630,46.045643 
	C242.992905,45.915524 262.606476,45.984501 282.700195,45.959743 
	C283.749298,46.398560 284.317810,46.854305 284.981506,47.571869 
z"/>
<path fill="#AD89BA" opacity="1.000000" stroke="none" 
	d="
M100.616547,174.025314 
	C100.018257,174.716492 99.047127,175.905960 98.067284,175.913162 
	C82.778519,176.025742 67.488556,176.000320 52.199223,175.931076 
	C51.527126,175.928040 50.858307,175.201569 50.095169,174.418121 
	C53.424652,172.722794 56.846924,171.421432 60.906662,170.334167 
	C68.996124,170.698639 76.447990,170.932678 83.900223,170.944748 
	C85.944550,170.948059 87.989967,170.286758 90.034882,169.930450 
	C93.436470,171.278168 96.838058,172.625900 100.616547,174.025314 
z"/>
<path fill="#DB678A" opacity="1.000000" stroke="none" 
	d="
M93.941216,115.640976 
	C92.129570,116.263237 90.059547,116.919670 87.980461,116.949760 
	C79.572792,117.071434 71.161682,117.053139 62.753479,116.951370 
	C61.240692,116.933067 59.735615,116.277542 58.130768,115.532410 
	C62.094032,112.961655 66.094360,110.654655 70.227921,108.618080 
	C75.424164,106.057930 80.155602,107.734650 84.756470,110.518242 
	C87.652435,112.270325 90.699432,113.772781 93.941216,115.640976 
z"/>
<path fill="#BD84B1" opacity="1.000000" stroke="none" 
	d="
M26.115452,157.497925 
	C26.846676,156.712280 27.824297,155.673462 28.783518,155.690186 
	C39.049225,155.869110 49.312019,156.214981 59.820404,156.825073 
	C49.472301,165.319489 39.499390,165.496902 26.115452,157.497925 
z"/>
<path fill="#899DD3" opacity="1.000000" stroke="none" 
	d="
M87.839783,211.469147 
	C91.802361,210.798065 95.982323,210.206177 100.178543,210.049530 
	C105.253410,209.860092 110.342033,210.039124 115.932503,210.102753 
	C114.828590,218.979416 108.338921,222.072113 99.308853,218.001724 
	C95.411842,216.245102 91.803719,213.847565 87.839783,211.469147 
z"/>
<path fill="#38AFEC" opacity="1.000000" stroke="none" 
	d="
M221.923035,282.458954 
	C221.756195,283.059753 221.391571,283.677979 221.031235,283.675507 
	C210.276947,283.601257 199.523087,283.465515 188.386780,283.171082 
	C188.836853,282.508484 189.716431,282.078857 190.494690,281.510529 
	C201.083954,273.777344 211.485458,274.159576 221.923035,282.458954 
z"/>
<path fill="#20AFEF" opacity="1.000000" stroke="none" 
	d="
M219.046814,296.592773 
	C219.495911,295.913116 220.164795,295.117615 220.829147,295.121399 
	C230.712875,295.177399 240.596008,295.339172 250.765076,295.790039 
	C249.619675,297.124176 248.139862,298.082947 246.765060,299.174011 
	C236.857498,307.036926 227.993057,302.793671 219.046814,296.592773 
z"/>
<path fill="#BD82AF" opacity="1.000000" stroke="none" 
	d="
M89.187134,156.322113 
	C91.805092,155.711761 94.633553,155.244781 97.481102,155.024612 
	C102.838722,154.610382 108.207359,154.338547 114.033516,153.937042 
	C118.412903,159.960175 117.960403,161.007950 111.118958,162.829803 
	C102.583946,165.102600 96.077400,160.620285 89.187134,156.322113 
z"/>
<path fill="#B58BB9" opacity="1.000000" stroke="none" 
	d="
M89.831070,169.662689 
	C87.989967,170.286758 85.944550,170.948059 83.900223,170.944748 
	C76.447990,170.932678 68.996124,170.698639 61.253994,170.239563 
	C71.857330,161.566940 77.164665,161.467712 89.831070,169.662689 
z"/>
<path fill="#8A9ED4" opacity="1.000000" stroke="none" 
	d="
M229.346008,210.926544 
	C233.889053,211.201431 238.121689,211.627106 242.359619,211.991196 
	C245.458145,212.257416 248.563644,212.442596 251.943420,213.025040 
	C241.725769,220.566864 233.461884,221.347916 225.624191,215.524246 
	C226.760010,214.035858 227.898926,212.543411 229.346008,210.926544 
z"/>
<path fill="#57AAE6" opacity="1.000000" stroke="none" 
	d="
M285.848022,254.536682 
	C285.163635,255.514084 284.274597,256.875275 283.365967,256.888458 
	C273.276428,257.034973 263.183624,256.995941 253.092484,256.913116 
	C252.443085,256.907776 251.800034,256.129150 251.063644,255.305573 
	C253.411530,253.630386 255.849792,252.359894 258.878357,251.339935 
	C266.396240,251.691879 273.323792,251.793274 280.251373,251.894669 
	C282.045685,252.694595 283.839996,253.494522 285.848022,254.536682 
z"/>
<path fill="#61ABE5" opacity="1.000000" stroke="none" 
	d="
M87.906540,252.442474 
	C87.678452,253.146790 87.219421,254.006195 86.775970,253.998230 
	C78.953598,253.857819 71.133118,253.611679 63.089035,253.040894 
	C72.644211,245.788712 77.326889,245.694473 87.906540,252.442474 
z"/>
<path fill="#26B1EF" opacity="1.000000" stroke="none" 
	d="
M173.620087,302.001160 
	C173.987625,302.152069 174.001633,302.374298 174.037445,302.930969 
	C169.643936,302.312592 165.089783,301.760193 160.853424,300.291260 
	C156.836212,298.898376 153.151932,296.545258 149.121613,294.326660 
	C152.285141,293.692627 155.649979,293.361847 159.010712,292.993591 
	C160.770157,292.800781 162.522385,292.542236 164.663147,292.146790 
	C167.787796,295.344269 170.527191,298.708405 173.620087,302.001160 
z"/>
<path fill="#61ABE5" opacity="1.000000" stroke="none" 
	d="
M217.903778,252.443970 
	C217.063385,253.410446 215.996140,254.750656 214.939178,254.742615 
	C208.220093,254.691513 201.503296,254.342804 194.366486,254.035431 
	C196.632874,248.702072 204.900711,246.046387 211.129272,248.634659 
	C213.412247,249.583344 215.503174,250.994232 217.903778,252.443970 
z"/>
<path fill="#13B1F0" opacity="1.000000" stroke="none" 
	d="
M151.587097,308.083710 
	C146.406677,308.578979 141.031937,308.638336 135.686707,309.066376 
	C133.166306,309.268219 130.702591,310.177551 127.984413,311.119507 
	C126.027428,310.983154 124.299217,310.493591 122.299202,309.927032 
	C137.990707,299.915802 137.953125,300.395172 151.587097,308.083710 
z"/>
<path fill="#6CA8E1" opacity="1.000000" stroke="none" 
	d="
M286.180237,242.409058 
	C287.354431,241.436447 288.729156,240.161194 290.156464,240.099365 
	C295.736328,239.857620 301.332794,239.999512 307.377228,239.997803 
	C304.770782,248.133041 303.093781,249.152466 295.323303,246.715622 
	C292.231110,245.745911 289.370819,244.036530 286.180237,242.409058 
z"/>
<path fill="#3EB0EC" opacity="1.000000" stroke="none" 
	d="
M269.651733,284.071655 
	C266.171051,283.768494 262.995392,283.468536 259.853394,282.960541 
	C258.245209,282.700531 256.697266,282.068207 255.034912,281.192566 
	C261.673401,276.805023 268.355042,272.527771 277.098633,277.984406 
	C274.581787,280.104523 272.276245,282.046631 269.651733,284.071655 
z"/>
<path fill="#FA2533" opacity="1.000000" stroke="none" 
	d="
M164.083344,35.619957 
	C164.686737,34.916142 165.522141,34.069427 166.338470,34.087444 
	C173.752319,34.251106 181.162842,34.565689 188.986053,35.016953 
	C185.610001,37.144314 181.884293,39.231712 177.993835,40.945091 
	C176.930466,41.413410 175.242630,41.063122 174.066238,40.561325 
	C170.750427,39.146938 167.551529,37.458519 164.083344,35.619957 
z"/>
<path fill="#D36F96" opacity="1.000000" stroke="none" 
	d="
M83.033463,125.766312 
	C84.390358,125.044640 85.977455,124.276161 87.637985,124.052277 
	C91.060120,123.590874 94.521446,123.420227 98.360016,123.060944 
	C99.983780,126.054390 101.214180,129.116837 102.628128,132.636108 
	C94.092789,134.313782 89.700951,127.315948 83.033463,125.766312 
z"/>
<path fill="#A7E8FF" opacity="1.000000" stroke="none" 
	d="
M165.946167,266.040558 
	C164.185181,263.268127 162.573425,260.824799 160.460663,257.621979 
	C166.051208,258.268005 170.764206,258.812653 176.205032,259.441376 
	C174.303543,263.921539 172.533356,268.092285 170.477493,272.936127 
	C168.844208,270.488678 167.469788,268.429169 165.946167,266.040558 
z"/>
<path fill="#3AAFEC" opacity="1.000000" stroke="none" 
	d="
M88.811172,280.716736 
	C84.126289,281.671082 79.220802,282.359955 73.856033,283.141937 
	C71.484421,281.752167 69.572105,280.269287 67.255577,278.472992 
	C71.919128,274.866760 76.431328,274.421387 81.220047,276.581085 
	C83.745117,277.719879 86.138000,279.151764 88.811172,280.716736 
z"/>
<path fill="#3EB0EC" opacity="1.000000" stroke="none" 
	d="
M152.155518,280.564453 
	C144.076004,280.716888 135.772491,280.589630 127.191795,280.131866 
	C135.381561,273.339050 143.698914,274.619324 152.155518,280.564453 
z"/>
<path fill="#C478A3" opacity="1.000000" stroke="none" 
	d="
M329.959839,146.585449 
	C323.406982,146.801605 316.904480,146.604507 310.122009,146.064026 
	C316.012512,143.196625 322.183014,140.672577 328.636475,138.032776 
	C329.109100,140.833176 329.559662,143.502686 329.959839,146.585449 
z"/>
<path fill="#D37096" opacity="1.000000" stroke="none" 
	d="
M245.036102,123.365417 
	C250.092072,123.003975 255.200348,122.918297 260.302795,123.053391 
	C261.810211,123.093307 263.301086,123.756447 264.901306,124.521217 
	C259.760162,126.886963 254.517258,128.865479 248.839859,131.007965 
	C247.623795,128.648697 246.354996,126.187126 245.036102,123.365417 
z"/>
<path fill="#15B2F0" opacity="1.000000" stroke="none" 
	d="
M216.888931,307.546570 
	C209.601791,307.991180 202.138840,308.139526 194.286087,308.115417 
	C201.327881,301.979675 208.938828,301.924713 216.888931,307.546570 
z"/>
<path fill="#62ABE5" opacity="1.000000" stroke="none" 
	d="
M280.020569,251.622314 
	C273.323792,251.793274 266.396240,251.691879 259.229492,251.285294 
	C266.024536,245.420044 272.932220,246.977203 280.020569,251.622314 
z"/>
<path fill="#9596CC" opacity="1.000000" stroke="none" 
	d="
M35.782959,201.657349 
	C33.264004,202.249313 30.464657,202.627258 27.664509,202.999130 
	C25.600962,203.273178 23.536364,203.539307 21.056955,203.986816 
	C19.624556,201.315475 18.607431,198.466248 17.163378,194.421082 
	C24.212685,197.119385 29.857454,199.280075 35.782959,201.657349 
z"/>
<path fill="#AD89BA" opacity="1.000000" stroke="none" 
	d="
M125.322723,175.502319 
	C120.043945,175.588531 114.652008,175.313873 109.141891,174.675629 
	C111.831818,173.588821 114.855606,173.301422 117.398796,172.042877 
	C121.479645,170.023392 123.826500,171.025589 125.322723,175.502319 
z"/>
<path fill="#E16180" opacity="1.000000" stroke="none" 
	d="
M234.346954,103.315285 
	C238.410538,103.176132 242.491241,103.373627 246.843857,103.905533 
	C243.870850,105.533669 240.625931,106.827400 237.192642,108.196228 
	C236.025009,106.320343 235.194534,104.986137 234.346954,103.315285 
z"/>
<path fill="#7AA3DB" opacity="1.000000" stroke="none" 
	d="
M121.942917,230.669205 
	C117.742599,231.007950 113.488991,231.006912 109.116028,230.640549 
	C111.533775,229.619141 114.196373,229.254532 116.575005,228.230392 
	C119.313416,227.051376 120.915977,227.600235 121.942917,230.669205 
z"/>
<path fill="#7AA3DB" opacity="1.000000" stroke="none" 
	d="
M43.581097,230.172455 
	C42.679272,230.856232 41.401360,231.659714 40.016449,231.946472 
	C37.670502,232.432220 35.256977,232.591629 32.468410,232.937744 
	C31.332994,231.558548 30.601023,230.129822 29.934669,228.350403 
	C30.000286,227.999725 29.996342,228.004684 29.996342,228.004684 
	C34.383194,228.689713 38.770042,229.374741 43.581097,230.172455 
z"/>
<path fill="#BF81AD" opacity="1.000000" stroke="none" 
	d="
M252.191986,152.387756 
	C255.067230,152.326584 257.821838,152.670822 261.010437,153.095444 
	C258.616089,154.591782 255.787704,156.007736 252.071350,157.868225 
	C252.071350,155.527359 252.071350,154.160248 252.191986,152.387756 
z"/>
<path fill="#9596CC" opacity="1.000000" stroke="none" 
	d="
M118.338867,203.764954 
	C116.863724,203.515167 115.604622,202.983978 114.148651,202.175568 
	C115.433899,201.267487 116.916031,200.636627 119.031677,199.736115 
	C118.820847,201.393250 118.687874,202.438400 118.338867,203.764954 
z"/>
<path fill="#7AA3DB" opacity="1.000000" stroke="none" 
	d="
M30.003826,227.996429 
	C29.858629,227.857422 29.709890,227.721710 29.561153,227.585999 
	C29.670620,227.620697 29.780087,227.655396 29.942947,227.847397 
	C29.996342,228.004684 30.000286,227.999725 30.003826,227.996429 
z"/>
</svg>