<svg version="1.1" id="Layer_1" xmlns="http://www.w3.org/2000/svg" xmlns:xlink="http://www.w3.org/1999/xlink" x="0px" y="0px"
	 width="100%" viewBox="0 0 293 296" enable-background="new 0 0 293 296" xml:space="preserve">
<path fill="#1F1F5D" opacity="1.000000" stroke="none" 
	d="
M165.000000,297.000000 
	C110.000008,297.000000 55.500019,297.000000 1.000022,297.000000 
	C1.000015,198.333359 1.000015,99.666725 1.000007,1.000062 
	C98.666626,1.000041 196.333252,1.000041 293.999908,1.000021 
	C293.999939,99.666603 293.999939,198.333206 293.999969,296.999908 
	C251.166672,297.000000 208.333328,297.000000 165.000000,297.000000 
M71.885605,148.661087 
	C58.086048,148.661087 44.286495,148.661087 30.234762,148.661087 
	C30.234762,187.586258 30.234762,226.155807 30.234762,264.796753 
	C41.832119,264.796753 53.212410,264.796753 65.035683,264.796753 
	C65.035683,250.399399 65.035683,236.324631 65.035683,221.964279 
	C68.452705,221.964279 71.455101,222.229034 74.391060,221.900314 
	C78.482239,221.442261 81.014900,222.912872 83.444099,226.316544 
	C91.859444,238.107681 100.763275,249.549164 109.263138,261.281708 
	C111.333771,264.139893 113.482086,265.221649 117.047211,265.211823 
	C164.046280,265.082062 211.045822,265.127533 258.045258,265.116333 
	C259.648682,265.115936 261.252075,264.981720 262.892395,264.908234 
	C262.892395,257.079865 262.892395,249.649750 262.892395,241.614182 
	C249.302719,241.614182 235.923767,241.614182 222.597382,241.614182 
	C222.597382,218.103882 222.597382,195.203949 222.597382,171.927246 
	C236.235291,171.927246 249.504623,171.927246 263.115326,171.927246 
	C263.115326,162.917740 263.332764,154.276779 262.979462,145.659195 
	C262.876862,143.156418 261.750916,140.145096 260.054688,138.347778 
	C249.304001,126.956184 238.257736,115.843651 227.317200,104.631027 
	C222.700211,99.899223 218.103317,95.147850 213.368042,90.272308 
	C214.547852,88.973526 215.400253,87.971695 216.318268,87.034119 
	C230.658829,72.388023 244.899216,57.640923 259.436493,43.192566 
	C262.785889,39.863663 263.894684,36.596863 262.638855,31.964333 
	C252.430283,31.964333 242.283478,31.806929 232.148972,32.090317 
	C229.988937,32.150723 227.316711,33.277233 225.825897,34.823895 
	C213.799026,47.301186 201.997116,59.995335 190.129471,72.626030 
	C187.539307,75.382706 184.960861,78.150398 181.547806,81.799606 
	C181.547806,64.557259 181.547806,48.506195 181.547806,32.325047 
	C158.665588,32.325047 136.291122,32.325047 113.782333,32.325047 
	C113.782333,53.849785 113.772156,75.013855 113.788544,96.177895 
	C113.793442,102.508621 112.640266,108.434631 108.165649,113.281013 
	C101.592827,120.399902 88.632935,122.762131 78.398308,118.706871 
	C69.450089,115.161331 64.932838,107.949959 64.913277,96.947945 
	C64.878014,77.114914 64.902161,57.281773 64.901505,37.448681 
	C64.901451,35.689526 64.901497,33.930374 64.901497,32.183449 
	C52.943802,32.183449 41.670544,32.183449 30.313215,32.183449 
	C30.177547,32.843159 29.999765,33.304073 29.999893,33.764938 
	C30.006121,56.264408 29.826754,78.767189 30.198030,101.260849 
	C30.283806,106.457520 31.516216,111.928604 33.498329,116.748077 
	C40.725098,134.319748 55.154804,142.986832 72.848724,147.644257 
	C72.831192,147.971649 72.813667,148.299026 71.885605,148.661087 
z"/>
<path fill="#FEFEFE" opacity="1.000000" stroke="none" 
	d="
M72.905807,147.143753 
	C55.154804,142.986832 40.725098,134.319748 33.498329,116.748077 
	C31.516216,111.928604 30.283806,106.457520 30.198030,101.260849 
	C29.826754,78.767189 30.006121,56.264408 29.999893,33.764938 
	C29.999765,33.304073 30.177547,32.843159 30.313215,32.183449 
	C41.670544,32.183449 52.943802,32.183449 64.901497,32.183449 
	C64.901497,33.930374 64.901451,35.689526 64.901505,37.448681 
	C64.902161,57.281773 64.878014,77.114914 64.913277,96.947945 
	C64.932838,107.949959 69.450089,115.161331 78.398308,118.706871 
	C88.632935,122.762131 101.592827,120.399902 108.165649,113.281013 
	C112.640266,108.434631 113.793442,102.508621 113.788544,96.177895 
	C113.772156,75.013855 113.782333,53.849785 113.782333,32.325047 
	C136.291122,32.325047 158.665588,32.325047 181.547806,32.325047 
	C181.547806,48.506195 181.547806,64.557259 181.547806,81.799606 
	C184.960861,78.150398 187.539307,75.382706 190.129471,72.626030 
	C201.997116,59.995335 213.799026,47.301186 225.825897,34.823895 
	C227.316711,33.277233 229.988937,32.150723 232.148972,32.090317 
	C242.283478,31.806929 252.430283,31.964333 262.638855,31.964333 
	C263.894684,36.596863 262.785889,39.863663 259.436493,43.192566 
	C244.899216,57.640923 230.658829,72.388023 216.318268,87.034119 
	C215.400253,87.971695 214.547852,88.973526 213.368042,90.272308 
	C218.103317,95.147850 222.700211,99.899223 227.317200,104.631027 
	C238.257736,115.843651 249.304001,126.956184 260.054688,138.347778 
	C261.750916,140.145096 262.876862,143.156418 262.979462,145.659195 
	C263.332764,154.276779 263.115326,162.917740 263.115326,171.927246 
	C249.504623,171.927246 236.235291,171.927246 222.597382,171.927246 
	C222.597382,195.203949 222.597382,218.103882 222.597382,241.614182 
	C235.923767,241.614182 249.302719,241.614182 262.892395,241.614182 
	C262.892395,249.649750 262.892395,257.079865 262.892395,264.908234 
	C261.252075,264.981720 259.648682,265.115936 258.045258,265.116333 
	C211.045822,265.127533 164.046280,265.082062 117.047211,265.211823 
	C113.482086,265.221649 111.333771,264.139893 109.263138,261.281708 
	C100.763275,249.549164 91.859444,238.107681 83.444099,226.316544 
	C81.014900,222.912872 78.482239,221.442261 74.391060,221.900314 
	C71.455101,222.229034 68.452705,221.964279 65.035683,221.964279 
	C65.035683,236.324631 65.035683,250.399399 65.035683,264.796753 
	C53.212410,264.796753 41.832119,264.796753 30.234762,264.796753 
	C30.234762,226.155807 30.234762,187.586258 30.234762,148.661087 
	C44.286495,148.661087 58.086048,148.661087 72.718231,148.791565 
	C75.161850,148.922043 76.772835,148.922043 78.383820,148.922043 
	C76.872993,147.895157 75.367966,147.451126 73.849792,147.057861 
	C73.561867,146.983292 73.221809,147.109940 72.905807,147.143753 
M148.729446,198.935730 
	C143.206284,212.541412 131.397034,217.294632 117.879921,220.364700 
	C127.297615,232.698044 136.468643,244.708374 145.639679,256.718689 
	C146.015533,256.562103 146.391388,256.405548 146.767242,256.248962 
	C146.767242,251.525650 146.767242,246.802338 146.767242,241.658661 
	C160.489990,241.658661 173.721786,241.658661 187.184082,241.658661 
	C187.184082,218.298950 187.184082,195.393433 187.184082,172.351685 
	C174.409607,172.351685 161.883499,172.351685 149.094742,172.351685 
	C151.665009,181.184189 151.729172,189.703903 148.729446,198.935730 
M101.778923,172.418625 
	C89.553398,172.418625 77.327866,172.418625 65.178085,172.418625 
	C65.178085,181.176300 65.178085,189.593460 65.178085,197.985718 
	C77.726891,197.985718 90.015327,198.402512 102.259689,197.847305 
	C111.256989,197.439346 115.785583,191.658737 114.996147,183.413330 
	C114.421074,177.406845 110.619339,174.097610 101.778923,172.418625 
M219.934357,139.562881 
	C207.386276,126.184723 194.838196,112.806557 181.806183,98.912445 
	C181.806183,116.114220 181.806183,132.280609 181.806183,148.320816 
	C197.241287,148.320816 212.243927,148.320816 228.072739,148.320816 
	C225.140228,145.163956 222.778534,142.621567 219.934357,139.562881 
M129.734558,136.300064 
	C121.323334,140.481552 112.912109,144.663055 104.700760,148.745193 
	C119.707802,150.055954 135.171982,152.030121 146.330933,166.089325 
	C146.330933,148.687988 146.330933,132.160126 146.330933,115.632256 
	C142.569809,123.777061 137.275833,130.476852 129.734558,136.300064 
z"/>
<path fill="#7E7EA1" opacity="1.000000" stroke="none" 
	d="
M72.877266,147.394012 
	C73.221809,147.109940 73.561867,146.983292 73.849792,147.057861 
	C75.367966,147.451126 76.872993,147.895157 78.383820,148.922043 
	C76.772835,148.922043 75.161850,148.922043 73.173500,148.774231 
	C72.813667,148.299026 72.831192,147.971649 72.877266,147.394012 
z"/>
<path fill="#20205E" opacity="1.000000" stroke="none" 
	d="
M148.847351,198.557861 
	C151.729172,189.703903 151.665009,181.184189 149.094742,172.351685 
	C161.883499,172.351685 174.409607,172.351685 187.184082,172.351685 
	C187.184082,195.393433 187.184082,218.298950 187.184082,241.658661 
	C173.721786,241.658661 160.489990,241.658661 146.767242,241.658661 
	C146.767242,246.802338 146.767242,251.525650 146.767242,256.248962 
	C146.391388,256.405548 146.015533,256.562103 145.639679,256.718689 
	C136.468643,244.708374 127.297615,232.698044 117.879921,220.364700 
	C131.397034,217.294632 143.206284,212.541412 148.847351,198.557861 
z"/>
<path fill="#20205D" opacity="1.000000" stroke="none" 
	d="
M102.198868,172.529053 
	C110.619339,174.097610 114.421074,177.406845 114.996147,183.413330 
	C115.785583,191.658737 111.256989,197.439346 102.259689,197.847305 
	C90.015327,198.402512 77.726891,197.985718 65.178085,197.985718 
	C65.178085,189.593460 65.178085,181.176300 65.178085,172.418625 
	C77.327866,172.418625 89.553398,172.418625 102.198868,172.529053 
z"/>
<path fill="#272762" opacity="1.000000" stroke="none" 
	d="
M220.175598,139.821045 
	C222.778534,142.621567 225.140228,145.163956 228.072739,148.320816 
	C212.243927,148.320816 197.241287,148.320816 181.806183,148.320816 
	C181.806183,132.280609 181.806183,116.114220 181.806183,98.912445 
	C194.838196,112.806557 207.386276,126.184723 220.175598,139.821045 
z"/>
<path fill="#292964" opacity="1.000000" stroke="none" 
	d="
M130.031799,136.099442 
	C137.275833,130.476852 142.569809,123.777061 146.330933,115.632256 
	C146.330933,132.160126 146.330933,148.687988 146.330933,166.089325 
	C135.171982,152.030121 119.707802,150.055954 104.700760,148.745193 
	C112.912109,144.663055 121.323334,140.481552 130.031799,136.099442 
z"/>
</svg>